<?xml version="1.0" encoding="utf-8"?>
<!-- Generator: Adobe Illustrator 19.1.0, SVG Export Plug-In . SVG Version: 6.00 Build 0)  -->
<svg version="1.1" id="Layer_1" xmlns="http://www.w3.org/2000/svg" xmlns:xlink="http://www.w3.org/1999/xlink" x="0px" y="0px"
	 viewBox="0 0 12.6 9.2" width="12.475" height="9" style="enable-background:new 0 0 12.6 9.2;" xml:space="preserve">
<style type="text/css">
	.st0{fill:#FFFFFF;}
</style>
<path class="st0" d="M12.5,5c0.1-0.2,0.1-0.5,0-0.8c-0.1-0.1-0.1-0.2-0.2-0.3L8.8,0.4C8.4,0,7.7,0,7.3,0.4s-0.4,1,0,1.4l1.8,1.8h-8
	c-0.6,0-1,0.4-1,1s0.4,1,1,1h8L7.3,7.4C7,7.8,7,8.4,7.3,8.8C7.5,9,7.8,9.1,8,9.1S8.6,9,8.8,8.8l3.5-3.5C12.3,5.2,12.4,5.1,12.5,5z"
	/>
</svg>
