<?xml version="1.0" encoding="utf-8"?>
<!-- Generator: Adobe Illustrator 19.1.0, SVG Export Plug-In . SVG Version: 6.00 Build 0)  -->
<svg version="1.1" id="Layer_1" xmlns="http://www.w3.org/2000/svg" xmlns:xlink="http://www.w3.org/1999/xlink" x="0px" y="0px"
	 viewBox="-43 46.8 12.6 9.2" width="12.475px" height="9" style="enable-background:new -43 46.8 12.6 9.2;" xml:space="preserve">
<style type="text/css">
	.st0{fill:url(#SVGID_1_);}
</style>
<linearGradient id="SVGID_1_" gradientUnits="userSpaceOnUse" x1="-42.9" y1="51.4" x2="-30.425" y2="51.4">
	<stop  offset="0" style="stop-color:#D81F32"/>
	<stop  offset="1" style="stop-color:#DC3546"/>
</linearGradient>
<path class="st0" d="M-30.5,51.8c0.1-0.2,0.1-0.5,0-0.8c-0.1-0.1-0.1-0.2-0.2-0.3l-3.5-3.5c-0.4-0.4-1.1-0.4-1.5,0
	c-0.4,0.4-0.4,1,0,1.4l1.8,1.8h-8c-0.6,0-1,0.4-1,1c0,0.6,0.4,1,1,1h8l-1.8,1.8c-0.3,0.4-0.3,1,0,1.4c0.2,0.2,0.5,0.3,0.7,0.3
	s0.6-0.1,0.8-0.3l3.5-3.5C-30.7,52-30.6,51.9-30.5,51.8z"/>
</svg>
