<?xml version="1.0" encoding="utf-8"?>
<!-- Generator: Adobe Illustrator 19.2.0, SVG Export Plug-In . SVG Version: 6.00 Build 0)  -->
<svg version="1.1" id="Layer_1" xmlns="http://www.w3.org/2000/svg" xmlns:xlink="http://www.w3.org/1999/xlink" x="0px" y="0px"
	 viewBox="0 0 199.4 57.2" width="199.415" height="57.227" style="enable-background:new 0 0 199.4 57.2;" xml:space="preserve">
<style type="text/css">
	.st0{fill:#D81F33;}
	.st1{fill:#FFFFFF;}
</style>
<g>
	<path class="st0" d="M199.4,51.5c0,3.2-2.6,5.7-5.7,5.7H5.7c-3.2,0-5.7-2.6-5.7-5.7V5.7C0,2.6,2.6,0,5.7,0h187.9
		c3.2,0,5.7,2.6,5.7,5.7L199.4,51.5L199.4,51.5z"/>
	<g>
		<g>
			<g>
				<path class="st1" d="M43.8,28.3c0-4.8,4-7.2,4.1-7.3c-2.3-3.3-5.8-3.8-7-3.8C38,16.9,35.1,19,33.6,19c-1.5,0-3.8-1.7-6.3-1.7
					c-3.2,0-6.2,1.9-7.8,4.8C16,28,18.6,36.6,21.8,41.4c1.6,2.3,3.5,4.9,6,4.8c2.4-0.1,3.3-1.6,6.3-1.6c2.9,0,3.8,1.6,6.3,1.5
					c2.6,0,4.3-2.3,5.8-4.7c1.9-2.7,2.6-5.3,2.7-5.4C48.9,36,43.8,34.1,43.8,28.3z"/>
				<path class="st1" d="M39,14.1c1.3-1.6,2.2-3.9,2-6.1c-1.9,0.1-4.3,1.3-5.6,2.9c-1.2,1.4-2.3,3.7-2,5.9
					C35.4,16.9,37.6,15.7,39,14.1z"/>
			</g>
		</g>
		<g>
			<path class="st1" d="M79,45.9h-3.4L73.7,40h-6.5l-1.8,5.9h-3.3l6.4-19.9h4L79,45.9z M73.2,37.5l-1.7-5.2c-0.2-0.5-0.5-1.8-1-3.8
				h-0.1c-0.2,0.8-0.5,2.1-0.9,3.8l-1.7,5.2H73.2z"/>
			<path class="st1" d="M95.5,38.5c0,2.4-0.7,4.4-2,5.8c-1.2,1.3-2.7,1.9-4.4,1.9c-1.9,0-3.3-0.7-4.1-2H85v7.6h-3.2V36.2
				c0-1.5,0-3.1-0.1-4.7h2.8l0.2,2.3h0.1c1.1-1.7,2.7-2.6,4.8-2.6c1.7,0,3.1,0.7,4.2,2C94.9,34.5,95.5,36.3,95.5,38.5z M92.3,38.6
				c0-1.4-0.3-2.6-0.9-3.5c-0.7-0.9-1.6-1.4-2.8-1.4c-0.8,0-1.5,0.3-2.1,0.8c-0.6,0.5-1.1,1.2-1.3,2.1C85,37,85,37.3,85,37.5v2.4
				c0,1,0.3,1.9,1,2.6c0.6,0.7,1.5,1.1,2.5,1.1c1.2,0,2.1-0.5,2.8-1.4C91.9,41.3,92.3,40.1,92.3,38.6z"/>
			<path class="st1" d="M112,38.5c0,2.4-0.7,4.4-2,5.8c-1.2,1.3-2.7,1.9-4.4,1.9c-1.9,0-3.3-0.7-4.1-2h-0.1v7.6h-3.2V36.2
				c0-1.5,0-3.1-0.1-4.7h2.8l0.2,2.3h0.1c1.1-1.7,2.7-2.6,4.8-2.6c1.7,0,3.1,0.7,4.2,2C111.5,34.5,112,36.3,112,38.5z M108.8,38.6
				c0-1.4-0.3-2.6-0.9-3.5c-0.7-0.9-1.6-1.4-2.8-1.4c-0.8,0-1.5,0.3-2.1,0.8c-0.6,0.5-1.1,1.2-1.3,2.1c-0.1,0.4-0.1,0.7-0.1,1v2.4
				c0,1,0.3,1.9,1,2.6c0.6,0.7,1.5,1.1,2.5,1.1c1.2,0,2.1-0.5,2.8-1.4C108.5,41.3,108.8,40.1,108.8,38.6z"/>
			<path class="st1" d="M130.5,40.3c0,1.7-0.6,3.1-1.8,4.1c-1.3,1.2-3.1,1.7-5.4,1.7c-2.1,0-3.9-0.4-5.2-1.2l0.7-2.7
				c1.4,0.8,2.9,1.3,4.6,1.3c1.2,0,2.1-0.3,2.8-0.8c0.7-0.5,1-1.3,1-2.2c0-0.8-0.3-1.5-0.8-2c-0.5-0.6-1.5-1.1-2.7-1.5
				c-3.5-1.3-5.2-3.2-5.2-5.7c0-1.6,0.6-3,1.8-4c1.2-1,2.8-1.6,4.9-1.6c1.8,0,3.3,0.3,4.5,0.9l-0.8,2.6c-1.1-0.6-2.4-0.9-3.8-0.9
				c-1.1,0-2,0.3-2.6,0.8c-0.5,0.5-0.8,1.1-0.8,1.8c0,0.8,0.3,1.4,0.9,2c0.5,0.5,1.5,1,2.9,1.5c1.7,0.7,3,1.5,3.8,2.4
				C130.1,37.7,130.5,38.9,130.5,40.3z"/>
			<path class="st1" d="M141.1,33.9h-3.5v7c0,1.8,0.6,2.7,1.9,2.7c0.6,0,1,0,1.4-0.1l0.1,2.4c-0.6,0.2-1.5,0.4-2.5,0.4
				c-1.3,0-2.2-0.4-3-1.2c-0.7-0.8-1.1-2.1-1.1-3.9v-7.2h-2.1v-2.4h2.1v-2.6l3.1-0.9v3.6h3.5L141.1,33.9z"/>
			<path class="st1" d="M157,38.5c0,2.2-0.6,4-1.9,5.4c-1.3,1.5-3.1,2.2-5.3,2.2c-2.1,0-3.8-0.7-5-2.1c-1.3-1.4-1.9-3.2-1.9-5.3
				c0-2.2,0.6-4.1,1.9-5.5c1.3-1.4,3-2.1,5.2-2.1c2.1,0,3.8,0.7,5.1,2.1C156.4,34.6,157,36.4,157,38.5z M153.7,38.7
				c0-1.3-0.3-2.5-0.9-3.4c-0.7-1.1-1.6-1.7-2.9-1.7c-1.3,0-2.3,0.6-2.9,1.7c-0.6,0.9-0.9,2.1-0.9,3.5c0,1.3,0.3,2.5,0.9,3.4
				c0.7,1.1,1.7,1.7,2.9,1.7c1.2,0,2.2-0.6,2.9-1.7C153.4,41.1,153.7,40,153.7,38.7z"/>
			<path class="st1" d="M167.3,34.3c-0.3-0.1-0.7-0.1-1-0.1c-1.1,0-2,0.4-2.6,1.3c-0.5,0.7-0.8,1.7-0.8,2.8v7.5h-3.2l0-9.8
				c0-1.7,0-3.2-0.1-4.5h2.8l0.1,2.7h0.1c0.3-0.9,0.9-1.7,1.6-2.3c0.7-0.5,1.5-0.8,2.3-0.8c0.3,0,0.6,0,0.8,0.1L167.3,34.3z"/>
			<path class="st1" d="M181.6,38c0,0.6,0,1.1-0.1,1.4h-9.6c0,1.4,0.5,2.5,1.4,3.3c0.8,0.7,1.9,1,3.1,1c1.4,0,2.7-0.2,3.9-0.7
				l0.5,2.2c-1.4,0.6-3,0.9-4.8,0.9c-2.2,0-4-0.7-5.3-2c-1.3-1.3-1.9-3.1-1.9-5.3c0-2.2,0.6-4,1.8-5.4c1.2-1.5,2.9-2.3,5-2.3
				c2.1,0,3.6,0.8,4.7,2.3C181.2,34.7,181.6,36.2,181.6,38z M178.6,37.2c0-0.9-0.2-1.8-0.6-2.5c-0.6-0.9-1.4-1.3-2.5-1.3
				c-1,0-1.9,0.4-2.5,1.3c-0.5,0.7-0.8,1.5-0.9,2.5L178.6,37.2L178.6,37.2z"/>
		</g>
		<g>
			<g>
				<path class="st1" d="M72.1,13.7c0,1.8-0.5,3.1-1.6,4c-1,0.8-2.4,1.2-4.2,1.2c-0.9,0-1.7,0-2.3-0.1V9.1c0.8-0.1,1.7-0.2,2.7-0.2
					c1.7,0,3,0.4,3.9,1.1C71.6,10.9,72.1,12.1,72.1,13.7z M70.5,13.7c0-1.1-0.3-2-0.9-2.6c-0.6-0.6-1.5-0.9-2.7-0.9
					c-0.5,0-0.9,0-1.3,0.1v7.3c0.2,0,0.5,0,1.1,0c1.2,0,2.1-0.3,2.8-1C70.1,16,70.5,15,70.5,13.7z"/>
				<path class="st1" d="M80.9,15.2c0,1.1-0.3,2-0.9,2.7c-0.7,0.7-1.5,1.1-2.6,1.1c-1,0-1.9-0.3-2.5-1c-0.6-0.7-0.9-1.6-0.9-2.6
					c0-1.1,0.3-2,1-2.7c0.6-0.7,1.5-1,2.6-1c1,0,1.9,0.3,2.5,1C80.6,13.3,80.9,14.1,80.9,15.2z M79.3,15.2c0-0.7-0.1-1.2-0.4-1.7
					c-0.3-0.6-0.8-0.8-1.4-0.8c-0.6,0-1.1,0.3-1.4,0.8c-0.3,0.5-0.4,1-0.4,1.7c0,0.7,0.1,1.2,0.4,1.7c0.3,0.6,0.8,0.8,1.4,0.8
					c0.6,0,1.1-0.3,1.4-0.9C79.1,16.5,79.3,15.9,79.3,15.2z"/>
				<path class="st1" d="M92.7,11.7l-2.2,7.1H89l-0.9-3.1c-0.2-0.8-0.4-1.5-0.6-2.3h0c-0.1,0.8-0.3,1.5-0.6,2.3l-1,3.1h-1.5
					l-2.1-7.1h1.6l0.8,3.4c0.2,0.8,0.4,1.6,0.5,2.3h0c0.1-0.6,0.3-1.3,0.6-2.3l1-3.4h1.3l1,3.3c0.2,0.8,0.4,1.6,0.6,2.3h0
					c0.1-0.7,0.3-1.5,0.5-2.3l0.9-3.3L92.7,11.7L92.7,11.7z"/>
				<path class="st1" d="M100.8,18.8h-1.6v-4c0-1.2-0.5-1.9-1.4-1.9c-0.5,0-0.8,0.2-1.1,0.5c-0.3,0.3-0.4,0.7-0.4,1.2v4.2h-1.6v-5
					c0-0.6,0-1.3-0.1-2H96l0.1,1.1h0c0.2-0.3,0.5-0.6,0.8-0.9c0.4-0.3,0.9-0.4,1.4-0.4c0.7,0,1.2,0.2,1.6,0.6
					c0.5,0.5,0.8,1.3,0.8,2.3V18.8z"/>
				<path class="st1" d="M105.1,18.8h-1.6V8.5h1.6V18.8z"/>
				<path class="st1" d="M114.4,15.2c0,1.1-0.3,2-0.9,2.7c-0.7,0.7-1.5,1.1-2.6,1.1c-1,0-1.9-0.3-2.5-1c-0.6-0.7-0.9-1.6-0.9-2.6
					c0-1.1,0.3-2,1-2.7s1.5-1,2.6-1c1,0,1.9,0.3,2.5,1C114.1,13.3,114.4,14.1,114.4,15.2z M112.8,15.2c0-0.7-0.1-1.2-0.4-1.7
					c-0.3-0.6-0.8-0.8-1.4-0.8c-0.6,0-1.1,0.3-1.4,0.8c-0.3,0.5-0.4,1-0.4,1.7c0,0.7,0.1,1.2,0.4,1.7c0.3,0.6,0.8,0.8,1.4,0.8
					c0.6,0,1.1-0.3,1.4-0.9C112.6,16.5,112.8,15.9,112.8,15.2z"/>
				<path class="st1" d="M122,18.8h-1.4l-0.1-0.8h0c-0.5,0.6-1.2,1-2.1,1c-0.7,0-1.2-0.2-1.6-0.6c-0.4-0.4-0.6-0.9-0.6-1.4
					c0-0.9,0.4-1.5,1.1-2c0.7-0.5,1.7-0.7,3-0.7v-0.1c0-0.9-0.5-1.4-1.5-1.4c-0.7,0-1.3,0.2-1.8,0.5l-0.3-1c0.7-0.4,1.5-0.6,2.4-0.6
					c1.8,0,2.8,1,2.8,2.9v2.6C121.9,17.8,121.9,18.4,122,18.8z M120.3,16.4v-1.1c-1.7,0-2.6,0.4-2.6,1.4c0,0.4,0.1,0.6,0.3,0.8
					c0.2,0.2,0.5,0.3,0.8,0.3c0.3,0,0.7-0.1,1-0.3c0.3-0.2,0.5-0.5,0.5-0.8C120.3,16.6,120.3,16.5,120.3,16.4z"/>
				<path class="st1" d="M130.9,18.8h-1.4l-0.1-1.1h0c-0.4,0.9-1.2,1.3-2.3,1.3c-0.9,0-1.6-0.3-2.1-1c-0.6-0.7-0.8-1.5-0.8-2.6
					c0-1.1,0.3-2.1,0.9-2.8c0.6-0.7,1.3-1,2.2-1c0.9,0,1.6,0.3,2,1h0V8.5h1.6v8.4C130.8,17.6,130.9,18.2,130.9,18.8z M129.3,15.8
					v-1.2c0-0.2,0-0.4,0-0.5c-0.1-0.4-0.3-0.7-0.6-1c-0.3-0.3-0.6-0.4-1-0.4c-0.6,0-1,0.2-1.4,0.7c-0.3,0.5-0.5,1.1-0.5,1.8
					c0,0.7,0.2,1.3,0.5,1.7c0.3,0.5,0.8,0.7,1.4,0.7c0.5,0,0.9-0.2,1.2-0.6C129.1,16.7,129.3,16.3,129.3,15.8z"/>
				<path class="st1" d="M144.3,15.2c0,1.1-0.3,2-0.9,2.7c-0.7,0.7-1.5,1.1-2.6,1.1c-1,0-1.9-0.3-2.5-1c-0.6-0.7-0.9-1.6-0.9-2.6
					c0-1.1,0.3-2,1-2.7s1.5-1,2.6-1c1,0,1.9,0.3,2.5,1C144,13.3,144.3,14.1,144.3,15.2z M142.7,15.2c0-0.7-0.1-1.2-0.4-1.7
					c-0.3-0.6-0.8-0.8-1.4-0.8c-0.6,0-1.1,0.3-1.4,0.8c-0.3,0.5-0.4,1-0.4,1.7c0,0.7,0.1,1.2,0.4,1.7c0.3,0.6,0.8,0.8,1.4,0.8
					c0.6,0,1.1-0.3,1.4-0.9C142.5,16.5,142.7,15.9,142.7,15.2z"/>
				<path class="st1" d="M152.8,18.8h-1.6v-4c0-1.2-0.5-1.9-1.4-1.9c-0.5,0-0.8,0.2-1.1,0.5c-0.3,0.3-0.4,0.7-0.4,1.2v4.2h-1.6v-5
					c0-0.6,0-1.3-0.1-2h1.4l0.1,1.1h0c0.2-0.3,0.5-0.6,0.8-0.9c0.4-0.3,0.9-0.4,1.4-0.4c0.7,0,1.2,0.2,1.6,0.6
					c0.5,0.5,0.8,1.3,0.8,2.3V18.8z"/>
				<path class="st1" d="M163.3,12.9h-1.7v3.4c0,0.9,0.3,1.3,0.9,1.3c0.3,0,0.5,0,0.7-0.1l0,1.2c-0.3,0.1-0.7,0.2-1.2,0.2
					c-0.6,0-1.1-0.2-1.5-0.6c-0.4-0.4-0.5-1-0.5-1.9v-3.6h-1v-1.2h1v-1.3l1.5-0.5v1.8h1.7L163.3,12.9L163.3,12.9z"/>
				<path class="st1" d="M171.6,18.8h-1.6v-4c0-1.3-0.5-1.9-1.4-1.9c-0.7,0-1.2,0.4-1.5,1.1c0,0.2-0.1,0.3-0.1,0.6v4.2h-1.6V8.5h1.6
					v4.3h0c0.5-0.8,1.2-1.2,2.1-1.2c0.7,0,1.2,0.2,1.6,0.6c0.5,0.5,0.8,1.3,0.8,2.4L171.6,18.8z"/>
				<path class="st1" d="M180.2,14.9c0,0.3,0,0.5-0.1,0.7h-4.7c0,0.7,0.2,1.2,0.7,1.6c0.4,0.3,0.9,0.5,1.5,0.5
					c0.7,0,1.3-0.1,1.9-0.3l0.2,1.1c-0.7,0.3-1.5,0.4-2.4,0.4c-1.1,0-2-0.3-2.6-1c-0.6-0.6-0.9-1.5-0.9-2.6c0-1.1,0.3-2,0.9-2.7
					c0.6-0.8,1.4-1.1,2.5-1.1c1,0,1.8,0.4,2.3,1.1C180,13.3,180.2,14,180.2,14.9z M178.7,14.5c0-0.5-0.1-0.9-0.3-1.2
					c-0.3-0.4-0.7-0.7-1.2-0.7c-0.5,0-0.9,0.2-1.2,0.6c-0.3,0.3-0.4,0.7-0.5,1.2L178.7,14.5z"/>
			</g>
		</g>
	</g>
</g>
</svg>
