<?xml version="1.0" encoding="utf-8"?>
<!-- Generator: Adobe Illustrator 19.1.0, SVG Export Plug-In . SVG Version: 6.00 Build 0)  -->
<svg version="1.1" id="Layer_1" xmlns="http://www.w3.org/2000/svg" xmlns:xlink="http://www.w3.org/1999/xlink" x="0px" y="0px"
	 viewBox="0 0 89.7 22.6" width="89.1" height="22" style="enable-background:new 0 0 89.7 22.6;" xml:space="preserve">
<style type="text/css">
	.st0{fill:#44474B;}
</style>
<g>
	<path class="st0" d="M88.3,0.4H1.3c-0.6,0-1,0.4-1,1v20c0,0.6,0.4,1,1,1h87.1c0.6,0,1-0.4,1-1v-20C89.3,0.8,88.9,0.4,88.3,0.4z
		 M87.3,20.4H2.3v-18h85.1V20.4z"/>
	<path class="st0" d="M7.7,15.4c0.3,0,0.6-0.3,0.6-0.6v-3h3.6c0.3,0,0.5-0.2,0.5-0.5c0-0.3-0.2-0.5-0.5-0.5H8.3V8.5H12
		c0.3,0,0.5-0.2,0.5-0.5c0-0.3-0.2-0.5-0.5-0.5h-4c-0.4,0-0.8,0.3-0.8,0.8v6.6C7.1,15.1,7.4,15.4,7.7,15.4z"/>
	<path class="st0" d="M15.6,15.3h3.5c0.3,0,0.5-0.2,0.5-0.5c0-0.3-0.2-0.5-0.5-0.5H16V7.9c0-0.3-0.3-0.6-0.6-0.6
		c-0.3,0-0.6,0.3-0.6,0.6v6.6C14.9,14.9,15.2,15.3,15.6,15.3z"/>
	<path class="st0" d="M22.1,15.4c0.2,0,0.5-0.1,0.6-0.4l0.5-1.3H27l0.5,1.3c0.1,0.2,0.3,0.4,0.6,0.4c0.4,0,0.6-0.3,0.6-0.6
		c0-0.1,0-0.1,0-0.2L26,8c-0.2-0.4-0.5-0.6-1-0.6c-0.4,0-0.8,0.2-0.9,0.6l-2.6,6.5c0,0.1,0,0.2,0,0.2C21.5,15,21.8,15.4,22.1,15.4z
		 M25.1,8.6l1.6,4h-3.1L25.1,8.6z"/>
	<path class="st0" d="M34.4,15.4c1.4,0,3.2-0.7,3.2-2v-1.5c0-0.4-0.4-0.8-0.8-0.8h-2.5c-0.3,0-0.5,0.2-0.5,0.5
		c0,0.3,0.2,0.5,0.5,0.5h2.1v1.4c-0.4,0.4-1.1,0.8-2,0.8c-1.6,0-2.9-1.3-2.9-3c0-1.8,1.2-3,2.9-3c0.7,0,1.5,0.3,1.9,0.8
		c0.1,0.1,0.2,0.2,0.4,0.2c0.3,0,0.5-0.2,0.5-0.5c0-0.1,0-0.3-0.1-0.4c-0.6-0.6-1.5-1.1-2.7-1.1c-2.3,0-4.1,1.6-4.1,4.1
		C30.3,13.8,32.1,15.4,34.4,15.4z"/>
	<path class="st0" d="M46.5,14.7c0.1,0.4,0.5,0.6,0.9,0.6h0.1c0.4,0,0.8-0.2,0.9-0.6L51,8.2c0-0.1,0-0.2,0-0.2
		c0-0.3-0.3-0.6-0.6-0.6c-0.3,0-0.5,0.2-0.6,0.4L47.4,14L45,7.8c-0.1-0.2-0.3-0.4-0.6-0.4c-0.4,0-0.6,0.3-0.6,0.6c0,0.1,0,0.2,0,0.2
		L46.5,14.7z"/>
	<path class="st0" d="M54,15.4c0.3,0,0.6-0.3,0.6-0.6V7.9c0-0.3-0.3-0.6-0.6-0.6c-0.3,0-0.6,0.3-0.6,0.6v6.8
		C53.4,15.1,53.7,15.4,54,15.4z"/>
	<path class="st0" d="M58.3,15.3h2c2.4,0,4.1-1.6,4.1-3.9c0-2.3-1.6-3.9-4.1-3.9h-2c-0.4,0-0.8,0.3-0.8,0.8v6.3
		C57.5,14.9,57.8,15.3,58.3,15.3z M58.7,8.5h1.6c1.9,0,2.9,1.3,2.9,2.9c0,1.6-1.1,2.9-2.9,2.9h-1.6V8.5z"/>
	<path class="st0" d="M67.7,15.3h4c0.3,0,0.5-0.2,0.5-0.5c0-0.3-0.2-0.5-0.5-0.5h-3.6v-2.4h3.6c0.3,0,0.5-0.2,0.5-0.5
		c0-0.3-0.2-0.5-0.5-0.5h-3.6V8.5h3.6c0.3,0,0.5-0.2,0.5-0.5c0-0.3-0.2-0.5-0.5-0.5h-4c-0.4,0-0.8,0.3-0.8,0.8v6.3
		C67,14.9,67.3,15.3,67.7,15.3z"/>
	<path class="st0" d="M78.5,15.4c2.3,0,3.9-1.7,3.9-4.1c0-2.3-1.6-4.1-3.9-4.1c-2.3,0-4,1.7-4,4.1C74.5,13.7,76.1,15.4,78.5,15.4z
		 M78.5,8.3c1.7,0,2.8,1.3,2.8,3c0,1.7-1.1,3-2.8,3c-1.7,0-2.7-1.3-2.7-3C75.7,9.6,76.8,8.3,78.5,8.3z"/>
</g>
</svg>
