<?xml version="1.0" encoding="UTF-8"?>
<svg id="Layer_1" data-name="Layer 1" xmlns="http://www.w3.org/2000/svg" viewBox="0 0 73.8 73.8">
  <defs>
    <style>
      .cls-1 {
        fill: #7c53a2;
      }

      .cls-2 {
        fill: #f37047;
      }
    </style>
  </defs>
  <g id="g1071">
    <g id="g1073">
      <g id="g1075">
        <g id="g1081">
          <g id="path1083">
            <path class="cls-2" d="M9.09,17.28C4.57,17.28.9,13.61.9,9.09S4.57.9,9.09.9s8.19,3.67,8.19,8.19-3.67,8.19-8.19,8.19ZM9.09,1.56C4.94,1.56,1.56,4.94,1.56,9.09s3.38,7.53,7.53,7.53,7.53-3.38,7.53-7.53S13.24,1.56,9.09,1.56Z"/>
          </g>
        </g>
        <g id="g1085">
          <g id="path1087">
            <path class="cls-2" d="M9.09,72.9c-4.52,0-8.19-3.67-8.19-8.19s3.67-8.19,8.19-8.19,8.19,3.67,8.19,8.19-3.67,8.19-8.19,8.19ZM9.09,57.18c-4.15,0-7.53,3.38-7.53,7.53s3.38,7.53,7.53,7.53,7.53-3.38,7.53-7.53-3.38-7.53-7.53-7.53Z"/>
          </g>
        </g>
        <g id="g1089">
          <g id="path1091">
            <path class="cls-2" d="M9.09,45.09c-4.52,0-8.19-3.67-8.19-8.19s3.67-8.19,8.19-8.19,8.19,3.67,8.19,8.19-3.67,8.19-8.19,8.19ZM9.09,29.37c-4.15,0-7.53,3.38-7.53,7.53s3.38,7.53,7.53,7.53,7.53-3.38,7.53-7.53-3.38-7.53-7.53-7.53Z"/>
          </g>
        </g>
        <g id="g1093">
          <g id="path1095">
            <path class="cls-1" d="M64.71,16.95h0c-4.34,0-7.86-3.52-7.86-7.86s3.52-7.86,7.86-7.86,7.86,3.52,7.86,7.86-3.52,7.86-7.86,7.86Z"/>
          </g>
        </g>
        <g id="g1097">
          <g id="path1099">
            <path class="cls-2" d="M64.71,72.9c-4.52,0-8.19-3.67-8.19-8.19s3.67-8.19,8.19-8.19,8.19,3.67,8.19,8.19-3.67,8.19-8.19,8.19ZM64.71,57.18c-4.15,0-7.53,3.38-7.53,7.53s3.38,7.53,7.53,7.53,7.53-3.38,7.53-7.53-3.38-7.53-7.53-7.53Z"/>
          </g>
        </g>
        <g id="g1101">
          <g id="path1103">
            <path class="cls-2" d="M64.71,45.09c-4.52,0-8.19-3.67-8.19-8.19s3.67-8.19,8.19-8.19,8.19,3.67,8.19,8.19-3.67,8.19-8.19,8.19ZM64.71,29.37c-4.15,0-7.53,3.38-7.53,7.53s3.38,7.53,7.53,7.53,7.53-3.38,7.53-7.53-3.38-7.53-7.53-7.53Z"/>
          </g>
        </g>
        <g id="g1105">
          <g id="path1107">
            <path class="cls-2" d="M36.9,17.28c-4.52,0-8.19-3.67-8.19-8.19S32.38.9,36.9.9s8.19,3.67,8.19,8.19-3.67,8.19-8.19,8.19ZM36.9,1.56c-4.15,0-7.53,3.38-7.53,7.53s3.38,7.53,7.53,7.53,7.53-3.38,7.53-7.53-3.38-7.53-7.53-7.53Z"/>
          </g>
        </g>
        <g id="g1109">
          <g id="path1111">
            <path class="cls-2" d="M36.9,72.9c-4.52,0-8.19-3.67-8.19-8.19s3.67-8.19,8.19-8.19,8.19,3.67,8.19,8.19-3.67,8.19-8.19,8.19ZM36.9,57.18c-4.15,0-7.53,3.38-7.53,7.53s3.38,7.53,7.53,7.53,7.53-3.38,7.53-7.53-3.38-7.53-7.53-7.53Z"/>
          </g>
        </g>
        <g id="g1113">
          <g id="path1115">
            <path class="cls-1" d="M36.9,44.76h0c-4.34,0-7.86-3.52-7.86-7.86s3.52-7.86,7.86-7.86,7.86,3.52,7.86,7.86-3.52,7.86-7.86,7.86Z"/>
          </g>
        </g>
      </g>
    </g>
  </g>
</svg>