<?xml version="1.0" encoding="utf-8"?>
<!-- Generator: Adobe Illustrator 19.1.0, SVG Export Plug-In . SVG Version: 6.00 Build 0)  -->
<svg version="1.1" id="Layer_1" xmlns="http://www.w3.org/2000/svg" xmlns:xlink="http://www.w3.org/1999/xlink" x="0px" y="0px"
	 viewBox="0 0 8.6 13.7" width="8.3" height="13.4" style="enable-background:new 0 0 8.6 13.7;" xml:space="preserve">
<style type="text/css">
	.st0{fill:#FFFFFF;}
</style>
<path class="st0" d="M2.8,0.2C2.7,0.9,2.6,1.5,2.3,1.9C2.1,2.4,1.8,2.8,1.4,3.1C1.1,3.4,0.6,3.7,0.1,3.8v1.9h1.5v4.7
	c0,0.6,0.1,1.1,0.2,1.4c0.1,0.3,0.4,0.6,0.7,0.9c0.3,0.3,0.7,0.5,1.2,0.7c0.5,0.2,1,0.2,1.6,0.2c0.5,0,1-0.1,1.5-0.2
	c0.5-0.1,1-0.3,1.6-0.6v-2.1c-0.7,0.4-1.3,0.7-2,0.7c-0.4,0-0.7-0.1-1-0.3c-0.2-0.1-0.4-0.3-0.5-0.5c-0.1-0.2-0.1-0.7-0.1-1.5V5.7
	h3.2V3.6H4.7V0.2H2.8z"/>
</svg>
