<?xml version="1.0" encoding="utf-8"?>
<!-- Generator: Adobe Illustrator 19.1.0, SVG Export Plug-In . SVG Version: 6.00 Build 0)  -->
<svg version="1.1" id="Layer_1" xmlns="http://www.w3.org/2000/svg" xmlns:xlink="http://www.w3.org/1999/xlink" x="0px" y="0px"
	 viewBox="0 0 16 13.6" width="15.8" height="13.4" style="enable-background:new 0 0 16 13.6;" xml:space="preserve">
<style type="text/css">
	.st0{fill:#FFFFFF;}
</style>
<polygon id="Plus_1_" class="st0" points="15.9,2.8 13.2,2.8 13.2,0.1 12.6,0.1 12.6,2.8 9.9,2.8 9.9,3.5 12.6,3.5 12.6,6.2
	13.2,6.2 13.2,3.5 15.9,3.5 "/>
<path id="g_1_" class="st0" d="M7,7.8C6.6,7.6,5.9,6.9,5.9,6.5c0-0.4,0.1-0.7,0.8-1.2c0.7-0.5,1.2-1.3,1.2-2.2c0-1-0.5-2.1-1.3-2.4
	h1.3l0.9-0.7c0,0-3.1,0-4.1,0C2.7,0.1,1,1.5,1,3.2c0,1.7,1.3,3,3.2,3c0.1,0,0.3,0,0.4,0C4.4,6.4,4.3,6.7,4.3,6.9
	c0,0.5,0.2,0.8,0.6,1.1c-0.2,0-0.5,0-0.7,0c-2.3,0-4.1,1.5-4.1,3c0,1.5,1.9,2.4,4.2,2.4c2.6,0,4.1-1.5,4.1-3C8.4,9.3,8,8.6,7,7.8z
	 M4.7,5.7c-1.1,0-2.1-1.2-2.3-2.6C2.3,1.8,3,0.7,4.1,0.7c1.1,0,2.1,1.2,2.3,2.6C6.5,4.7,5.8,5.8,4.7,5.7z M4.3,12.8
	c-1.6,0-2.7-1-2.7-2.2c0-1.2,1.4-2.2,3-2.2c0.4,0,0.7,0.1,1,0.2c0.9,0.6,1.5,0.9,1.7,1.6c0,0.1,0.1,0.3,0.1,0.4
	C7.3,11.9,6.6,12.8,4.3,12.8z"/>
</svg>
