<?xml version="1.0" encoding="utf-8"?>
<!-- Generator: Adobe Illustrator 19.1.0, SVG Export Plug-In . SVG Version: 6.00 Build 0)  -->
<svg version="1.1" id="Layer_1" xmlns="http://www.w3.org/2000/svg" xmlns:xlink="http://www.w3.org/1999/xlink" x="0px" y="0px"
	 viewBox="0 0 27.3 22.2" width="27" height="21.1" style="enable-background:new 0 0 27.3 22.2;" xml:space="preserve">
<style type="text/css">
	.st0{fill:#848A8F;}
</style>
<g>
	<g>
		<path class="st0" d="M27.2,2.7c-1,0.4-2.1,0.7-3.2,0.9c1.1-0.7,2-1.8,2.4-3.1c-1.1,0.6-2.3,1.1-3.5,1.3c-1-1.1-2.5-1.8-4.1-1.8
			c-3.1,0-5.6,2.5-5.6,5.6c0,0.4,0,0.9,0.1,1.3C8.8,6.7,4.7,4.5,2,1.1C1.5,2,1.2,2.9,1.2,3.9c0,1.9,1,3.6,2.5,4.6
			c-0.9,0-1.8-0.3-2.5-0.7c0,0,0,0,0,0.1c0,2.7,1.9,4.9,4.5,5.4c-0.5,0.1-1,0.2-1.5,0.2c-0.4,0-0.7,0-1-0.1c0.7,2.2,2.8,3.8,5.2,3.9
			c-1.9,1.5-4.3,2.4-6.9,2.4c-0.4,0-0.9,0-1.3-0.1c2.5,1.6,5.4,2.5,8.5,2.5c10.2,0,15.8-8.5,15.8-15.8c0-0.2,0-0.5,0-0.7
			C25.5,4.8,26.4,3.8,27.2,2.7z"/>
	</g>
</g>
</svg>
