<?xml version="1.0" encoding="utf-8"?>
<!-- Generator: Adobe Illustrator 19.1.0, SVG Export Plug-In . SVG Version: 6.00 Build 0)  -->
<svg version="1.1" id="Layer_1" xmlns="http://www.w3.org/2000/svg" xmlns:xlink="http://www.w3.org/1999/xlink" x="0px" y="0px"
	 viewBox="0 0 23.5 23.3" width="23.1" height="23.1" style="enable-background:new 0 0 23.5 23.3;" xml:space="preserve">
<style type="text/css">
	.st0{fill:#848A8F;}
</style>
<path class="st0" d="M20.3,0.1H3.2c-1.6,0-3,1.3-3,3v17.1c0,1.6,1.3,3,3,3h17.1c1.6,0,3-1.3,3-3V3.1C23.3,1.5,21.9,0.1,20.3,0.1z
	 M7.4,11.4l0.1-0.6c0-0.1,0-0.1,0-0.2c0-0.1,0-0.2,0.1-0.3c0.6-1.9,2.3-3.1,4.2-3.1c1.9,0,3.6,1.3,4.2,3.1c0,0.1,0,0.2,0.1,0.2
	l0.1,0.7c0,0.2,0,0.2,0,0.3c0,2.4-2,4.4-4.4,4.4c-2.4,0-4.4-2-4.4-4.4C7.4,11.5,7.4,11.5,7.4,11.4z M20.9,20.2
	c0,0.3-0.3,0.6-0.6,0.6H3.2c-0.3,0-0.6-0.3-0.6-0.6V9.5h2.7L5.2,9.9C5.1,10.5,5,11.1,5,11.6c0,3.7,3,6.7,6.7,6.7
	c3.7,0,6.7-3,6.7-6.7c0-0.6-0.1-1.1-0.2-1.7l-0.1-0.5h2.7V20.2z M21.1,6c0,0.6-0.5,1-1,1h-3.2c-0.6,0-1-0.5-1-1V2.8c0-0.6,0.5-1,1-1
	H20c0.6,0,1,0.5,1,1V6z"/>
</svg>
