<?xml version="1.0" encoding="utf-8"?>
<!-- Generator: Adobe Illustrator 19.2.0, SVG Export Plug-In . SVG Version: 6.00 Build 0)  -->
<svg version="1.1" id="Layer_1" xmlns="http://www.w3.org/2000/svg" xmlns:xlink="http://www.w3.org/1999/xlink" x="0px" y="0px"
	 viewBox="0 0 215.8 214.9" width="213.755" height="213.755" style="enable-background:new 0 0 215.8 214.9;" xml:space="preserve">
<style type="text/css">
	.st0{fill:#0CB0C8;}
	.st1{fill:#049BB9;}
	.st2{fill:#0791B1;}
	.st3{fill:#FFFFFF;}
	.st4{fill:#D3E8EF;}
	.st5{fill:#EEF8F9;}
	.st6{fill:#169959;}
	.st7{fill:#A67D52;}
	.st8{fill:#D81F33;}
</style>
<g>
	<g>
		<path class="st0" d="M195,166c6.9-16.2,8.9-33.9,15.5-50.2c-0.7-0.7-1.2-1.7-1-3c0.5-5.2-0.5-10.3-0.5-15.5c0-3,2.7-4.3,5-3.9
			c-6.7-52.6-51.6-93.2-106-93.2C48.9,0.1,1.1,47.9,1.1,107c0,5.5,0.4,11,1.2,16.3h52.1c5.3,0,5.3,8.3,0,8.3H8.7
			c0,0.1,0.1,0.3,0.1,0.4c0.3,4.4,2.3,8.6,3.8,12.7c1.5,4.2,3.3,8.3,5.3,12.2c3.9,7.5,9,13.8,16.4,18.1c3.7,2.2,1.7,7.3-1.6,7.7
			c19.3,19.2,45.9,31.1,75.4,31.1c35.8,0,67.5-17.6,86.9-44.7C194.5,168.2,194.5,167.1,195,166z"/>
	</g>
	<g>
		<path class="st1" d="M209.2,98.9c-0.7-3.3,2.3-5.4,4.8-5.2c-1.4-11.2-4.5-21.8-9-31.6h-194C4.6,75.7,1.1,90.9,1.1,107
			c0,7.2,0.7,14.1,2,20.9h206.1C210,118.2,211.2,108.2,209.2,98.9z"/>
	</g>
	<g>
		<path class="st2" d="M208.9,118.6c1.4-7.1-0.5-14.5-0.6-21.6H1.5c-0.3,3.3-0.5,6.6-0.5,10c0,13.2,2.4,25.9,6.8,37.6H208
			c2.5-6.6,4.3-13.6,5.5-20.8C211,123.8,208.3,121.8,208.9,118.6z"/>
	</g>
	<g>
		<path class="st3" d="M107.9,213.9c59,0,106.9-47.9,106.9-106.9c0-4.6-0.3-9.1-0.8-13.5c-8.4-8.3-58.3-37.7-65.7-41.7
			c0,0-60,41.5-66.4,48.8l-25.6-9.7l-54.2,31C9.3,173.8,53.9,213.9,107.9,213.9z"/>
	</g>
	<g>
		<g>
			<path class="st3" d="M93.5,8.3c-0.9,2.9-3.3,5.2-6.2,6.2c-0.5,0.2-0.5,0.8,0,0.9c2.9,0.9,5.2,3.3,6.2,6.2c0.2,0.5,0.8,0.5,0.9,0
				c0.9-2.9,3.3-5.2,6.2-6.2c0.5-0.2,0.5-0.8,0-0.9c-2.9-0.9-5.2-3.3-6.2-6.2C94.3,7.8,93.6,7.8,93.5,8.3z"/>
		</g>
	</g>
	<g>
		<path class="st3" d="M119.6,26.4l0.7,1.2c0.1,0.2,0.3,0.3,0.4,0.3l1.3,0.3c0.5,0.1,0.7,0.7,0.4,1.1l-0.9,1
			c-0.1,0.1-0.2,0.3-0.2,0.5l0.1,1.3c0.1,0.5-0.5,0.9-0.9,0.7l-1.2-0.5c-0.2-0.1-0.4-0.1-0.5,0l-1.2,0.5c-0.5,0.2-1-0.2-0.9-0.7
			l0.1-1.3c0-0.2,0-0.4-0.2-0.5l-0.9-1c-0.3-0.4-0.1-1,0.4-1.1l1.3-0.3c0.2,0,0.3-0.2,0.4-0.3l0.7-1.2C118.7,26,119.3,26,119.6,26.4
			z"/>
	</g>
	<g>
		<path class="st3" d="M24.5,48.4l0.3,0.9c0.1,0.4,0.5,0.7,0.9,0.9l0.9,0.3c1.3,0.4,1.3,2.2,0,2.6l-0.9,0.3
			c-0.4,0.1-0.7,0.5-0.9,0.9l-0.3,0.9c-0.4,1.3-2.2,1.3-2.6,0l-0.3-0.9c-0.1-0.4-0.5-0.7-0.9-0.9l-0.9-0.3c-1.3-0.4-1.3-2.2,0-2.6
			l0.9-0.3c0.4-0.1,0.7-0.5,0.9-0.9l0.3-0.9C22.3,47.1,24.1,47.1,24.5,48.4z"/>
	</g>
	<g>
		<path class="st3" d="M185.8,44l0.3,0.9c0.1,0.4,0.5,0.7,0.9,0.9l0.9,0.3c1.3,0.4,1.3,2.2,0,2.6L187,49c-0.4,0.1-0.7,0.5-0.9,0.9
			l-0.3,0.9c-0.4,1.3-2.2,1.3-2.6,0l-0.3-0.9c-0.1-0.4-0.5-0.7-0.9-0.9l-0.9-0.3c-1.3-0.4-1.3-2.2,0-2.6l0.9-0.3
			c0.4-0.1,0.7-0.5,0.9-0.9l0.3-0.9C183.6,42.8,185.4,42.8,185.8,44z"/>
	</g>
	<g>
		<circle class="st3" cx="42.4" cy="64.1" r="1.7"/>
	</g>
	<g>
		<circle class="st3" cx="130.3" cy="13.2" r="1.7"/>
	</g>
	<g>
		<g>
			<path class="st4" d="M78.2,45.7c-9.7,0-17.6-7.9-17.6-17.6c0-2.9,0.7-5.6,1.9-8c-5.7,2.9-9.6,8.8-9.6,15.6
				c0,9.7,7.9,17.6,17.6,17.6c6.8,0,12.7-3.9,15.6-9.6C83.8,45,81,45.7,78.2,45.7z"/>
		</g>
	</g>
	<g>
		<path class="st5" d="M211.5,123c0-0.1,0.1-0.2,0.1-0.2H2.2c7.6,51.5,52.1,91.1,105.7,91.1c36.9,0,69.5-18.7,88.7-47.2
			C202.4,152.4,208.2,138.1,211.5,123z"/>
	</g>
	<g>
		<path class="st4" d="M7.7,136.5c0,0,0.7-0.1,2-0.3c1.3-0.2,3.1-0.4,5.3-0.6c1.1-0.1,2.3-0.2,3.5-0.3c1.3-0.1,2.6-0.2,4-0.2
			c1.4,0,2.8-0.1,4.2-0.1c1.4,0,2.9,0,4.4-0.1c1.5,0,2.9,0,4.4,0c1.4,0,2.9,0.1,4.2,0.1c2.7,0.1,5.3,0.3,7.5,0.5
			c2.2,0.2,4,0.4,5.3,0.6c1.3,0.2,2,0.3,2,0.3s-0.7,0.1-2,0.3c-1.3,0.2-3.1,0.4-5.3,0.6c-2.2,0.2-4.8,0.4-7.5,0.5
			c-1.4,0-2.8,0.1-4.2,0.1c-1.4,0-2.9,0-4.4,0c-1.5,0-2.9,0-4.4-0.1c-1.4,0-2.9-0.1-4.2-0.1c-1.4,0-2.7-0.1-4-0.2
			c-1.3-0.1-2.4-0.2-3.5-0.3c-2.2-0.2-4-0.4-5.3-0.6C8.4,136.7,7.7,136.5,7.7,136.5z"/>
	</g>
	<g>
		<path class="st4" d="M107.1,136.5c0,0,0.7-0.1,2-0.3c1.3-0.2,3.1-0.4,5.3-0.6c1.1-0.1,2.3-0.2,3.5-0.3c1.3-0.1,2.6-0.2,4-0.2
			c1.4,0,2.8-0.1,4.2-0.1c1.4,0,2.9,0,4.4-0.1c1.5,0,2.9,0,4.4,0c1.4,0,2.9,0.1,4.2,0.1c2.7,0.1,5.3,0.3,7.5,0.5
			c2.2,0.2,4,0.4,5.3,0.6c1.3,0.2,2,0.3,2,0.3s-0.7,0.1-2,0.3c-1.3,0.2-3.1,0.4-5.3,0.6c-2.2,0.2-4.8,0.4-7.5,0.5
			c-1.4,0-2.8,0.1-4.2,0.1c-1.4,0-2.9,0-4.4,0c-1.5,0-2.9,0-4.4-0.1c-1.4,0-2.9-0.1-4.2-0.1c-1.4,0-2.7-0.1-4-0.2
			c-1.3-0.1-2.4-0.2-3.5-0.3c-2.2-0.2-4-0.4-5.3-0.6C107.8,136.7,107.1,136.5,107.1,136.5z"/>
	</g>
	<g>
		<path class="st4" d="M45.8,147.4c0,0,0.7-0.1,2-0.3c1.3-0.2,3.1-0.4,5.3-0.6c1.1-0.1,2.3-0.2,3.5-0.3c1.3-0.1,2.6-0.2,4-0.2
			c1.4,0,2.8-0.1,4.2-0.1c1.4,0,2.9,0,4.4-0.1c1.5,0,2.9,0,4.4,0c1.4,0,2.9,0.1,4.2,0.1c2.7,0.1,5.3,0.3,7.5,0.5
			c2.2,0.2,4,0.4,5.3,0.6c1.3,0.2,2,0.3,2,0.3s-0.7,0.1-2,0.3c-1.3,0.2-3.1,0.4-5.3,0.6c-2.2,0.2-4.8,0.4-7.5,0.5
			c-1.4,0-2.8,0.1-4.2,0.1c-1.4,0-2.9,0-4.4,0c-1.5,0-2.9,0-4.4-0.1c-1.4,0-2.9-0.1-4.2-0.1c-1.4,0-2.7-0.1-4-0.2
			c-1.3-0.1-2.4-0.2-3.5-0.3c-2.2-0.2-4-0.4-5.3-0.6C46.5,147.5,45.8,147.4,45.8,147.4z"/>
	</g>
	<g>
		<g>
			<path class="st6" d="M204.8,95.4l-20.3,61.1l25.5-17.5c1.7-5.5,3-11.2,3.8-17L204.8,95.4z"/>
		</g>
		<g>
			<path class="st6" d="M73.3,120l-10,29.5l-6.2-18.1l-10,29.5L41,142.7l-12.2,36c1.2,1.4,2.5,2.7,3.8,4h22l-3.8-11.4h20L66.8,160
				h20L73.3,120z"/>
		</g>
	</g>
	<g>
		<path class="st4" d="M96.9,142.4l-70.7,33.4c19.6,23.3,49,38.1,81.8,38.1c55.7,0,101.5-42.6,106.4-97l-39.4,33.6L96.9,142.4z"/>
	</g>
	<g>
		<path class="st5" d="M60.7,202.9c14.2,7,30.3,11,47.2,11c24.4,0,46.9-8.2,64.9-21.9c-0.8-0.1-1.6-0.2-2.4-0.4
			c-21.2-3.5-42.3-13.3-63.2-8.6c-11.3,2.5-21.3,9.1-31.9,13.7C71.8,200.1,66.6,201.9,60.7,202.9z"/>
	</g>
	<g>
		<path class="st5" d="M100.8,165.2c0,0,0.7-0.1,2-0.3c1.3-0.2,3.1-0.4,5.3-0.6c1.1-0.1,2.3-0.2,3.5-0.3c1.3-0.1,2.6-0.2,4-0.2
			c1.4,0,2.8-0.1,4.2-0.1c1.4,0,2.9,0,4.4-0.1c1.5,0,2.9,0,4.4,0c1.4,0,2.9,0.1,4.2,0.1c2.7,0.1,5.3,0.3,7.5,0.5
			c2.2,0.2,4,0.4,5.3,0.6c1.3,0.2,2,0.3,2,0.3s-0.7,0.1-2,0.3c-1.3,0.2-3.1,0.4-5.3,0.6c-2.2,0.2-4.8,0.4-7.5,0.5
			c-1.4,0-2.8,0.1-4.2,0.1c-1.4,0-2.9,0-4.4,0c-1.5,0-2.9,0-4.4-0.1c-1.4,0-2.9-0.1-4.2-0.1c-1.4,0-2.7-0.1-4-0.2
			c-1.3-0.1-2.4-0.2-3.5-0.3c-2.2-0.2-4-0.4-5.3-0.6C101.5,165.3,100.8,165.2,100.8,165.2z"/>
	</g>
	<g>
		<g>
			<path class="st7" d="M112.3,156.4c-0.8,0-1.5-0.7-1.5-1.5v-27c0-0.8,0.7-1.5,1.5-1.5s1.5,0.7,1.5,1.5v27
				C113.8,155.7,113.1,156.4,112.3,156.4z"/>
		</g>
		<g>
			<polygon class="st6" points="98.9,140.7 125.7,140.7 112.3,101.2 			"/>
		</g>
	</g>
	<g>
		<g>
			<polygon class="st6" points="141,145.5 184.3,145.5 162.7,79.4 			"/>
		</g>
		<g>
			<path class="st7" d="M162.7,172.7c-0.8,0-1.5-0.7-1.5-1.5v-64.7c0-0.8,0.7-1.5,1.5-1.5s1.5,0.7,1.5,1.5v64.7
				C164.2,172.1,163.5,172.7,162.7,172.7z"/>
		</g>
		<g>
			<path class="st7" d="M162.7,136.8c-0.4,0-0.8-0.1-1.1-0.4l-7.4-7.4c-0.6-0.6-0.6-1.5,0-2.1s1.5-0.6,2.1,0l7.4,7.4
				c0.6,0.6,0.6,1.5,0,2.1C163.4,136.6,163,136.8,162.7,136.8z"/>
		</g>
	</g>
	<g>
		<g>
			<circle class="st3" cx="81.2" cy="171.6" r="1.2"/>
			<path class="st3" d="M81.2,173.3c-0.9,0-1.7-0.8-1.7-1.7s0.8-1.7,1.7-1.7s1.7,0.8,1.7,1.7S82.1,173.3,81.2,173.3z M81.2,170.9
				c-0.4,0-0.7,0.3-0.7,0.7s0.3,0.7,0.7,0.7s0.7-0.3,0.7-0.7S81.6,170.9,81.2,170.9z"/>
		</g>
		<g>
			<circle class="st3" cx="70.4" cy="171.6" r="1.2"/>
			<path class="st3" d="M70.4,173.3c-0.9,0-1.7-0.8-1.7-1.7s0.8-1.7,1.7-1.7s1.7,0.8,1.7,1.7S71.3,173.3,70.4,173.3z M70.4,170.9
				c-0.4,0-0.7,0.3-0.7,0.7s0.3,0.7,0.7,0.7s0.7-0.3,0.7-0.7S70.7,170.9,70.4,170.9z"/>
		</g>
		<g>
			<circle class="st3" cx="75.8" cy="177.5" r="1.2"/>
			<path class="st3" d="M75.8,179.2c-0.9,0-1.7-0.8-1.7-1.7s0.8-1.7,1.7-1.7s1.7,0.8,1.7,1.7S76.7,179.2,75.8,179.2z M75.8,176.9
				c-0.4,0-0.7,0.3-0.7,0.7s0.3,0.7,0.7,0.7s0.7-0.3,0.7-0.7S76.2,176.9,75.8,176.9z"/>
		</g>
	</g>
	<g>
		<g>
			<circle class="st3" cx="118.4" cy="199.3" r="1.2"/>
			<path class="st3" d="M118.4,201c-0.9,0-1.7-0.8-1.7-1.7s0.8-1.7,1.7-1.7s1.7,0.8,1.7,1.7S119.4,201,118.4,201z M118.4,198.7
				c-0.4,0-0.7,0.3-0.7,0.7s0.3,0.7,0.7,0.7s0.7-0.3,0.7-0.7S118.8,198.7,118.4,198.7z"/>
		</g>
		<g>
			<circle class="st3" cx="129.3" cy="199.3" r="1.2"/>
			<path class="st3" d="M129.3,201c-0.9,0-1.7-0.8-1.7-1.7s0.8-1.7,1.7-1.7s1.7,0.8,1.7,1.7S130.2,201,129.3,201z M129.3,198.7
				c-0.4,0-0.7,0.3-0.7,0.7s0.3,0.7,0.7,0.7s0.7-0.3,0.7-0.7S129.6,198.7,129.3,198.7z"/>
		</g>
		<g>
			<circle class="st3" cx="123.8" cy="193.4" r="1.2"/>
			<path class="st3" d="M123.8,195.1c-0.9,0-1.7-0.8-1.7-1.7s0.8-1.7,1.7-1.7s1.7,0.8,1.7,1.7S124.8,195.1,123.8,195.1z
				 M123.8,192.7c-0.4,0-0.7,0.3-0.7,0.7s0.3,0.7,0.7,0.7s0.7-0.3,0.7-0.7S124.2,192.7,123.8,192.7z"/>
		</g>
	</g>
	<g>
		<g>
			<path class="st4" d="M149.2,62.9c0,0,0.1,0.5,0.3,1.2c0.2,0.8,0.4,1.9,0.6,3.3c0.4,2.7,0.6,6.3,0.6,10c0,3.6-0.2,7.2-0.6,10
				c-0.2,1.4-0.4,2.5-0.6,3.3c-0.2,0.8-0.3,1.2-0.3,1.2s-0.1-0.5-0.3-1.2c-0.2-0.8-0.4-1.9-0.6-3.3c-0.4-2.7-0.6-6.3-0.6-10
				c0-3.6,0.2-7.2,0.6-10c0.2-1.4,0.4-2.5,0.6-3.3C149.1,63.4,149.2,62.9,149.2,62.9z"/>
		</g>
		<g>
			<g>
				<path class="st4" d="M121.9,77c0,0,0.1,0.3,0.3,0.7c0.2,0.5,0.4,1.1,0.6,1.9c0.4,1.6,0.6,3.7,0.6,5.8c0,2.1-0.2,4.2-0.6,5.8
					c-0.2,0.8-0.4,1.4-0.6,1.9c-0.2,0.5-0.3,0.7-0.3,0.7s-0.1-0.3-0.3-0.7c-0.2-0.5-0.4-1.1-0.6-1.9c-0.4-1.6-0.6-3.7-0.6-5.8
					c0-2.1,0.3-4.2,0.6-5.8c0.2-0.8,0.4-1.4,0.6-1.9C121.8,77.2,121.9,77,121.9,77z"/>
			</g>
			<g>
				<path class="st4" d="M176.4,77c0,0,0.1,0.3,0.3,0.7c0.2,0.5,0.4,1.1,0.6,1.9c0.4,1.6,0.6,3.7,0.6,5.8c0,2.1-0.2,4.2-0.6,5.8
					c-0.2,0.8-0.4,1.4-0.6,1.9c-0.2,0.5-0.3,0.7-0.3,0.7s-0.1-0.3-0.3-0.7c-0.2-0.5-0.4-1.1-0.6-1.9c-0.4-1.6-0.6-3.7-0.6-5.8
					c0-2.1,0.3-4.2,0.6-5.8c0.2-0.8,0.4-1.4,0.6-1.9C176.3,77.2,176.4,77,176.4,77z"/>
			</g>
		</g>
		<g>
			<g>
				<path class="st4" d="M135.5,69.9c0,0,0.1,0.1,0.3,0.3c0.2,0.2,0.4,0.4,0.6,0.7c0.4,0.6,0.6,1.4,0.6,2.2c0,0.8-0.2,1.6-0.6,2.2
					c-0.2,0.3-0.4,0.6-0.6,0.7c-0.2,0.2-0.3,0.3-0.3,0.3s-0.1-0.1-0.3-0.3c-0.2-0.2-0.4-0.4-0.6-0.7c-0.4-0.6-0.6-1.4-0.6-2.2
					c0-0.8,0.3-1.6,0.6-2.2c0.2-0.3,0.4-0.6,0.6-0.7C135.4,70,135.5,69.9,135.5,69.9z"/>
			</g>
			<g>
				<path class="st4" d="M162.9,69.9c0,0,0.1,0.1,0.3,0.3c0.2,0.2,0.4,0.4,0.6,0.7c0.4,0.6,0.6,1.4,0.6,2.2c0,0.8-0.2,1.6-0.6,2.2
					c-0.2,0.3-0.4,0.6-0.6,0.7c-0.2,0.2-0.3,0.3-0.3,0.3s-0.1-0.1-0.3-0.3c-0.2-0.2-0.4-0.4-0.6-0.7c-0.4-0.6-0.6-1.4-0.6-2.2
					c0-0.8,0.3-1.6,0.6-2.2c0.2-0.3,0.4-0.6,0.6-0.7C162.8,70,162.9,69.9,162.9,69.9z"/>
			</g>
		</g>
	</g>
	<g>
		<g>
			<g>
				<rect x="58.3" y="73" class="st4" width="5" height="14.6"/>
			</g>
		</g>
		<g>
			<g>
				<polygon class="st8" points="75,102.2 46.6,109.8 46.6,91.2 75,83.6 				"/>
			</g>
		</g>
	</g>
	<g>
		<path class="st4" d="M3.5,84.3c-0.4,1.7-0.7,3.4-1,5.1c42.6-6.1,117.4-30,162.3-73c-1.5-0.9-2.9-1.8-4.5-2.7
			C116.7,55,45.1,78.1,3.5,84.3z"/>
	</g>
</g>
</svg>
