<?xml version="1.0" encoding="utf-8"?>
<!-- Generator: Adobe Illustrator 19.2.0, SVG Export Plug-In . SVG Version: 6.00 Build 0)  -->
<svg version="1.1" id="Layer_1" xmlns="http://www.w3.org/2000/svg" xmlns:xlink="http://www.w3.org/1999/xlink" x="0px" y="0px"
	 viewBox="0 0 214 214.6" width="213.755" height="213.755" style="enable-background:new 0 0 214 214.6;" xml:space="preserve">
<style type="text/css">
	.st0{fill:#F8A95A;}
	.st1{fill:#F89B4B;}
	.st2{fill:#F79443;}
	.st3{fill:#F5E1DB;}
	.st4{fill:#E8F5F7;}
	.st5{fill:#E0A493;}
	.st6{opacity:0.5;}
	.st7{fill:#FFFFFF;}
	.st8{fill:#A67D52;}
	.st9{fill:#754D25;}
	.st10{fill:#24B574;}
	.st11{fill:#F5DE68;}
</style>
<g>
	<g>
		<circle class="st0" cx="107.2" cy="107.2" r="106.9"/>
	</g>
	<g>
		<path class="st1" d="M0.3,107.2c0,7.2,0.7,14.2,2.1,21H212c1.4-6.8,2.1-13.8,2.1-21c0-16-3.5-31.2-9.9-44.9h-194
			C3.8,76,0.3,91.2,0.3,107.2z"/>
	</g>
	<g>
		<path class="st2" d="M0.3,107.2c0,13.2,2.4,25.9,6.8,37.6h200.2c4.4-11.7,6.8-24.3,6.8-37.6c0-3.4-0.2-6.7-0.5-10H0.8
			C0.5,100.5,0.3,103.8,0.3,107.2z"/>
	</g>
	<g>
		<path class="st3" d="M107.2,214.1c53.7,0,98.1-39.5,105.7-91.1H1.5C9.1,174.6,53.5,214.1,107.2,214.1z"/>
	</g>
	<g>
		<path class="st4" d="M83.8,125.7c8.3,6,16.5,10.8,26.3,12.9c3.4,0.7,33.1,6.6,21.4,15c-10.2,7.3-30.8,0.9-41.5-2
			c-13.9-3.7-28.2-8.1-42.7-5.2c-9.6,1.9-18.9,9.6-19.3,19.4c-0.3,6.2,3.1,12.2,7.5,16.5c7.9,7.7,19.5,13.1,30.2,15.7
			c3.6,0.9,6.4,1.2,8.4,1.4c1,0.1,1.7,0.1,2.2,0.1c0.5,0,0.7,0,0.7,0c1.2-5,56,1.4,52.6-1.5c-3.1-2.6-8.2-4-11.7-6.4
			c-3.3-2.3-49.2-14-57.4-18.2c-3.6-1.8-5.2-6.5-3.4-10.1c2.5-4.9,8.9-4.7,13.6-3.7c22.6,4.9,57.9,12.1,76.4-3.9
			c8.3-7.2-2.3-17.4-16-18.7c-21.6-2.1-36.5-8.7-45.3-14h-4.6C82.1,124.1,83,125.1,83.8,125.7z M45.4,166.3c0-0.1-0.2,0.3-0.2,0.5
			c0-0.2,0-0.3,0-0.4C45.3,166.3,45.3,166.2,45.4,166.3C45.4,166.3,45.4,166.3,45.4,166.3L45.4,166.3L45.4,166.3L45.4,166.3
			L45.4,166.3z M134.6,149.3C134.6,149.3,134.6,149.3,134.6,149.3L134.6,149.3L134.6,149.3z"/>
	</g>
	<g>
		<path class="st5" d="M107.2,214.1c44.3,0,82.4-27,98.5-65.4c-17.9,2.5-35.4,7.5-51.8,15c-15.7,7.2-30.4,16.6-46.9,21.5
			c-23.1,6.8-48.1,4.3-71.1-2.9c-2.4-0.7-4.7-1.5-7.1-2.4C48.3,200.9,76.2,214.1,107.2,214.1z"/>
	</g>
	<g class="st6">
		<path class="st5" d="M66,205.9c12.7,5.3,26.6,8.2,41.1,8.2c35.2,0,66.5-17.1,86-43.4C146.8,204,98.4,208.2,66,205.9z"/>
		<path class="st5" d="M107.2,214.6c-14.3,0-28.2-2.8-41.3-8.2l-2.8-1.2l3,0.2c32.4,2.3,80.8-2,126.8-35.1l2.6-1.9l-1.9,2.6
			C173.3,198.3,141.1,214.6,107.2,214.6z M69.1,206.6c12.1,4.7,24.9,7,38,7c32.5,0,63.5-15.1,83.6-40.6
			C146.8,203.6,101,208.3,69.1,206.6z"/>
	</g>
	<g>
		<g>
			<path class="st3" d="M195.7,105.5h-2c-4,0-7.3-3.3-7.3-7.3V74.6c0-2.2-1.1-6.3-2.9-7.6l-0.1-0.1c-1.9-1.3-4.2-1.6-6.4-0.8
				l-4.1,1.5c-0.2,0.1-0.4,0.1-0.6,0.2l-7.8-0.8c-2,0.6-4.2,2.2-5.8,1l-0.8-0.6c-2.7-1.9-6.5,1.6-8.6,4.2c-0.8,1-1.9,1.5-3.1,1.5
				c-0.9,0-1.7-0.3-2.5-0.8l-1.8-1.4l-4.2,1.8c-0.8,0.3-1.4,0.9-1.9,1.6l-0.6,1c-0.7,1.2-2,1.9-3.3,1.9l-1.4,0
				c-2.2,0-3.9,1.8-3.9,3.9V92c0,2.1-0.9,4.1-2.6,5.4l-2,1.7l-4.7,4c-1.5,1.3-2.4,3.2-2.4,5.3c0,1.9-0.8,5.7-2,8.9
				c-1.2,3.1-2.8,5.7-4.6,6c0,0.4-0.1,0.9-0.2,1.3h93.1V111C201.2,108,198.7,105.5,195.7,105.5z"/>
		</g>
		<g>
			<path class="st5" d="M162.1,82.2c0,0,0.1,0.1,0.3,0.3c0.2,0.2,0.4,0.5,0.6,0.8c0.4,0.6,0.6,1.5,0.6,2.3c0,0.9-0.2,1.7-0.6,2.3
				c-0.2,0.3-0.4,0.6-0.6,0.8c-0.2,0.2-0.3,0.3-0.3,0.3s-0.1-0.1-0.3-0.3c-0.2-0.2-0.4-0.5-0.6-0.8c-0.4-0.6-0.6-1.5-0.6-2.3
				c0-0.9,0.3-1.7,0.6-2.3c0.2-0.3,0.4-0.6,0.6-0.8C161.9,82.3,162.1,82.2,162.1,82.2z"/>
		</g>
		<g>
			<path class="st5" d="M133.7,104.6c0,0,0.1,0.1,0.3,0.3c0.2,0.2,0.4,0.5,0.6,0.8c0.4,0.6,0.6,1.5,0.6,2.3c0,0.9-0.2,1.7-0.6,2.3
				c-0.2,0.3-0.4,0.6-0.6,0.8c-0.2,0.2-0.3,0.3-0.3,0.3s-0.1-0.1-0.3-0.3c-0.2-0.2-0.4-0.5-0.6-0.8c-0.4-0.6-0.6-1.5-0.6-2.3
				c0-0.9,0.3-1.7,0.6-2.3c0.2-0.3,0.4-0.6,0.6-0.8C133.5,104.7,133.7,104.6,133.7,104.6z"/>
		</g>
		<g>
			<path class="st5" d="M147.9,83c0,0,0.1,0.4,0.3,1.2c0.2,0.8,0.4,1.9,0.6,3.2c0.4,2.6,0.6,6.1,0.6,9.6c0,3.5-0.2,7-0.6,9.6
				c-0.2,1.3-0.4,2.4-0.6,3.2c-0.2,0.8-0.3,1.2-0.3,1.2s-0.1-0.4-0.3-1.2c-0.2-0.8-0.4-1.9-0.6-3.2c-0.4-2.6-0.6-6.1-0.6-9.6
				c0-3.5,0.2-7,0.6-9.6c0.2-1.3,0.4-2.4,0.6-3.2C147.7,83.5,147.9,83,147.9,83z"/>
		</g>
	</g>
	<g>
		<g>
			<path class="st7" d="M134.7,23.5c8.9-2.7,17,3.9,17,12.3c0,0.7-0.1,1.5-0.2,2.2h-25.5c-0.1-0.7-0.2-1.4-0.2-2.1
				C125.8,30.3,129.4,25.2,134.7,23.5z"/>
		</g>
		<g>
			<path class="st7" d="M117.4,31.2c4.2,0,7.7,2.9,8.6,6.9h-17.2C109.7,34.1,113.2,31.2,117.4,31.2z"/>
		</g>
	</g>
	<g>
		<g>
			<path class="st7" d="M179.6,48.5c-6.5-2-12.5,2.8-12.5,9c0,0.5,0,1.1,0.1,1.6H186c0.1-0.5,0.1-1,0.1-1.5
				C186.2,53.5,183.5,49.7,179.6,48.5z"/>
		</g>
		<g>
			<path class="st7" d="M192.4,54.1c-3.1,0-5.7,2.1-6.3,5h12.6C198,56.2,195.4,54.1,192.4,54.1z"/>
		</g>
	</g>
	<g>
		<path class="st3" d="M79.8,122.6l-4.1-13.5c-0.5-0.7-0.9-1.7-1.1-2.7l-1.2-7c-0.3-1.9-1.2-3.4-2.5-3.8l-5.3,0.2
			c-0.5-0.2-4.8-2.3-4.5,1.4c-0.2,0.1-0.4,0.1-0.7,0.1c-1.5,0-14.8-0.4-15.1,0.5l-1.4,0.7c0.4,9.9-5.6,19.5-3.9,28.8h40
			C79.6,125.8,79.6,124.1,79.8,122.6z"/>
	</g>
	<g>
		<g>
			<path class="st8" d="M38.6,81.8c0,0-0.1-0.3-0.3-0.8c-0.1-0.2-0.2-0.5-0.4-0.8c-0.1-0.2-0.2-0.3-0.3-0.5
				c-0.1-0.2-0.2-0.3-0.3-0.5c-0.5-0.7-1.1-1.4-1.8-2c-0.2-0.1-0.4-0.3-0.6-0.4c-0.2-0.1-0.4-0.3-0.6-0.4c-0.4-0.2-0.9-0.5-1.3-0.6
				c-0.5-0.2-0.9-0.3-1.4-0.4c-0.2-0.1-0.5-0.1-0.7-0.1c0,0-0.1,0-0.1,0l-0.1,0l-0.2,0l-0.4,0c-0.5,0-0.9,0-1.4,0.1
				c-0.4,0.1-0.9,0.2-1.3,0.3c-0.4,0.1-0.8,0.2-1.1,0.4c-0.3,0.1-0.6,0.3-0.9,0.4c-0.5,0.3-0.8,0.4-0.8,0.4s0.1-0.3,0.4-0.8
				c0.1-0.2,0.3-0.5,0.6-0.8c0.3-0.3,0.6-0.6,1-0.9c0.8-0.6,1.9-1.2,3.2-1.4c0.2,0,0.4-0.1,0.5-0.1l0.2,0l0.1,0l0.2,0
				c0.3,0,0.7,0,1,0c0.7,0.1,1.4,0.2,2.1,0.5c0.7,0.2,1.3,0.6,1.9,1c0.6,0.4,1.1,0.9,1.5,1.4c0.8,1,1.3,2.1,1.5,3.1
				c0,0.3,0.1,0.5,0.1,0.7c0,0.2,0,0.4,0,0.6c0,0.4-0.1,0.8-0.1,1C38.7,81.5,38.6,81.8,38.6,81.8z"/>
		</g>
		<g>
			<path class="st9" d="M52.6,76.8c0,0-0.1,0-0.2-0.1c-0.1-0.1-0.3-0.2-0.6-0.3c-0.2-0.1-0.5-0.3-0.8-0.4c-0.3-0.1-0.7-0.3-1.1-0.4
				c-0.8-0.2-1.7-0.4-2.7-0.4c-0.2,0-0.5,0-0.7,0c-0.1,0,0.1,0,0.1,0l0,0l0,0l0,0l-0.1,0l-0.1,0l-0.2,0c-0.1,0-0.3,0-0.4,0
				c-0.4,0.1-0.9,0.2-1.4,0.4l-0.4,0.1L43.6,76c-0.2,0.1-0.4,0.2-0.7,0.3c-0.2,0.1-0.4,0.3-0.6,0.4c-0.2,0.1-0.4,0.3-0.6,0.4
				c-0.4,0.3-0.7,0.6-1,1c-0.3,0.3-0.6,0.7-0.8,1c-0.1,0.2-0.2,0.3-0.3,0.5c-0.1,0.2-0.2,0.3-0.3,0.5c-0.2,0.3-0.3,0.6-0.4,0.9
				c-0.2,0.5-0.3,0.8-0.3,0.8s-0.1-0.3-0.2-0.9c0-0.3-0.1-0.6-0.1-1c0-0.2,0-0.4,0-0.6c0-0.2,0.1-0.5,0.1-0.7c0.1-0.5,0.3-1,0.5-1.6
				c0.3-0.5,0.6-1.1,1-1.6c0.4-0.5,0.9-1,1.5-1.4c0.3-0.2,0.6-0.4,0.9-0.5c0.3-0.2,0.6-0.3,1-0.4c0.7-0.2,1.4-0.4,2.1-0.4
				c0.2,0,0.3,0,0.5,0l0.5,0c0.3,0,0.7,0.1,1,0.1c1.3,0.2,2.4,0.8,3.2,1.5c0.4,0.3,0.7,0.7,1,1c0.3,0.3,0.4,0.6,0.6,0.9
				c0.1,0.3,0.2,0.5,0.3,0.6C52.5,76.8,52.6,76.8,52.6,76.8z"/>
		</g>
	</g>
	<g>
		<g>
			<path class="st8" d="M85.3,28.9c0,0-0.1-0.3-0.3-0.8c-0.1-0.2-0.2-0.5-0.4-0.8c-0.1-0.2-0.2-0.3-0.3-0.5
				c-0.1-0.2-0.2-0.3-0.3-0.5c-0.5-0.7-1.1-1.4-1.8-2c-0.2-0.1-0.4-0.3-0.6-0.4c-0.2-0.1-0.4-0.3-0.6-0.4c-0.4-0.2-0.9-0.5-1.3-0.6
				c-0.5-0.2-0.9-0.3-1.4-0.4c-0.2-0.1-0.5-0.1-0.7-0.1c0,0-0.1,0-0.1,0l-0.1,0l-0.2,0l-0.4,0c-0.5,0-0.9,0-1.4,0.1
				c-0.4,0.1-0.9,0.2-1.3,0.3c-0.4,0.1-0.8,0.2-1.1,0.4c-0.3,0.1-0.6,0.3-0.9,0.4c-0.5,0.3-0.8,0.4-0.8,0.4s0.1-0.3,0.4-0.8
				c0.1-0.2,0.3-0.5,0.6-0.8c0.3-0.3,0.6-0.6,1-0.9c0.8-0.6,1.9-1.2,3.2-1.4c0.2,0,0.4-0.1,0.5-0.1l0.2,0l0.1,0l0.2,0
				c0.3,0,0.7,0,1,0c0.7,0.1,1.4,0.2,2.1,0.5c0.7,0.2,1.3,0.6,1.9,1c0.6,0.4,1.1,0.9,1.5,1.4c0.8,1,1.3,2.1,1.5,3.1
				c0,0.3,0.1,0.5,0.1,0.7c0,0.2,0,0.4,0,0.6c0,0.4-0.1,0.8-0.1,1C85.4,28.6,85.3,28.9,85.3,28.9z"/>
		</g>
		<g>
			<path class="st9" d="M99.3,23.9c0,0-0.1,0-0.2-0.1c-0.1-0.1-0.3-0.2-0.6-0.3c-0.2-0.1-0.5-0.3-0.8-0.4c-0.3-0.1-0.7-0.3-1.1-0.4
				c-0.8-0.2-1.7-0.4-2.7-0.4c-0.2,0-0.5,0-0.7,0c-0.1,0,0.1,0,0.1,0l0,0l0,0l0,0l-0.1,0l-0.1,0l-0.2,0c-0.1,0-0.3,0-0.4,0
				c-0.4,0.1-0.9,0.2-1.4,0.4l-0.4,0.1l-0.3,0.2c-0.2,0.1-0.4,0.2-0.7,0.3c-0.2,0.1-0.4,0.3-0.6,0.4c-0.2,0.1-0.4,0.3-0.6,0.4
				c-0.4,0.3-0.7,0.6-1,1c-0.3,0.3-0.6,0.7-0.8,1c-0.1,0.2-0.2,0.3-0.3,0.5c-0.1,0.2-0.2,0.3-0.3,0.5c-0.2,0.3-0.3,0.6-0.4,0.9
				c-0.2,0.5-0.3,0.8-0.3,0.8s-0.1-0.3-0.2-0.9c0-0.3-0.1-0.6-0.1-1c0-0.2,0-0.4,0-0.6c0-0.2,0.1-0.5,0.1-0.7c0.1-0.5,0.3-1,0.5-1.6
				c0.3-0.5,0.6-1.1,1-1.6c0.4-0.5,0.9-1,1.5-1.4c0.3-0.2,0.6-0.4,0.9-0.5c0.3-0.2,0.6-0.3,1-0.4c0.7-0.2,1.4-0.4,2.1-0.4
				c0.2,0,0.3,0,0.5,0l0.5,0c0.3,0,0.7,0.1,1,0.1c1.3,0.2,2.4,0.8,3.2,1.5c0.4,0.3,0.7,0.7,1,1c0.3,0.3,0.4,0.6,0.6,0.9
				c0.1,0.3,0.2,0.5,0.3,0.6C99.3,23.9,99.3,23.9,99.3,23.9z"/>
		</g>
	</g>
	<g>
		<path class="st10" d="M176.4,171.5c0.8-0.8,1.3-1.9,1.3-3.1v-32h8.2c4.2,0,7.7-3.4,7.7-7.7v-0.9v-17.1c0-2.2-1.9-4-4.2-3.8
			c-2,0.2-3.4,2-3.4,4v13c0,2.1-1.7,3.8-3.8,3.8h-4.4V92.8c0-2.3-1.9-4-4.2-3.8c-2,0.2-3.4,2-3.4,4v34.8h-3.8
			c-2.1,0-3.8-1.7-3.8-3.8v-0.7c0-2-1.4-3.8-3.4-4c-2.3-0.2-4.2,1.6-4.2,3.8v4.8v0.9c0,2.1,0.9,4,2.3,5.4c1.4,1.4,3.3,2.3,5.4,2.3
			h7.7v32.2c0,0.8,0.2,1.5,0.6,2.1"/>
	</g>
	<g>
		<path class="st10" d="M22.9,153.1c0.4-0.4,0.7-1,0.7-1.6v-16.8h4.3c2.2,0,4-1.8,4-4v-0.5v-9c0-1.2-1-2.1-2.2-2
			c-1,0.1-1.8,1.1-1.8,2.1v6.8c0,1.1-0.9,2-2,2h-2.3v-18.4c0-1.2-1-2.1-2.2-2c-1,0.1-1.8,1.1-1.8,2.1v18.3h-2c-1.1,0-2-0.9-2-2v-0.4
			c0-1-0.8-2-1.8-2.1c-1.2-0.1-2.2,0.8-2.2,2v2.5v0.5c0,1.1,0.4,2.1,1.2,2.8c0.7,0.7,1.7,1.2,2.8,1.2h4v16.9c0,0.4,0.1,0.8,0.3,1.1"
			/>
	</g>
	<g>
		<path class="st5" d="M58.3,100.8c0,0,0.1,0.3,0.3,0.7c0.2,0.5,0.4,1.1,0.6,1.9c0.4,1.6,0.6,3.7,0.6,5.8c0,2.1-0.2,4.2-0.6,5.8
			c-0.2,0.8-0.4,1.4-0.6,1.9c-0.2,0.5-0.3,0.7-0.3,0.7s-0.1-0.3-0.3-0.7c-0.2-0.5-0.4-1.1-0.6-1.9c-0.4-1.6-0.6-3.7-0.6-5.8
			c0-2.1,0.3-4.2,0.6-5.8c0.2-0.8,0.4-1.4,0.6-1.9C58.1,101,58.3,100.8,58.3,100.8z"/>
	</g>
	<g>
		<path class="st5" d="M65.6,111c0,0,0.1,0.1,0.3,0.3c0.2,0.2,0.4,0.4,0.6,0.7c0.4,0.6,0.6,1.4,0.6,2.2c0,0.8-0.2,1.6-0.6,2.2
			c-0.2,0.3-0.4,0.6-0.6,0.7c-0.2,0.2-0.3,0.3-0.3,0.3s-0.1-0.1-0.3-0.3c-0.2-0.2-0.4-0.4-0.6-0.7c-0.4-0.6-0.6-1.4-0.6-2.2
			c0-0.8,0.3-1.6,0.6-2.2c0.2-0.3,0.4-0.6,0.6-0.7C65.4,111.1,65.6,111,65.6,111z"/>
	</g>
	<g class="st6">
		<g>
			<circle class="st5" cx="155.5" cy="179" r="1.2"/>
			<path class="st5" d="M155.5,180.7c-0.9,0-1.7-0.8-1.7-1.7s0.8-1.7,1.7-1.7s1.7,0.8,1.7,1.7S156.4,180.7,155.5,180.7z
				 M155.5,178.3c-0.4,0-0.7,0.3-0.7,0.7s0.3,0.7,0.7,0.7s0.7-0.3,0.7-0.7S155.9,178.3,155.5,178.3z"/>
		</g>
		<g>
			<circle class="st5" cx="144.6" cy="179" r="1.2"/>
			<path class="st5" d="M144.6,180.7c-0.9,0-1.7-0.8-1.7-1.7s0.8-1.7,1.7-1.7s1.7,0.8,1.7,1.7S145.6,180.7,144.6,180.7z
				 M144.6,178.3c-0.4,0-0.7,0.3-0.7,0.7s0.3,0.7,0.7,0.7s0.7-0.3,0.7-0.7S145,178.3,144.6,178.3z"/>
		</g>
		<g>
			<circle class="st5" cx="150.1" cy="184.9" r="1.2"/>
			<path class="st5" d="M150.1,186.6c-0.9,0-1.7-0.8-1.7-1.7s0.8-1.7,1.7-1.7s1.7,0.8,1.7,1.7S151,186.6,150.1,186.6z M150.1,184.3
				c-0.4,0-0.7,0.3-0.7,0.7s0.3,0.7,0.7,0.7s0.7-0.3,0.7-0.7S150.4,184.3,150.1,184.3z"/>
		</g>
	</g>
	<g>
		<g>
			<path class="st7" d="M48.2,40.2c8.9-2.7,17,3.9,17,12.3c0,0.7-0.1,1.5-0.2,2.2H39.5c-0.1-0.7-0.2-1.4-0.2-2.1
				C39.2,47,42.8,41.9,48.2,40.2z"/>
		</g>
		<g>
			<path class="st7" d="M30.8,47.8c4.2,0,7.7,2.9,8.6,6.9H22.2C23.1,50.8,26.6,47.8,30.8,47.8z"/>
		</g>
	</g>
	<g>
		<g>
			<circle class="st11" cx="95.7" cy="70.3" r="17.5"/>
		</g>
	</g>
</g>
</svg>
