<?xml version="1.0" encoding="utf-8"?>
<!-- Generator: Adobe Illustrator 19.2.0, SVG Export Plug-In . SVG Version: 6.00 Build 0)  -->
<svg version="1.1" id="Layer_1" xmlns="http://www.w3.org/2000/svg" xmlns:xlink="http://www.w3.org/1999/xlink" x="0px" y="0px"
	 viewBox="0 0 214.1 214" width="213.755" height="213.755" style="enable-background:new 0 0 214.1 214;" xml:space="preserve">
<style type="text/css">
	.st0{fill:#D3E8EF;}
	.st1{fill:#EAF5F8;}
	.st2{fill:#F4FAFB;}
	.st3{fill:#0CB0C8;}
	.st4{fill:#F5E1DB;}
	.st5{fill:#E0A493;}
	.st6{fill:#A5B7BF;}
	.st7{fill:#73838F;}
	.st8{fill:#F8A95A;}
	.st9{opacity:0.24;}
	.st10{fill:#FFFFFF;}
	.st11{fill:#83C8D9;}
	.st12{fill:#754D25;}
	.st13{fill:#169959;}
	.st14{fill:#24B574;}
	.st15{fill:#A67D52;}
	.st16{fill:#F5DE68;}
	.st17{fill:#D81F33;}
	.st18{fill:#ECC9BF;}
</style>
<g>
	<g>
		<circle class="st0" cx="107" cy="107" r="106.9"/>
	</g>
	<g>
		<path class="st1" d="M0.1,107c0,8.8,1.1,17.4,3.1,25.6h207.6c2-8.2,3.1-16.8,3.1-25.6c0-15.3-3.2-29.8-9-42.9H9.1
			C3.3,77.2,0.1,91.8,0.1,107z"/>
	</g>
	<g>
		<path class="st2" d="M0.1,107c0,14,2.7,27.3,7.6,39.6h198.6c4.9-12.2,7.6-25.6,7.6-39.6c0-2.7-0.1-5.4-0.3-8H0.4
			C0.2,101.6,0.1,104.3,0.1,107z"/>
	</g>
	<g>
		<path class="st3" d="M107,213.9c53.7,0,98.1-39.5,105.7-91.1H1.3C9,174.4,53.4,213.9,107,213.9z"/>
	</g>
	<g>
		<path class="st4" d="M15.5,162.1c18.7,31,52.7,51.7,91.6,51.7c46.2,0,85.5-29.3,100.4-70.3c-0.4,0-0.8,0-1.3,0
			c-25.8-0.6-43.1,18.2-67.7,22.2c-12.4,2-25,0.3-37.4-1c-21-2.1-42.1-2.9-63.1-2.4C31,162.6,23.1,161.9,15.5,162.1z"/>
	</g>
	<g>
		<path class="st3" d="M108.9,124.8c-1.8-0.8-3.4-2-4.6-3.6c-9.4-12.1-4.7-21.3,4.9-26.3l0,0c-23.2-7.1-33.4,9.9-49.1,21.8
			c-5.1,3.8-16.2,6-22.5,6.4c0.2,0.6,0.3,1.1,0.5,1.7H108.9z"/>
	</g>
	<g>
		<path class="st5" d="M25.1,174.6c0,0,0.7-0.1,2-0.3c1.3-0.2,3.1-0.4,5.3-0.6c1.1-0.1,2.3-0.2,3.5-0.3c1.3-0.1,2.6-0.2,4-0.2
			c1.4,0,2.8-0.1,4.2-0.1c1.4,0,2.9,0,4.4-0.1c1.5,0,2.9,0,4.4,0c1.4,0,2.9,0.1,4.2,0.1c2.7,0.1,5.3,0.3,7.5,0.5
			c2.2,0.2,4,0.4,5.3,0.6c1.3,0.2,2,0.3,2,0.3s-0.7,0.1-2,0.3c-1.3,0.2-3.1,0.4-5.3,0.6c-2.2,0.2-4.8,0.4-7.5,0.5
			c-1.4,0-2.8,0.1-4.2,0.1c-1.4,0-2.9,0-4.4,0c-1.5,0-2.9,0-4.4-0.1c-1.4,0-2.9-0.1-4.2-0.1c-1.4,0-2.7-0.1-4-0.2
			c-1.3-0.1-2.4-0.2-3.5-0.3c-2.2-0.2-4-0.4-5.3-0.6C25.8,174.7,25.1,174.6,25.1,174.6z"/>
	</g>
	<g>
		<g>
			<path class="st6" d="M71.6,61c0,0-0.1-0.3-0.3-0.8c-0.1-0.2-0.2-0.5-0.4-0.8c-0.1-0.2-0.2-0.3-0.3-0.5c-0.1-0.2-0.2-0.3-0.3-0.5
				c-0.5-0.7-1.1-1.4-1.8-2c-0.2-0.1-0.4-0.3-0.6-0.4c-0.2-0.1-0.4-0.3-0.6-0.4c-0.4-0.2-0.9-0.5-1.3-0.6c-0.5-0.2-0.9-0.3-1.4-0.4
				c-0.2-0.1-0.5-0.1-0.7-0.1c0,0-0.1,0-0.1,0l-0.1,0l-0.2,0l-0.4,0c-0.5,0-0.9,0-1.4,0.1c-0.4,0.1-0.9,0.2-1.3,0.3
				c-0.4,0.1-0.8,0.2-1.1,0.4c-0.3,0.1-0.6,0.3-0.9,0.4c-0.5,0.3-0.8,0.4-0.8,0.4s0.1-0.3,0.4-0.8c0.1-0.2,0.3-0.5,0.6-0.8
				c0.3-0.3,0.6-0.6,1-0.9c0.8-0.6,1.9-1.2,3.2-1.4c0.2,0,0.4-0.1,0.5-0.1l0.2,0l0.1,0l0.2,0c0.3,0,0.7,0,1,0
				c0.7,0.1,1.4,0.2,2.1,0.5c0.7,0.2,1.3,0.6,1.9,1c0.6,0.4,1.1,0.9,1.5,1.4c0.8,1,1.3,2.1,1.5,3.1c0,0.3,0.1,0.5,0.1,0.7
				c0,0.2,0,0.4,0,0.6c0,0.4-0.1,0.8-0.1,1C71.7,60.7,71.6,61,71.6,61z"/>
		</g>
		<g>
			<path class="st7" d="M85.6,56c0,0-0.1,0-0.2-0.1c-0.1-0.1-0.3-0.2-0.6-0.3c-0.2-0.1-0.5-0.3-0.8-0.4c-0.3-0.1-0.7-0.3-1.1-0.4
				c-0.8-0.2-1.7-0.4-2.7-0.4c-0.2,0-0.5,0-0.7,0c-0.1,0,0.1,0,0.1,0l0,0l0,0l0,0l-0.1,0l-0.1,0l-0.2,0c-0.1,0-0.3,0-0.4,0
				c-0.4,0.1-0.9,0.2-1.4,0.4L76.9,55l-0.3,0.2c-0.2,0.1-0.4,0.2-0.7,0.3c-0.2,0.1-0.4,0.3-0.6,0.4c-0.2,0.1-0.4,0.3-0.6,0.4
				c-0.4,0.3-0.7,0.6-1,1c-0.3,0.3-0.6,0.7-0.8,1c-0.1,0.2-0.2,0.3-0.3,0.5c-0.1,0.2-0.2,0.3-0.3,0.5c-0.2,0.3-0.3,0.6-0.4,0.9
				c-0.2,0.5-0.3,0.8-0.3,0.8s-0.1-0.3-0.2-0.9c0-0.3-0.1-0.6-0.1-1c0-0.2,0-0.4,0-0.6c0-0.2,0.1-0.5,0.1-0.7c0.1-0.5,0.3-1,0.5-1.6
				c0.3-0.5,0.6-1.1,1-1.6c0.4-0.5,0.9-1,1.5-1.4c0.3-0.2,0.6-0.4,0.9-0.5c0.3-0.2,0.6-0.3,1-0.4c0.7-0.2,1.4-0.4,2.1-0.4
				c0.2,0,0.3,0,0.5,0l0.5,0c0.3,0,0.7,0.1,1,0.1c1.3,0.2,2.4,0.8,3.2,1.5c0.4,0.3,0.7,0.7,1,1c0.3,0.3,0.4,0.6,0.6,0.9
				c0.1,0.3,0.2,0.5,0.3,0.6C85.5,55.9,85.6,56,85.6,56z"/>
		</g>
	</g>
	<g>
		<g>
			<path class="st6" d="M49.1,42.1c0,0-0.1-0.3-0.3-0.8c-0.1-0.2-0.2-0.5-0.4-0.8c-0.1-0.2-0.2-0.3-0.3-0.5
				c-0.1-0.2-0.2-0.3-0.3-0.5c-0.5-0.7-1.1-1.4-1.8-2c-0.2-0.1-0.4-0.3-0.6-0.4c-0.2-0.1-0.4-0.3-0.6-0.4c-0.4-0.2-0.9-0.5-1.3-0.6
				c-0.5-0.2-0.9-0.3-1.4-0.4c-0.2-0.1-0.5-0.1-0.7-0.1c0,0-0.1,0-0.1,0l-0.1,0l-0.2,0l-0.4,0c-0.5,0-0.9,0-1.4,0.1
				c-0.4,0.1-0.9,0.2-1.3,0.3c-0.4,0.1-0.8,0.2-1.1,0.4c-0.3,0.1-0.6,0.3-0.9,0.4c-0.5,0.3-0.8,0.4-0.8,0.4s0.1-0.3,0.4-0.8
				c0.1-0.2,0.3-0.5,0.6-0.8c0.3-0.3,0.6-0.6,1-0.9c0.8-0.6,1.9-1.2,3.2-1.4c0.2,0,0.4-0.1,0.5-0.1l0.2,0l0.1,0l0.2,0
				c0.3,0,0.7,0,1,0c0.7,0.1,1.4,0.2,2.1,0.5c0.7,0.2,1.3,0.6,1.9,1c0.6,0.4,1.1,0.9,1.5,1.4c0.8,1,1.3,2.1,1.5,3.1
				c0,0.3,0.1,0.5,0.1,0.7c0,0.2,0,0.4,0,0.6c0,0.4-0.1,0.8-0.1,1C49.2,41.8,49.1,42.1,49.1,42.1z"/>
		</g>
		<g>
			<path class="st7" d="M63.1,37.1c0,0-0.1,0-0.2-0.1c-0.1-0.1-0.3-0.2-0.6-0.3c-0.2-0.1-0.5-0.3-0.8-0.4c-0.3-0.1-0.7-0.3-1.1-0.4
				c-0.8-0.2-1.7-0.4-2.7-0.4c-0.2,0-0.5,0-0.7,0c-0.1,0,0.1,0,0.1,0l0,0l0,0l0,0l-0.1,0l-0.1,0l-0.2,0c-0.1,0-0.3,0-0.4,0
				c-0.4,0.1-0.9,0.2-1.4,0.4l-0.4,0.1l-0.3,0.2c-0.2,0.1-0.4,0.2-0.7,0.3c-0.2,0.1-0.4,0.3-0.6,0.4c-0.2,0.1-0.4,0.3-0.6,0.4
				c-0.4,0.3-0.7,0.6-1,1c-0.3,0.3-0.6,0.7-0.8,1c-0.1,0.2-0.2,0.3-0.3,0.5c-0.1,0.2-0.2,0.3-0.3,0.5c-0.2,0.3-0.3,0.6-0.4,0.9
				c-0.2,0.5-0.3,0.8-0.3,0.8s-0.1-0.3-0.2-0.9c0-0.3-0.1-0.6-0.1-1c0-0.2,0-0.4,0-0.6c0-0.2,0.1-0.5,0.1-0.7c0.1-0.5,0.3-1,0.5-1.6
				c0.3-0.5,0.6-1.1,1-1.6c0.4-0.5,0.9-1,1.5-1.4c0.3-0.2,0.6-0.4,0.9-0.5c0.3-0.2,0.6-0.3,1-0.4c0.7-0.2,1.4-0.4,2.1-0.4
				c0.2,0,0.3,0,0.5,0l0.5,0c0.3,0,0.7,0.1,1,0.1c1.3,0.2,2.4,0.8,3.2,1.5c0.4,0.3,0.7,0.7,1,1c0.3,0.3,0.4,0.6,0.6,0.9
				c0.1,0.3,0.2,0.5,0.3,0.6C63.1,37,63.1,37.1,63.1,37.1z"/>
		</g>
	</g>
	<g>
		<g>
			<path class="st8" d="M133,40.4l3.5,2.4c0.5,0.4,1.2,0.6,1.8,0.6l4.2,0.1c1.4,0,2.6,0.9,3.1,2.2l1.4,4c0.2,0.6,0.6,1.2,1.1,1.6
				l3.4,2.6c1.1,0.8,1.6,2.3,1.2,3.6l-1.2,4c-0.2,0.6-0.2,1.3,0,1.9l1.2,4c0.4,1.3-0.1,2.8-1.2,3.6l-3.4,2.6
				c-0.5,0.4-0.9,0.9-1.1,1.6l-1.4,4c-0.5,1.3-1.7,2.2-3.1,2.2l-4.2,0.1c-0.7,0-1.3,0.2-1.8,0.6l-3.5,2.4c-1.1,0.8-2.6,0.8-3.8,0
				l-3.5-2.4c-0.5-0.4-1.2-0.6-1.8-0.6l-4.2-0.1c-1.4,0-2.6-0.9-3.1-2.2l-1.4-4c-0.2-0.6-0.6-1.2-1.1-1.6l-3.4-2.6
				c-1.1-0.8-1.6-2.3-1.2-3.6l1.2-4c0.2-0.6,0.2-1.3,0-1.9l-1.2-4c-0.4-1.3,0.1-2.8,1.2-3.6l3.4-2.6c0.5-0.4,0.9-0.9,1.1-1.6l1.4-4
				c0.5-1.3,1.7-2.2,3.1-2.2l4.2-0.1c0.7,0,1.3-0.2,1.8-0.6l3.5-2.4C130.3,39.6,131.8,39.6,133,40.4z"/>
		</g>
		<g class="st9">
			<circle class="st10" cx="131.1" cy="62.4" r="15.5"/>
		</g>
	</g>
	<g>
		<g>
			<path class="st10" d="M34.3,75.2c8.9-2.7,17,3.9,17,12.3c0,0.7-0.1,1.5-0.2,2.2H25.6c-0.1-0.7-0.2-1.4-0.2-2.1
				C25.4,82,28.9,76.8,34.3,75.2z"/>
		</g>
		<g>
			<path class="st10" d="M16.9,82.8c4.2,0,7.7,2.9,8.6,6.9H8.3C9.2,85.7,12.7,82.8,16.9,82.8z"/>
		</g>
		<g>
			<path class="st10" d="M59.8,82.8c4.2,0,7.7,2.9,8.6,6.9H51.3C52.1,85.7,55.6,82.8,59.8,82.8z"/>
		</g>
	</g>
	<g>
		<g>
			<path class="st10" d="M100.4,15.4c-6.5-2-12.5,2.8-12.5,9c0,0.5,0,1.1,0.1,1.6h18.7c0.1-0.5,0.1-1,0.1-1.5
				C106.9,20.4,104.3,16.6,100.4,15.4z"/>
		</g>
		<g>
			<path class="st10" d="M113.1,21c-3.1,0-5.7,2.1-6.3,5h12.6C118.8,23.1,116.2,21,113.1,21z"/>
		</g>
	</g>
	<g>
		<g>
			<path class="st10" d="M177.2,46.6c6.5-2,12.5,2.8,12.5,9c0,0.5,0,1.1-0.1,1.6h-18.7c-0.1-0.5-0.1-1-0.1-1.5
				C170.7,51.6,173.3,47.8,177.2,46.6z"/>
		</g>
		<g>
			<path class="st10" d="M164.5,52.2c3.1,0,5.7,2.1,6.3,5h-12.6C158.9,54.4,161.4,52.2,164.5,52.2z"/>
		</g>
	</g>
	<g>
		<g>
			<g>
				<path class="st11" d="M45.9,131.5c0,0,0.1,0.3,0.3,0.9c0.1,0.3,0.3,0.6,0.4,0.9c0.1,0.2,0.2,0.3,0.3,0.5
					c0.1,0.2,0.2,0.4,0.4,0.6c0.5,0.8,1.2,1.5,2,2.2c0.2,0.2,0.4,0.3,0.6,0.5c0.2,0.1,0.4,0.3,0.7,0.4c0.5,0.3,1,0.5,1.5,0.7
					c0.5,0.2,1,0.3,1.6,0.4c0.3,0.1,0.5,0.1,0.8,0.1c0,0,0.1,0,0.1,0l0.1,0l0.2,0l0.4,0c0.5,0,1,0,1.5-0.1c0.5-0.1,1-0.2,1.4-0.3
					c0.4-0.1,0.8-0.3,1.2-0.4c0.4-0.2,0.7-0.3,0.9-0.4c0.5-0.3,0.8-0.4,0.8-0.4s-0.1,0.3-0.4,0.9c-0.2,0.3-0.4,0.6-0.7,0.9
					c-0.3,0.3-0.6,0.7-1.1,1c-0.9,0.7-2.1,1.3-3.5,1.5c-0.2,0-0.4,0.1-0.5,0.1l-0.2,0l-0.1,0l-0.2,0c-0.4,0-0.7,0-1.1,0
					c-0.8-0.1-1.5-0.2-2.2-0.5c-0.7-0.3-1.4-0.6-2-1.1c-0.6-0.4-1.2-1-1.6-1.5c-0.9-1.1-1.5-2.3-1.7-3.4c0-0.3-0.1-0.5-0.1-0.8
					c0-0.2,0-0.5,0-0.7c0-0.4,0.1-0.8,0.1-1.1C45.8,131.9,45.9,131.5,45.9,131.5z"/>
			</g>
			<g>
				<path class="st11" d="M30.5,137c0,0,0.1,0,0.2,0.1c0.1,0.1,0.4,0.2,0.6,0.3c0.3,0.1,0.6,0.3,0.9,0.4c0.4,0.2,0.8,0.3,1.2,0.4
					c0.9,0.3,1.9,0.4,2.9,0.4c0.3,0,0.5,0,0.8,0c0.1,0-0.1,0-0.1,0l0,0l0,0l0,0l0.1,0l0.1,0l0.2,0c0.2,0,0.3,0,0.5-0.1
					c0.5-0.1,1-0.2,1.5-0.4l0.4-0.1l0.4-0.2c0.3-0.1,0.5-0.2,0.7-0.4c0.2-0.1,0.5-0.3,0.7-0.4c0.2-0.2,0.4-0.3,0.6-0.5
					c0.4-0.3,0.8-0.7,1.1-1.1c0.3-0.4,0.6-0.8,0.9-1.1c0.1-0.2,0.2-0.4,0.4-0.6c0.1-0.2,0.2-0.4,0.3-0.5c0.2-0.3,0.3-0.7,0.4-0.9
					c0.2-0.5,0.4-0.9,0.4-0.9s0.1,0.3,0.3,0.9c0,0.3,0.1,0.7,0.1,1.1c0,0.2,0,0.5,0,0.7c0,0.2-0.1,0.5-0.1,0.8
					c-0.1,0.5-0.3,1.1-0.6,1.7c-0.3,0.6-0.7,1.2-1.1,1.7c-0.5,0.5-1,1.1-1.7,1.5c-0.3,0.2-0.6,0.4-1,0.6c-0.3,0.2-0.7,0.3-1.1,0.5
					c-0.7,0.3-1.5,0.4-2.3,0.5c-0.2,0-0.3,0-0.5,0l-0.6,0c-0.4,0-0.7-0.1-1.1-0.1c-1.4-0.3-2.6-0.9-3.5-1.6
					c-0.4-0.4-0.8-0.7-1.1-1.1c-0.3-0.3-0.5-0.7-0.6-0.9c-0.2-0.3-0.2-0.5-0.3-0.7C30.6,137.1,30.5,137,30.5,137z"/>
			</g>
		</g>
		<g>
			<g>
				<path class="st11" d="M77.2,131.5c0,0,0.1,0.3,0.3,0.9c0.1,0.3,0.3,0.6,0.4,0.9c0.1,0.2,0.2,0.3,0.3,0.5
					c0.1,0.2,0.2,0.4,0.4,0.6c0.5,0.8,1.2,1.5,2,2.2c0.2,0.2,0.4,0.3,0.6,0.5c0.2,0.1,0.4,0.3,0.7,0.4c0.5,0.3,1,0.5,1.5,0.7
					c0.5,0.2,1,0.3,1.6,0.4c0.3,0.1,0.5,0.1,0.8,0.1c0,0,0.1,0,0.1,0l0.1,0l0.2,0l0.4,0c0.5,0,1,0,1.5-0.1c0.5-0.1,1-0.2,1.4-0.3
					c0.4-0.1,0.8-0.3,1.2-0.4c0.4-0.2,0.7-0.3,0.9-0.4c0.5-0.3,0.8-0.4,0.8-0.4s-0.1,0.3-0.4,0.9c-0.2,0.3-0.4,0.6-0.7,0.9
					c-0.3,0.3-0.6,0.7-1.1,1c-0.9,0.7-2.1,1.3-3.5,1.5c-0.2,0-0.4,0.1-0.5,0.1l-0.2,0l-0.1,0l-0.2,0c-0.4,0-0.7,0-1.1,0
					c-0.8-0.1-1.5-0.2-2.2-0.5c-0.7-0.3-1.4-0.6-2-1.1c-0.6-0.4-1.2-1-1.6-1.5c-0.9-1.1-1.5-2.3-1.7-3.4c0-0.3-0.1-0.5-0.1-0.8
					c0-0.2,0-0.5,0-0.7c0-0.4,0.1-0.8,0.1-1.1C77,131.9,77.2,131.5,77.2,131.5z"/>
			</g>
			<g>
				<path class="st11" d="M61.8,137c0,0,0.1,0,0.2,0.1c0.1,0.1,0.4,0.2,0.6,0.3c0.3,0.1,0.6,0.3,0.9,0.4c0.4,0.2,0.8,0.3,1.2,0.4
					c0.9,0.3,1.9,0.4,2.9,0.4c0.3,0,0.5,0,0.8,0c0.1,0-0.1,0-0.1,0l0,0l0,0l0,0l0.1,0l0.1,0l0.2,0c0.2,0,0.3,0,0.5-0.1
					c0.5-0.1,1-0.2,1.5-0.4l0.4-0.1l0.4-0.2c0.3-0.1,0.5-0.2,0.7-0.4c0.2-0.1,0.5-0.3,0.7-0.4c0.2-0.2,0.4-0.3,0.6-0.5
					c0.4-0.3,0.8-0.7,1.1-1.1c0.3-0.4,0.6-0.8,0.9-1.1c0.1-0.2,0.2-0.4,0.4-0.6c0.1-0.2,0.2-0.4,0.3-0.5c0.2-0.3,0.3-0.7,0.4-0.9
					c0.2-0.5,0.4-0.9,0.4-0.9s0.1,0.3,0.3,0.9c0,0.3,0.1,0.7,0.1,1.1c0,0.2,0,0.5,0,0.7c0,0.2-0.1,0.5-0.1,0.8
					c-0.1,0.5-0.3,1.1-0.6,1.7c-0.3,0.6-0.7,1.2-1.1,1.7c-0.5,0.5-1,1.1-1.7,1.5c-0.3,0.2-0.6,0.4-1,0.6c-0.3,0.2-0.7,0.3-1.1,0.5
					c-0.7,0.3-1.5,0.4-2.3,0.5c-0.2,0-0.3,0-0.5,0l-0.6,0c-0.4,0-0.7-0.1-1.1-0.1c-1.4-0.3-2.6-0.9-3.5-1.6
					c-0.4-0.4-0.8-0.7-1.1-1.1c-0.3-0.3-0.5-0.7-0.6-0.9c-0.2-0.3-0.2-0.5-0.3-0.7C61.9,137.1,61.8,137,61.8,137z"/>
			</g>
		</g>
		<g>
			<g>
				<path class="st11" d="M108.5,131.5c0,0,0.1,0.3,0.3,0.9c0.1,0.3,0.3,0.6,0.4,0.9c0.1,0.2,0.2,0.3,0.3,0.5
					c0.1,0.2,0.2,0.4,0.4,0.6c0.5,0.8,1.2,1.5,2,2.2c0.2,0.2,0.4,0.3,0.6,0.5c0.2,0.1,0.4,0.3,0.7,0.4c0.5,0.3,1,0.5,1.5,0.7
					c0.5,0.2,1,0.3,1.6,0.4c0.3,0.1,0.5,0.1,0.8,0.1c0,0,0.1,0,0.1,0l0.1,0l0.2,0l0.4,0c0.5,0,1,0,1.5-0.1c0.5-0.1,1-0.2,1.4-0.3
					c0.4-0.1,0.8-0.3,1.2-0.4c0.4-0.2,0.7-0.3,0.9-0.4c0.5-0.3,0.8-0.4,0.8-0.4s-0.1,0.3-0.4,0.9c-0.2,0.3-0.4,0.6-0.7,0.9
					c-0.3,0.3-0.6,0.7-1.1,1c-0.9,0.7-2.1,1.3-3.5,1.5c-0.2,0-0.4,0.1-0.5,0.1l-0.2,0l-0.1,0l-0.2,0c-0.4,0-0.7,0-1.1,0
					c-0.8-0.1-1.5-0.2-2.2-0.5c-0.7-0.3-1.4-0.6-2-1.1c-0.6-0.4-1.2-1-1.6-1.5c-0.9-1.1-1.5-2.3-1.7-3.4c0-0.3-0.1-0.5-0.1-0.8
					c0-0.2,0-0.5,0-0.7c0-0.4,0.1-0.8,0.1-1.1C108.3,131.9,108.5,131.5,108.5,131.5z"/>
			</g>
			<g>
				<path class="st11" d="M93.1,137c0,0,0.1,0,0.2,0.1c0.1,0.1,0.4,0.2,0.6,0.3c0.3,0.1,0.6,0.3,0.9,0.4c0.4,0.2,0.8,0.3,1.2,0.4
					c0.9,0.3,1.9,0.4,2.9,0.4c0.3,0,0.5,0,0.8,0c0.1,0-0.1,0-0.1,0l0,0l0,0l0,0l0.1,0l0.1,0l0.2,0c0.2,0,0.3,0,0.5-0.1
					c0.5-0.1,1-0.2,1.5-0.4l0.4-0.1l0.4-0.2c0.3-0.1,0.5-0.2,0.7-0.4c0.2-0.1,0.5-0.3,0.7-0.4c0.2-0.2,0.4-0.3,0.6-0.5
					c0.4-0.3,0.8-0.7,1.1-1.1c0.3-0.4,0.6-0.8,0.9-1.1c0.1-0.2,0.2-0.4,0.4-0.6c0.1-0.2,0.2-0.4,0.3-0.5c0.2-0.3,0.3-0.7,0.4-0.9
					c0.2-0.5,0.4-0.9,0.4-0.9s0.1,0.3,0.3,0.9c0,0.3,0.1,0.7,0.1,1.1c0,0.2,0,0.5,0,0.7c0,0.2-0.1,0.5-0.1,0.8
					c-0.1,0.5-0.3,1.1-0.6,1.7c-0.3,0.6-0.7,1.2-1.1,1.7c-0.5,0.5-1,1.1-1.7,1.5c-0.3,0.2-0.6,0.4-1,0.6c-0.3,0.2-0.7,0.3-1.1,0.5
					c-0.7,0.3-1.5,0.4-2.3,0.5c-0.2,0-0.3,0-0.5,0l-0.6,0c-0.4,0-0.7-0.1-1.1-0.1c-1.4-0.3-2.6-0.9-3.5-1.6
					c-0.4-0.4-0.8-0.7-1.1-1.1c-0.3-0.3-0.5-0.7-0.6-0.9c-0.2-0.3-0.2-0.5-0.3-0.7C93.1,137.1,93.1,137,93.1,137z"/>
			</g>
		</g>
	</g>
	<g>
		<g>
			<g>
				<path class="st11" d="M61.5,146.4c0,0,0.1,0.3,0.3,0.9c0.1,0.3,0.3,0.6,0.4,0.9c0.1,0.2,0.2,0.3,0.3,0.5
					c0.1,0.2,0.2,0.4,0.4,0.6c0.5,0.8,1.2,1.5,2,2.2c0.2,0.2,0.4,0.3,0.6,0.5c0.2,0.1,0.4,0.3,0.7,0.4c0.5,0.3,1,0.5,1.5,0.7
					c0.5,0.2,1,0.3,1.6,0.4c0.3,0.1,0.5,0.1,0.8,0.1c0,0,0.1,0,0.1,0l0.1,0l0.2,0l0.4,0c0.5,0,1,0,1.5-0.1c0.5-0.1,1-0.2,1.4-0.3
					c0.4-0.1,0.8-0.3,1.2-0.4c0.4-0.2,0.7-0.3,0.9-0.4c0.5-0.3,0.8-0.4,0.8-0.4s-0.1,0.3-0.4,0.9c-0.2,0.3-0.4,0.6-0.7,0.9
					c-0.3,0.3-0.6,0.7-1.1,1c-0.9,0.7-2.1,1.3-3.5,1.5c-0.2,0-0.4,0.1-0.5,0.1l-0.2,0l-0.1,0l-0.2,0c-0.4,0-0.7,0-1.1,0
					c-0.8-0.1-1.5-0.2-2.2-0.5c-0.7-0.3-1.4-0.6-2-1.1c-0.6-0.4-1.2-1-1.6-1.5c-0.9-1.1-1.5-2.3-1.7-3.4c0-0.3-0.1-0.5-0.1-0.8
					c0-0.2,0-0.5,0-0.7c0-0.4,0.1-0.8,0.1-1.1C61.4,146.7,61.5,146.4,61.5,146.4z"/>
			</g>
			<g>
				<path class="st11" d="M46.2,151.8c0,0,0.1,0,0.2,0.1c0.1,0.1,0.4,0.2,0.6,0.3c0.3,0.1,0.6,0.3,0.9,0.4c0.4,0.2,0.8,0.3,1.2,0.4
					c0.9,0.3,1.9,0.4,2.9,0.4c0.3,0,0.5,0,0.8,0c0.1,0-0.1,0-0.1,0l0,0l0,0l0,0l0.1,0l0.1,0l0.2,0c0.2,0,0.3,0,0.5-0.1
					c0.5-0.1,1-0.2,1.5-0.4l0.4-0.1l0.4-0.2c0.3-0.1,0.5-0.2,0.7-0.4c0.2-0.1,0.5-0.3,0.7-0.4c0.2-0.2,0.4-0.3,0.6-0.5
					c0.4-0.3,0.8-0.7,1.1-1.1c0.3-0.4,0.6-0.8,0.9-1.1c0.1-0.2,0.2-0.4,0.4-0.6c0.1-0.2,0.2-0.4,0.3-0.5c0.2-0.3,0.3-0.7,0.4-0.9
					c0.2-0.5,0.4-0.9,0.4-0.9s0.1,0.3,0.3,0.9c0,0.3,0.1,0.7,0.1,1.1c0,0.2,0,0.5,0,0.7c0,0.2-0.1,0.5-0.1,0.8
					c-0.1,0.5-0.3,1.1-0.6,1.7c-0.3,0.6-0.7,1.2-1.1,1.7c-0.5,0.5-1,1.1-1.7,1.5c-0.3,0.2-0.6,0.4-1,0.6c-0.3,0.2-0.7,0.3-1.1,0.5
					c-0.7,0.3-1.5,0.4-2.3,0.5c-0.2,0-0.3,0-0.5,0l-0.6,0c-0.4,0-0.7-0.1-1.1-0.1c-1.4-0.3-2.6-0.9-3.5-1.6
					c-0.4-0.4-0.8-0.7-1.1-1.1c-0.3-0.3-0.5-0.7-0.6-0.9c-0.2-0.3-0.2-0.5-0.3-0.7C46.2,151.9,46.2,151.8,46.2,151.8z"/>
			</g>
		</g>
		<g>
			<g>
				<path class="st11" d="M92.8,146.4c0,0,0.1,0.3,0.3,0.9c0.1,0.3,0.3,0.6,0.4,0.9c0.1,0.2,0.2,0.3,0.3,0.5
					c0.1,0.2,0.2,0.4,0.4,0.6c0.5,0.8,1.2,1.5,2,2.2c0.2,0.2,0.4,0.3,0.6,0.5c0.2,0.1,0.4,0.3,0.7,0.4c0.5,0.3,1,0.5,1.5,0.7
					c0.5,0.2,1,0.3,1.6,0.4c0.3,0.1,0.5,0.1,0.8,0.1c0,0,0.1,0,0.1,0l0.1,0l0.2,0l0.4,0c0.5,0,1,0,1.5-0.1c0.5-0.1,1-0.2,1.4-0.3
					c0.4-0.1,0.8-0.3,1.2-0.4c0.4-0.2,0.7-0.3,0.9-0.4c0.5-0.3,0.8-0.4,0.8-0.4s-0.1,0.3-0.4,0.9c-0.2,0.3-0.4,0.6-0.7,0.9
					c-0.3,0.3-0.6,0.7-1.1,1c-0.9,0.7-2.1,1.3-3.5,1.5c-0.2,0-0.4,0.1-0.5,0.1l-0.2,0l-0.1,0l-0.2,0c-0.4,0-0.7,0-1.1,0
					c-0.8-0.1-1.5-0.2-2.2-0.5c-0.7-0.3-1.4-0.6-2-1.1c-0.6-0.4-1.2-1-1.6-1.5c-0.9-1.1-1.5-2.3-1.7-3.4c0-0.3-0.1-0.5-0.1-0.8
					c0-0.2,0-0.5,0-0.7c0-0.4,0.1-0.8,0.1-1.1C92.7,146.7,92.8,146.4,92.8,146.4z"/>
			</g>
			<g>
				<path class="st11" d="M77.5,151.8c0,0,0.1,0,0.2,0.1c0.1,0.1,0.4,0.2,0.6,0.3c0.3,0.1,0.6,0.3,0.9,0.4c0.4,0.2,0.8,0.3,1.2,0.4
					c0.9,0.3,1.9,0.4,2.9,0.4c0.3,0,0.5,0,0.8,0c0.1,0-0.1,0-0.1,0l0,0l0,0l0,0l0.1,0l0.1,0l0.2,0c0.2,0,0.3,0,0.5-0.1
					c0.5-0.1,1-0.2,1.5-0.4L87,153l0.4-0.2c0.3-0.1,0.5-0.2,0.7-0.4c0.2-0.1,0.5-0.3,0.7-0.4c0.2-0.2,0.4-0.3,0.6-0.5
					c0.4-0.3,0.8-0.7,1.1-1.1c0.3-0.4,0.6-0.8,0.9-1.1c0.1-0.2,0.2-0.4,0.4-0.6c0.1-0.2,0.2-0.4,0.3-0.5c0.2-0.3,0.3-0.7,0.4-0.9
					c0.2-0.5,0.4-0.9,0.4-0.9s0.1,0.3,0.3,0.9c0,0.3,0.1,0.7,0.1,1.1c0,0.2,0,0.5,0,0.7c0,0.2-0.1,0.5-0.1,0.8
					c-0.1,0.5-0.3,1.1-0.6,1.7c-0.3,0.6-0.7,1.2-1.1,1.7c-0.5,0.5-1,1.1-1.7,1.5c-0.3,0.2-0.6,0.4-1,0.6c-0.3,0.2-0.7,0.3-1.1,0.5
					c-0.7,0.3-1.5,0.4-2.3,0.5c-0.2,0-0.3,0-0.5,0l-0.6,0c-0.4,0-0.7-0.1-1.1-0.1c-1.4-0.3-2.6-0.9-3.5-1.6
					c-0.4-0.4-0.8-0.7-1.1-1.1c-0.3-0.3-0.5-0.7-0.6-0.9c-0.2-0.3-0.2-0.5-0.3-0.7C77.5,151.9,77.5,151.8,77.5,151.8z"/>
			</g>
		</g>
		<g>
			<g>
				<path class="st11" d="M124.1,146.4c0,0,0.1,0.3,0.3,0.9c0.1,0.3,0.3,0.6,0.4,0.9c0.1,0.2,0.2,0.3,0.3,0.5
					c0.1,0.2,0.2,0.4,0.4,0.6c0.5,0.8,1.2,1.5,2,2.2c0.2,0.2,0.4,0.3,0.6,0.5c0.2,0.1,0.4,0.3,0.7,0.4c0.5,0.3,1,0.5,1.5,0.7
					c0.5,0.2,1,0.3,1.6,0.4c0.3,0.1,0.5,0.1,0.8,0.1c0,0,0.1,0,0.1,0l0.1,0l0.2,0l0.4,0c0.5,0,1,0,1.5-0.1c0.5-0.1,1-0.2,1.4-0.3
					c0.4-0.1,0.8-0.3,1.2-0.4c0.4-0.2,0.7-0.3,0.9-0.4c0.5-0.3,0.8-0.4,0.8-0.4s-0.1,0.3-0.4,0.9c-0.2,0.3-0.4,0.6-0.7,0.9
					c-0.3,0.3-0.6,0.7-1.1,1c-0.9,0.7-2.1,1.3-3.5,1.5c-0.2,0-0.4,0.1-0.5,0.1l-0.2,0l-0.1,0l-0.2,0c-0.4,0-0.7,0-1.1,0
					c-0.8-0.1-1.5-0.2-2.2-0.5c-0.7-0.3-1.4-0.6-2-1.1c-0.6-0.4-1.2-1-1.6-1.5c-0.9-1.1-1.5-2.3-1.7-3.4c0-0.3-0.1-0.5-0.1-0.8
					c0-0.2,0-0.5,0-0.7c0-0.4,0.1-0.8,0.1-1.1C124,146.7,124.1,146.4,124.1,146.4z"/>
			</g>
			<g>
				<path class="st11" d="M108.8,151.8c0,0,0.1,0,0.2,0.1c0.1,0.1,0.4,0.2,0.6,0.3c0.3,0.1,0.6,0.3,0.9,0.4c0.4,0.2,0.8,0.3,1.2,0.4
					c0.9,0.3,1.9,0.4,2.9,0.4c0.3,0,0.5,0,0.8,0c0.1,0-0.1,0-0.1,0l0,0l0,0l0,0l0.1,0l0.1,0l0.2,0c0.2,0,0.3,0,0.5-0.1
					c0.5-0.1,1-0.2,1.5-0.4l0.4-0.1l0.4-0.2c0.3-0.1,0.5-0.2,0.7-0.4c0.2-0.1,0.5-0.3,0.7-0.4c0.2-0.2,0.4-0.3,0.6-0.5
					c0.4-0.3,0.8-0.7,1.1-1.1c0.3-0.4,0.6-0.8,0.9-1.1c0.1-0.2,0.2-0.4,0.4-0.6c0.1-0.2,0.2-0.4,0.3-0.5c0.2-0.3,0.3-0.7,0.4-0.9
					c0.2-0.5,0.4-0.9,0.4-0.9s0.1,0.3,0.3,0.9c0,0.3,0.1,0.7,0.1,1.1c0,0.2,0,0.5,0,0.7c0,0.2-0.1,0.5-0.1,0.8
					c-0.1,0.5-0.3,1.1-0.6,1.7c-0.3,0.6-0.7,1.2-1.1,1.7c-0.5,0.5-1,1.1-1.7,1.5c-0.3,0.2-0.6,0.4-1,0.6c-0.3,0.2-0.7,0.3-1.1,0.5
					c-0.7,0.3-1.5,0.4-2.3,0.5c-0.2,0-0.3,0-0.5,0l-0.6,0c-0.4,0-0.7-0.1-1.1-0.1c-1.4-0.3-2.6-0.9-3.5-1.6
					c-0.4-0.4-0.8-0.7-1.1-1.1c-0.3-0.3-0.5-0.7-0.6-0.9c-0.2-0.3-0.2-0.5-0.3-0.7C108.8,151.9,108.8,151.8,108.8,151.8z"/>
			</g>
		</g>
	</g>
	<g>
		<g>
			<g>
				<path class="st12" d="M162.8,167.1h-5c0-42.7,13.1-76.1,29.8-76.1v5C175.6,96,162.8,124.6,162.8,167.1z"/>
			</g>
			<g>
				<path class="st13" d="M188.5,118.5c-0.2-0.6-0.3-1.1-0.4-1.7c-0.1-0.6-0.2-1.1-0.3-1.7c-0.2-1.1-0.4-2.2-0.6-3.2l-0.3-1.6
					c-0.1-0.5-0.2-1-0.3-1.5c-0.1-0.5-0.2-1-0.3-1.5c-0.1-0.5-0.2-1-0.3-1.5c-0.1-0.5-0.2-1-0.3-1.5c-0.1-0.5-0.2-0.9-0.4-1.4
					c-0.1-0.5-0.3-0.9-0.4-1.4c-0.1-0.5-0.3-0.9-0.4-1.3c-0.1-0.4-0.3-0.8-0.5-1.2c-0.2-0.4-0.3-0.8-0.5-1.1c-0.2-0.4-0.4-0.7-0.6-1
					c-0.1-0.1-0.2-0.3-0.3-0.4c0-0.1-0.3-0.3,0-0.1l3-7.2c0.9,0,1.4,0.1,2.1,0.2c0.6,0.1,1.3,0.2,1.9,0.4c0.6,0.1,1.2,0.3,1.8,0.5
					c0.6,0.2,1.2,0.4,1.8,0.7c0.6,0.2,1.2,0.6,1.7,0.8c0.6,0.3,1.1,0.7,1.7,1c0.6,0.3,1.1,0.8,1.6,1.2c0.5,0.4,1,0.8,1.4,1.3
					c0.4,0.5,0.9,0.9,1.3,1.5c0.4,0.5,0.8,1.1,1.1,1.6c0.3,0.6,0.6,1.2,0.9,1.7c0.3,0.6,0.5,1.2,0.6,1.8c0.1,0.6,0.4,1.2,0.4,1.8
					c0.1,0.6,0.1,1.2,0.1,1.8c0.1,0.6,0,1.2-0.1,1.8c-0.1,0.6-0.2,1.2-0.3,1.8c-0.4-0.5-0.6-1-0.9-1.5c-0.3-0.5-0.5-1-0.9-1.4
					c-0.3-0.4-0.6-0.9-0.9-1.3c-0.3-0.4-0.7-0.8-1-1.1c-0.3-0.4-0.6-0.7-1-1l-1.1-0.9c-0.4-0.3-0.8-0.5-1.1-0.8
					c-0.3-0.3-0.8-0.5-1.2-0.7c-0.4-0.2-0.8-0.4-1.2-0.6c-0.4-0.2-0.8-0.4-1.2-0.5c-0.4-0.1-0.8-0.3-1.3-0.5
					c-0.4-0.1-0.9-0.3-1.3-0.4c-0.5-0.1-0.9-0.3-1.3-0.3c-0.5-0.1-0.9-0.2-1.4-0.3c-0.4-0.1-0.9-0.2-1.3-0.2c-0.4-0.1-1-0.1-1.2-0.1
					l3-7.2c0.6,0.6,0.7,0.8,1,1.2c0.2,0.3,0.4,0.6,0.6,1c0.4,0.6,0.7,1.2,0.9,1.9c0.2,0.6,0.5,1.2,0.7,1.9c0.2,0.6,0.4,1.2,0.5,1.8
					c0.1,0.6,0.2,1.2,0.3,1.8c0.1,0.6,0.1,1.2,0.2,1.8c0,0.6,0.1,1.2,0,1.8c0,0.6-0.1,1.2-0.1,1.8c0,0.6-0.1,1.2-0.2,1.7
					c-0.1,0.6-0.2,1.1-0.3,1.7c-0.1,0.6-0.2,1.1-0.4,1.7c-0.1,0.6-0.3,1.1-0.4,1.7c-0.2,0.6-0.4,1.1-0.6,1.6
					c-0.2,0.5-0.4,1.1-0.6,1.6c-0.2,0.5-0.5,1-0.7,1.5C189,117.5,188.8,118,188.5,118.5z"/>
			</g>
			<g>
				<path class="st14" d="M161.4,95.9c0.4-0.4,0.9-0.7,1.3-1.1c0.4-0.4,0.9-0.7,1.3-1c0.5-0.3,1-0.6,1.4-0.9c0.5-0.3,1-0.6,1.5-0.9
					c0.5-0.3,1-0.5,1.5-0.8c0.5-0.3,1-0.5,1.6-0.7c0.5-0.2,1.1-0.4,1.6-0.6c0.5-0.2,1.1-0.4,1.7-0.5c0.6-0.1,1.1-0.3,1.7-0.4
					c0.6-0.1,1.2-0.2,1.8-0.3c0.6-0.1,1.2-0.2,1.8-0.2c0.6-0.1,1.2,0,1.9-0.1c0.6,0,1.3,0,1.9,0.1c0.6,0.1,1.3,0.2,2,0.3
					c0.7,0.1,1.3,0.3,2,0.5c0.3,0.1,0.7,0.3,1.1,0.4c0.4,0.2,0.6,0.3,1.4,0.7l-6.4,4.4c-0.1-0.2-0.2-0.7-0.3-1.1
					c-0.2-0.4-0.3-0.9-0.5-1.3c-0.2-0.4-0.3-0.8-0.5-1.3c-0.2-0.4-0.4-0.8-0.6-1.2c-0.2-0.4-0.4-0.8-0.6-1.2
					c-0.2-0.4-0.5-0.8-0.7-1.2c-0.2-0.4-0.5-0.7-0.8-1.1c-0.3-0.4-0.5-0.7-0.8-1.1c-0.3-0.3-0.6-0.7-0.9-1c-0.3-0.3-0.7-0.6-1-1
					l-1.1-0.9c-0.4-0.3-0.8-0.6-1.2-0.8c-0.4-0.2-0.8-0.6-1.3-0.8c-0.5-0.2-0.9-0.4-1.4-0.7c-0.5-0.3-1-0.4-1.5-0.6
					c-0.5-0.2-1.1-0.4-1.6-0.6c0.5-0.2,1.1-0.4,1.7-0.6c0.6-0.2,1.2-0.4,1.8-0.5c0.6-0.1,1.2-0.2,1.8-0.2c0.6-0.1,1.2,0,1.9,0
					c0.6,0,1.3,0.1,1.9,0.3c0.6,0.2,1.3,0.3,1.9,0.5c0.6,0.2,1.2,0.5,1.8,0.8c0.6,0.2,1.1,0.6,1.7,1c0.6,0.3,1.1,0.7,1.6,1.2
					c0.5,0.4,1,0.8,1.5,1.3c0.5,0.5,0.9,0.9,1.3,1.4c0.4,0.5,0.8,1,1.2,1.5c0.4,0.5,0.7,1.1,1,1.6c0.3,0.6,0.6,1.1,0.9,1.7
					c0.3,0.6,0.5,1.2,0.7,1.8c0.2,0.6,0.4,1.2,0.6,2l-6.4,4.4c0.3,0.2,0,0-0.1,0c-0.1-0.1-0.3-0.1-0.4-0.2c-0.3-0.1-0.7-0.2-1.1-0.3
					c-0.4-0.1-0.8-0.2-1.2-0.3c-0.4-0.1-0.9-0.2-1.3-0.2c-0.5-0.1-0.9-0.1-1.4-0.2c-0.5,0-0.9-0.1-1.4-0.1c-0.5,0-1,0-1.5-0.1
					c-0.5,0-1,0-1.5,0c-0.5,0-1,0-1.5,0c-0.5,0-1,0-1.5,0c-0.5,0-1,0-1.6,0l-1.6,0c-1.1,0-2.1,0.1-3.3,0.1c-0.6,0-1.1,0-1.7,0
					C162.5,95.9,162,95.9,161.4,95.9z"/>
			</g>
		</g>
		<g>
			<g>
				<path class="st15" d="M162.6,167.1h-5c0-15-2.1-29-6-39.5c-3.6-9.6-8.2-15.1-12.6-15.1v-5C152.4,107.5,162.6,133.1,162.6,167.1z
					"/>
			</g>
			<g>
				<path class="st14" d="M138.2,129.4c-0.5-0.8-0.9-1.6-1.3-2.3c-0.4-0.8-0.7-1.7-1-2.5c-0.1-0.4-0.3-0.9-0.4-1.3
					c-0.1-0.4-0.2-0.9-0.3-1.3c-0.2-0.9-0.3-1.8-0.4-2.7c-0.1-0.9-0.1-1.9-0.1-2.8c0-0.5,0.1-1,0.1-1.4c0-0.5,0.1-1,0.2-1.4
					c0.2-1,0.5-1.9,0.9-2.9c0.2-0.5,0.4-1,0.7-1.5c0.1-0.3,0.3-0.5,0.5-0.8c0.2-0.3,0.3-0.5,0.8-1l2.7,6.3l-0.9,0.1
					c-0.3,0-0.7,0.1-1,0.2c-0.3,0-0.7,0.1-1,0.2c-0.3,0.1-0.7,0.2-1,0.3c-0.3,0.1-0.7,0.2-1,0.3c-0.3,0.1-0.6,0.2-1,0.3
					c-0.3,0.1-0.6,0.3-0.9,0.4c-0.3,0.1-0.6,0.3-0.9,0.4c-0.3,0.2-0.6,0.3-0.9,0.5c-0.3,0.2-0.6,0.4-0.9,0.6l-0.8,0.7
					c-0.3,0.2-0.6,0.5-0.8,0.8c-0.3,0.3-0.6,0.5-0.8,0.9c-0.3,0.3-0.5,0.6-0.8,1c-0.3,0.3-0.5,0.7-0.7,1.1c-0.3,0.4-0.5,0.7-0.8,1.1
					c-0.1-0.4-0.2-0.9-0.3-1.4c-0.1-0.5-0.2-1-0.1-1.4c0-0.5,0-1,0.1-1.5c0-0.5,0.2-1,0.3-1.5c0.1-0.5,0.3-1,0.5-1.4
					c0.2-0.5,0.4-0.9,0.7-1.4c0.3-0.4,0.6-0.9,0.9-1.3c0.3-0.4,0.7-0.8,1-1.2c0.4-0.4,0.7-0.7,1.1-1.1c0.4-0.3,0.8-0.7,1.2-0.9
					c0.4-0.3,0.9-0.6,1.3-0.8c0.5-0.2,0.9-0.5,1.4-0.7c0.5-0.2,0.9-0.4,1.4-0.5c0.5-0.2,1-0.3,1.5-0.4c0.5-0.1,1-0.2,1.5-0.3
					c0.5-0.1,1-0.2,1.7-0.2l2.7,6.3c0.2-0.2,0,0,0,0c-0.1,0.1-0.1,0.2-0.2,0.3c-0.1,0.2-0.3,0.5-0.4,0.7c-0.1,0.3-0.3,0.5-0.4,0.9
					c-0.1,0.3-0.3,0.6-0.4,0.9c-0.1,0.3-0.3,0.6-0.3,1c-0.1,0.3-0.2,0.7-0.3,1c-0.2,0.7-0.4,1.4-0.6,2.2c-0.1,0.4-0.2,0.8-0.3,1.1
					c-0.1,0.4-0.2,0.8-0.3,1.2l-0.2,1.2l-0.3,1.2c-0.2,0.8-0.3,1.6-0.5,2.5C138.7,127.7,138.5,128.5,138.2,129.4z"/>
			</g>
			<g>
				<path class="st13" d="M159.3,111.8c-0.9,0.1-1.8,0.1-2.7,0.1c-0.9,0-1.7,0-2.5,0l-1.2,0l-1.2,0c-0.4,0-0.8,0-1.2,0
					c-0.4,0-0.8,0-1.2,0c-0.8,0-1.5,0.1-2.3,0.1c-0.4,0-0.7,0.1-1.1,0.1c-0.4,0-0.7,0.1-1,0.1c-0.3,0-0.7,0.1-1,0.2
					c-0.3,0.1-0.6,0.1-0.9,0.2c-0.3,0.1-0.6,0.2-0.8,0.3c-0.1,0-0.2,0.1-0.3,0.1c0,0-0.2,0.1,0,0l-5.6-3.8c0.2-0.7,0.3-1.1,0.5-1.6
					c0.2-0.5,0.4-1,0.6-1.4c0.2-0.5,0.5-0.9,0.7-1.3c0.2-0.4,0.5-0.9,0.8-1.3c0.3-0.4,0.6-0.8,0.9-1.2c0.3-0.4,0.7-0.8,1.1-1.1
					c0.4-0.4,0.8-0.7,1.2-1c0.4-0.3,0.8-0.6,1.3-0.9c0.5-0.3,0.9-0.6,1.4-0.8c0.5-0.2,1-0.4,1.4-0.6c0.5-0.1,1-0.3,1.5-0.4
					c0.5-0.1,1-0.1,1.5-0.2c0.5,0,1-0.1,1.5,0c0.5,0.1,1,0.1,1.4,0.2c0.5,0.1,0.9,0.3,1.4,0.4c0.4,0.2,0.9,0.3,1.3,0.6
					c-0.4,0.2-0.9,0.4-1.3,0.6c-0.4,0.2-0.8,0.3-1.2,0.5c-0.4,0.2-0.7,0.4-1.1,0.6c-0.4,0.2-0.7,0.4-1,0.6c-0.3,0.2-0.6,0.4-0.9,0.7
					l-0.8,0.7c-0.2,0.3-0.5,0.5-0.7,0.8c-0.3,0.2-0.4,0.5-0.7,0.8c-0.2,0.2-0.4,0.5-0.6,0.8c-0.2,0.3-0.4,0.5-0.6,0.8
					c-0.2,0.3-0.4,0.6-0.5,0.9c-0.2,0.3-0.3,0.6-0.5,0.9c-0.1,0.3-0.3,0.6-0.4,0.9c-0.1,0.3-0.3,0.6-0.4,1c-0.1,0.3-0.3,0.6-0.4,1
					l-0.3,0.8l-5.6-3.8c0.6-0.4,0.8-0.4,1.1-0.6c0.3-0.1,0.6-0.2,0.9-0.3c0.6-0.2,1.1-0.3,1.6-0.4c1.1-0.2,2.1-0.3,3.1-0.3
					c0.5,0,1,0,1.5,0.1c0.5,0,1,0.1,1.4,0.2c0.9,0.1,1.8,0.4,2.7,0.6c0.9,0.2,1.7,0.6,2.6,0.9c0.4,0.2,0.8,0.4,1.2,0.6
					c0.4,0.2,0.8,0.4,1.2,0.6c0.8,0.5,1.5,1,2.3,1.5C157.9,110.6,158.6,111.2,159.3,111.8z"/>
			</g>
		</g>
	</g>
	<g>
		<g>
			<path class="st10" d="M70.6,195.4c0,0,0.7-0.1,1.9-0.3c1.2-0.2,2.9-0.4,4.9-0.6c2-0.2,4.4-0.3,7-0.5c2.6-0.1,5.3-0.2,8-0.2
				c2.7,0,5.5,0.1,8,0.2c2.6,0.1,4.9,0.3,7,0.5c2,0.2,3.8,0.4,4.9,0.6c1.2,0.2,1.9,0.3,1.9,0.3s-0.7,0.1-1.9,0.3
				c-1.2,0.2-2.9,0.4-4.9,0.6c-2,0.2-4.4,0.3-7,0.5c-2.6,0.1-5.3,0.2-8,0.2c-2.7,0-5.5-0.1-8-0.2c-2.6-0.1-4.9-0.3-7-0.5
				c-2-0.2-3.8-0.4-4.9-0.6C71.2,195.5,70.6,195.4,70.6,195.4z"/>
		</g>
		<g>
			<g>
				<g>

						<ellipse transform="matrix(0.6718 -0.7407 0.7407 0.6718 -100.984 132.5456)" class="st16" cx="99.1" cy="180.2" rx="15.2" ry="15.2"/>
				</g>
				<g>
					<path class="st17" d="M84.6,184.6c0.8,2.5,2.2,4.9,4.3,6.8c1.8,1.6,3.8,2.7,6,3.3c10.7-12.6,8.4-19.2,8.4-19.2
						S97.3,173.9,84.6,184.6z"/>
				</g>
				<g>
					<path class="st17" d="M104,194.6c2.3-0.8,4.5-2.2,6.3-4.2c2.9-3.2,4.2-7.2,3.9-11.2c-5.7-5.2-10.9-3.7-10.9-3.7
						C103.4,176.1,112.5,183.8,104,194.6z"/>
				</g>
				<g>
					<path class="st17" d="M98.6,165.1c-4,0.1-7.9,1.8-10.8,5c-1.8,2-2.9,4.3-3.5,6.7c9.9-9.5,18.4-1.2,19-1.2
						C103.3,175.6,104.3,170.2,98.6,165.1z"/>
				</g>
				<g>
					<path class="st17" d="M109.3,169c-1-0.9-2.1-1.7-3.3-2.3c-0.3,4.7-2.6,8.5-2.6,8.8c0.3-0.1,3.9-2.7,8.5-3.5
						C111.2,171,110.3,169.9,109.3,169z"/>
				</g>
			</g>
			<g>

					<ellipse transform="matrix(0.6718 -0.7407 0.7407 0.6718 -96.1295 134.1521)" class="st10" cx="103.3" cy="175.6" rx="2.6" ry="2.6"/>
			</g>
		</g>
	</g>
	<g>
		<g>
			<circle class="st5" cx="184.3" cy="159.4" r="1.2"/>
			<path class="st5" d="M184.3,161.1c-0.9,0-1.7-0.8-1.7-1.7c0-0.9,0.8-1.7,1.7-1.7s1.7,0.8,1.7,1.7
				C186,160.4,185.2,161.1,184.3,161.1z M184.3,158.8c-0.4,0-0.7,0.3-0.7,0.7c0,0.4,0.3,0.7,0.7,0.7s0.7-0.3,0.7-0.7
				C185,159.1,184.6,158.8,184.3,158.8z"/>
		</g>
		<g>
			<circle class="st5" cx="195.1" cy="159.4" r="1.2"/>
			<path class="st5" d="M195.1,161.1c-0.9,0-1.7-0.8-1.7-1.7c0-0.9,0.8-1.7,1.7-1.7s1.7,0.8,1.7,1.7
				C196.8,160.4,196,161.1,195.1,161.1z M195.1,158.8c-0.4,0-0.7,0.3-0.7,0.7c0,0.4,0.3,0.7,0.7,0.7s0.7-0.3,0.7-0.7
				C195.8,159.1,195.5,158.8,195.1,158.8z"/>
		</g>
		<g>
			<circle class="st5" cx="189.7" cy="153.5" r="1.2"/>
			<path class="st5" d="M189.7,155.2c-0.9,0-1.7-0.8-1.7-1.7s0.8-1.7,1.7-1.7s1.7,0.8,1.7,1.7S190.6,155.2,189.7,155.2z
				 M189.7,152.8c-0.4,0-0.7,0.3-0.7,0.7s0.3,0.7,0.7,0.7s0.7-0.3,0.7-0.7S190.1,152.8,189.7,152.8z"/>
		</g>
	</g>
	<g>
		<path class="st18" d="M107,213.9c36,0,67.9-17.8,87.2-45.1c-13.1,1.2-25.8,4.6-37.5,11.1c-10.5,5.8-19.6,13.9-30.3,19.4
			c-17.4,8.8-37.9,10-57.1,7c-1.3-0.2-2.6-0.5-3.9-0.7C78.2,210.9,92.2,213.9,107,213.9z"/>
	</g>
	<g>
		<g>
			<circle class="st5" cx="137" cy="175.7" r="1.2"/>
			<path class="st5" d="M137,177.4c-0.9,0-1.7-0.8-1.7-1.7s0.8-1.7,1.7-1.7s1.7,0.8,1.7,1.7S137.9,177.4,137,177.4z M137,175.1
				c-0.4,0-0.7,0.3-0.7,0.7s0.3,0.7,0.7,0.7s0.7-0.3,0.7-0.7S137.4,175.1,137,175.1z"/>
		</g>
		<g>
			<circle class="st5" cx="126.2" cy="175.7" r="1.2"/>
			<path class="st5" d="M126.2,177.4c-0.9,0-1.7-0.8-1.7-1.7s0.8-1.7,1.7-1.7s1.7,0.8,1.7,1.7S127.1,177.4,126.2,177.4z
				 M126.2,175.1c-0.4,0-0.7,0.3-0.7,0.7s0.3,0.7,0.7,0.7s0.7-0.3,0.7-0.7S126.5,175.1,126.2,175.1z"/>
		</g>
		<g>
			<circle class="st5" cx="131.6" cy="181.7" r="1.2"/>
			<path class="st5" d="M131.6,183.4c-0.9,0-1.7-0.8-1.7-1.7s0.8-1.7,1.7-1.7s1.7,0.8,1.7,1.7S132.5,183.4,131.6,183.4z M131.6,181
				c-0.4,0-0.7,0.3-0.7,0.7s0.3,0.7,0.7,0.7s0.7-0.3,0.7-0.7S131.9,181,131.6,181z"/>
		</g>
	</g>
</g>
</svg>
