<?xml version="1.0" encoding="UTF-8"?>
<svg id="Layer_10" data-name="Layer 10" xmlns="http://www.w3.org/2000/svg" viewBox="0 0 73.8 73.8">
  <defs>
    <style>
      .cls-1 {
        fill: #7c53a2;
      }

      .cls-2 {
        fill: #010101;
      }
    </style>
  </defs>
  <path class="cls-1" d="M58.61,72.49c-.25.25-.63.39-.98.39-.51,0-.91-.27-.9-.73,0-.11.03-.23.09-.37l3.91-10.84h-5.85c-2.25,0-3.67-2.39-2.58-4.34l6.71-11.96h10.33l-5.33,8.59h6.74c1.83,0,2.79,2.16,1.6,3.53l-13.74,15.72Z"/>
  <path class="cls-2" d="M40.06,70.37c-5.84,0-11.4-1.53-16.07-4.42-.19-.12-.25-.37-.13-.57.12-.19.37-.24.56-.13,4.54,2.82,9.95,4.3,15.65,4.3,3.37,0,6.54-.48,9.4-1.44.26-.06.45.05.52.26.07.22-.05.44-.26.52-2.96.97-6.21,1.47-9.67,1.47ZM12.78,62.95H1.29c-.22,0-.41-.18-.41-.41s.18-.41.41-.41h11.5c.22,0,.41.18.41.41s-.18.41-.41.41ZM17.15,51.31H1.29c-.22,0-.41-.18-.41-.41s.18-.41.41-.41h15.86c.22,0,.41.18.41.41s-.18.41-.41.41ZM40.37,46.22c-1.53,0-2.99-.56-4.13-1.59-2.53-2.28-2.73-6.2-.45-8.74,2.15-2.39,15.22-10.18,15.78-10.51.14-.07.33-.08.46.03.13.1.18.28.13.44-.21.65-5.03,15.91-7.2,18.32h0c-1.1,1.23-2.62,1.95-4.26,2.04-.11,0-.22,0-.33,0ZM51.06,26.63c-3.08,1.86-12.92,7.86-14.66,9.8-1.99,2.2-1.81,5.61.39,7.59,1.06.96,2.41,1.43,3.87,1.38,1.43-.07,2.75-.7,3.7-1.76h0c1.74-1.93,5.55-13.47,6.7-17ZM21.51,39.67H1.29c-.22,0-.41-.18-.41-.41s.18-.41.41-.41h20.22c.22,0,.41.18.41.41s-.18.41-.41.41ZM69.97,37.05c-.21,0-.38-.15-.41-.36-1.69-14.9-14.37-26.13-29.49-26.13-11.78,0-22.41,6.99-27.09,17.8-.09.21-.33.3-.53.21s-.3-.33-.21-.53c4.77-11.01,15.53-18.16,27.5-18.29V1.69h-5.27c-.22,0-.41-.18-.41-.41s.18-.41.41-.41h11.64c.22,0,.41.18.41.41s-.18.41-.41.41h-5.56v8.07c15.33.23,28.11,11.7,29.83,26.84.02.22-.14.43-.36.45-.02,0-.03,0-.05,0ZM59.64,14.44c-.09,0-.18-.03-.25-.09-.18-.14-.21-.4-.08-.57l2.47-3.15c.15-.17.41-.2.57-.07.18.14.21.4.08.57l-2.47,3.15c-.09.1-.2.16-.32.16Z"/>
</svg>