<?xml version="1.0" encoding="UTF-8"?>
<svg id="Layer_11" data-name="Layer 11" xmlns="http://www.w3.org/2000/svg" viewBox="0 0 73.8 73.8">
  <defs>
    <style>
      .cls-1 {
        fill: #7c53a2;
      }

      .cls-2 {
        fill: #f37047;
      }
    </style>
  </defs>
  <g id="g1755">
    <g id="g1757">
      <g id="g1759">
        <g id="g1765">
          <g id="path1767">
            <path class="cls-2" d="M36.91,49.22c-5.9,0-10.69-4.79-10.69-10.69v-17.77c0-5.9,4.8-10.69,10.69-10.69s10.69,4.79,10.69,10.69v17.77c0,5.9-4.8,10.69-10.69,10.69ZM36.91,10.73c-5.53,0-10.03,4.5-10.03,10.03v17.77c0,5.53,4.5,10.03,10.03,10.03s10.03-4.5,10.03-10.03v-17.77c0-5.53-4.5-10.03-10.03-10.03Z"/>
          </g>
        </g>
        <g id="g1769">
          <g id="path1771">
            <path class="cls-2" d="M36.91,59.58c-11.61,0-21.05-9.44-21.05-21.05v-8.88c0-.19.14-.33.33-.33h10.36c.19,0,.33.14.33.33s-.14.33-.33.33h-10.03v8.55c0,11.24,9.15,20.39,20.39,20.39s20.4-9.15,20.4-20.39v-8.55h-10.03c-.19,0-.33-.14-.33-.33s.14-.33.33-.33h10.36c.19,0,.33.14.33.33v8.88c0,11.61-9.45,21.05-21.06,21.05Z"/>
          </g>
        </g>
        <g id="g1773">
          <g id="path1775">
            <path class="cls-2" d="M36.91,72.91c-.19,0-.33-.14-.33-.33v-13.33c0-.19.14-.33.33-.33s.33.14.33.33v13.33c0,.19-.14.33-.33.33Z"/>
          </g>
        </g>
        <g id="g1777">
          <g id="path1779">
            <path class="cls-2" d="M44.68,72.91h-15.55c-.19,0-.33-.14-.33-.33s.14-.33.33-.33h15.55c.19,0,.33.14.33.33s-.14.33-.33.33Z"/>
          </g>
        </g>
        <g id="g1781">
          <g id="path1783">
            <path class="cls-1" d="M54.82,11.57c-1.23,0-2.22.99-2.22,2.22s.99,2.22,2.22,2.22,2.22-.99,2.22-2.22-.99-2.22-2.22-2.22"/>
          </g>
        </g>
        <g id="g1785">
          <path class="cls-1" d="M61.1,20.39c-.08,0-.16-.03-.24-.09-.12-.13-.12-.34,0-.47,3.33-3.33,3.33-8.75,0-12.09-.12-.13-.12-.34,0-.47.14-.12.35-.12.47,0,3.59,3.6,3.59,9.44,0,13.03-.07.06-.15.09-.24.09Z"/>
        </g>
        <g id="g1789">
          <g id="path1791">
            <path class="cls-1" d="M67.38,26.67c-.08,0-.16-.03-.24-.09-.12-.13-.12-.34,0-.47,6.8-6.79,6.8-17.85,0-24.65-.12-.13-.12-.34,0-.47.14-.12.35-.12.47,0,7.04,7.06,7.04,18.54,0,25.6-.07.06-.15.09-.24.09Z"/>
          </g>
        </g>
        <g id="g1793">
          <g id="path1795">
            <path class="cls-1" d="M18.99,11.57c1.23,0,2.22.99,2.22,2.22s-.99,2.22-2.22,2.22-2.22-.99-2.22-2.22.99-2.22,2.22-2.22"/>
          </g>
        </g>
        <g id="g1797">
          <g id="path1799">
            <path class="cls-1" d="M12.71,20.39c-.08,0-.17-.03-.24-.09-3.59-3.59-3.59-9.43,0-13.03.13-.12.34-.12.47,0,.13.13.13.34,0,.47-3.33,3.33-3.33,8.76,0,12.09.13.13.13.34,0,.47-.07.06-.15.09-.24.09Z"/>
          </g>
        </g>
        <g id="g1801">
          <g id="path1803">
            <path class="cls-1" d="M6.44,26.67c-.08,0-.17-.03-.24-.09C2.78,23.16.9,18.62.9,13.79S2.78,4.41,6.2.99c.13-.12.34-.12.47,0,.13.13.13.34,0,.47C3.38,4.75,1.56,9.13,1.56,13.79s1.81,9.03,5.11,12.32c.13.13.13.34,0,.47-.07.06-.15.09-.24.09Z"/>
          </g>
        </g>
      </g>
    </g>
  </g>
</svg>