<?xml version="1.0" encoding="utf-8"?>
<!-- Generator: Adobe Illustrator 19.1.0, SVG Export Plug-In . SVG Version: 6.00 Build 0)  -->
<svg version="1.1" id="Layer_1" xmlns="http://www.w3.org/2000/svg" xmlns:xlink="http://www.w3.org/1999/xlink" x="0px" y="0px"
	 viewBox="0 0 70 70"  width="70.08" height="70.086" style="enable-background:new 0 0 70 70;" xml:space="preserve">
<g>
	<defs>
		<path id="SVGID_1_" d="M35.9,5L35,5l-0.3,0c-1.4-0.1-2.4-1.2-2.4-2.6C32.5,1,33.6-0.1,35,0l1.1,0.1L35.9,5z"/>
	</defs>
	<clipPath id="SVGID_2_">
		<use xlink:href="#SVGID_1_"  style="overflow:visible;"/>
	</clipPath>
</g>
<g>
	<defs>
		<path id="SVGID_3_" d="M4.6,17.7l0.5-0.9c0.7-1.2,2.2-1.6,3.4-0.9c1.2,0.7,1.6,2.2,0.9,3.4l0,0.1l-0.5,0.8L4.6,17.7z"/>
	</defs>
	<clipPath id="SVGID_4_">
		<use xlink:href="#SVGID_3_"  style="overflow:visible;"/>
	</clipPath>
</g>
<g>
	<defs>
		<path id="SVGID_5_" d="M35.9,5L35,5l-0.3,0c-1.4-0.1-2.4-1.2-2.4-2.6C32.5,1,33.6-0.1,35,0l1.1,0.1L35.9,5z"/>
	</defs>
	<clipPath id="SVGID_6_">
		<use xlink:href="#SVGID_5_"  style="overflow:visible;"/>
	</clipPath>
	<g style="clip-path:url(#SVGID_6_);">

			<image style="overflow:visible;" width="47" height="24" xlink:href="1A0DF0AB63032E4.png"  transform="matrix(0.24 0 0 0.24 25.0003 -0.4798)">
		</image>
	</g>
</g>
<image style="overflow:visible;" width="292" height="292" xlink:href="1A0DF0AB63032E3.png"  transform="matrix(0.24 0 0 0.24 0 0)">
</image>
<g>
	<defs>
		<path id="SVGID_7_" d="M4.6,17.7l0.5-0.9c0.7-1.2,2.2-1.6,3.4-0.9c1.2,0.7,1.6,2.2,0.9,3.4l0,0.1l-0.5,0.8L4.6,17.7z"/>
	</defs>
	<clipPath id="SVGID_8_">
		<use xlink:href="#SVGID_7_"  style="overflow:visible;"/>
	</clipPath>
	<g style="clip-path:url(#SVGID_8_);">

			<image style="overflow:visible;" width="42" height="51" xlink:href="1A0DF0AB63032EC.png"  transform="matrix(0.24 0 0 0.24 4.5781 8.1567)">
		</image>
	</g>
</g>
<g>
	<defs>
		<path id="SVGID_9_" d="M35.9,5L35,5l-0.3,0c-1.4-0.1-2.4-1.2-2.4-2.6C32.5,1,33.6-0.1,35,0l1.1,0.1L35.9,5z"/>
	</defs>
	<clipPath id="SVGID_10_">
		<use xlink:href="#SVGID_9_"  style="overflow:visible;"/>
	</clipPath>
</g>
<g>
	<defs>
		<path id="SVGID_11_" d="M4.6,17.7l0.5-0.9c0.7-1.2,2.2-1.6,3.4-0.9c1.2,0.7,1.6,2.2,0.9,3.4l0,0.1l-0.5,0.8L4.6,17.7z"/>
	</defs>
	<clipPath id="SVGID_12_">
		<use xlink:href="#SVGID_11_"  style="overflow:visible;"/>
	</clipPath>
</g>
</svg>
