<?xml version="1.0" encoding="utf-8"?>
<!-- Generator: Adobe Illustrator 19.1.0, SVG Export Plug-In . SVG Version: 6.00 Build 0)  -->
<svg version="1.1" id="Layer_1" xmlns="http://www.w3.org/2000/svg" xmlns:xlink="http://www.w3.org/1999/xlink" x="0px" y="0px"
	 viewBox="0 0 16.8 20.4" width="16.441" height="20.005" style="enable-background:new 0 0 16.8 20.4;" xml:space="preserve">
<style type="text/css">
	.st0{fill:#FFFFFF;}
</style>
<path class="st0" d="M13.8,10.8c0-2.5,2.1-3.7,2.2-3.8c-1.2-1.7-3-2-3.7-2C10.8,4.9,9.3,6,8.5,6c-0.8,0-2-0.9-3.3-0.9
	c-1.7,0-3.3,1-4.1,2.5c-1.8,3.1-0.4,7.6,1.3,10.1c0.8,1.2,1.8,2.6,3.2,2.5c1.3-0.1,1.7-0.8,3.3-0.8c1.5,0,2,0.8,3.3,0.8
	c1.4,0,2.2-1.2,3.1-2.5c1-1.4,1.4-2.8,1.4-2.8C16.5,14.9,13.9,13.8,13.8,10.8"/>
<path class="st0" d="M11.3,3.4c0.7-0.8,1.2-2,1-3.2c-1,0-2.2,0.7-2.9,1.5C8.8,2.5,8.2,3.7,8.4,4.8C9.5,4.9,10.6,4.2,11.3,3.4"/>
</svg>
