<svg xmlns="http://www.w3.org/2000/svg" viewBox="0 0 98.17 84.97">
  <g data-name="Layer 2">
    <g data-name="Layer 1">
      <path d="M7.58 85A18.9 18.9 0 0 1 1 83.85c-.78-.33-1.11-.55-.94-1.45l.55-3.28c.11-.78.56-1.12 1.51-.78A11.43 11.43 0 0 0 6 79c1.69 0 3-.27 3-1.5 0-.89-.78-1.39-3.07-2.62-3-1.39-5.85-3.23-5.85-8 0-5 2.79-7 8.41-7a16.22 16.22 0 0 1 5.63.94c.73.34 1 .62.89 1.45l-.55 3.23c-.12.78-.62 1-1.51.78a13.28 13.28 0 0 0-3.56-.5c-1.39.02-2.26.22-2.26 1.3s1.23 2 3 2.84c3.51 1.9 6 3.35 6 7.75C16.16 83 12.09 85 7.58 85zm22.28-9.67h-4.12v8.08a1 1 0 0 1-1.17 1.17H20a1 1 0 0 1-1.17-1.17v-22A1 1 0 0 1 20 60.23h4.57a1 1 0 0 1 1.17 1.17v7.74h4.18V61.4a1 1 0 0 1 1.17-1.17h4.51a1 1 0 0 1 1.17 1.17v22a1 1 0 0 1-1.17 1.17h-4.51a1 1 0 0 1-1.17-1.17v-8.07zm19.23-15.04c6.4 0 9.47 2.11 9.47 8.74 0 3.85-1.45 6.13-3.9 7.3l3.62 6.85c.39.78.17 1.45-.72 1.45h-4.63a1.58 1.58 0 0 1-1.62-.94l-3-6.24h-1v6a1 1 0 0 1-1.17 1.17h-4.46a1 1 0 0 1-1.17-1.17v-22a1 1 0 0 1 1.17-1.17zM49 71.87c2 0 2.56-.78 2.56-2.78 0-2.17-.55-2.84-2.56-2.84h-1.64v5.57H49zm19.42 3.29v3.51h7.13a1 1 0 0 1 1.17 1.17v3.62a1 1 0 0 1-1.17 1.17H62.79a1 1 0 0 1-1.17-1.17v-22a1 1 0 0 1 1.17-1.17h12.54a1 1 0 0 1 1.17 1.17v3.62a1 1 0 0 1-1.17 1.17h-7v3.12h6.52a1 1 0 0 1 1.17 1.17v3.4a1 1 0 0 1-1.17 1.17h-6.43zm12.65 9.47a1 1 0 0 1-1.17-1.17v-22a1 1 0 0 1 1.17-1.17h6.68c7.08 0 10.42 3.06 10.42 12.14s-3.28 12.15-10.36 12.15h-6.74zm5.74-18.22v12.15h.83c2.57 0 3.57-1.11 3.57-6.07s-1.12-6.08-3.62-6.08zm8.91-11.25V0L74.49 12.26v42.9zM69 15.38L.22 55.16h68.87L69 15.38z"/>
      <path fill="#d91f32" d="M27.41 32.04L0 14.88v32.98l27.41-15.82z"/>
    </g>
  </g>
</svg>
