<?xml version="1.0" encoding="utf-8"?>
<!-- Generator: Adobe Illustrator 22.0.1, SVG Export Plug-In . SVG Version: 6.00 Build 0)  -->
<svg version="1.1" id="Layer_1" xmlns="http://www.w3.org/2000/svg" xmlns:xlink="http://www.w3.org/1999/xlink" x="0px" y="0px"
	 viewBox="0 0 75 129.8" style="enable-background:new 0 0 75 129.8;" xml:space="preserve">
<style type="text/css">
	.st0{fill:#FFFFFF;}
	.st1{fill:#D91F32;}
</style>
<g id="Layer_1-2">
	<g>
		<path class="st0" d="M5.8,64.9c-1.7,0-3.4-0.3-5-0.9c-0.6-0.2-0.8-0.5-0.7-1.1l0.5-2.5c0.1-0.6,0.5-0.8,1.1-0.6
			c0.9,0.4,1.9,0.5,2.9,0.5c1.3,0,2.3-0.2,2.3-1.1c0-0.7-0.6-1.1-2.4-2c-2.3-1.1-4.4-2.4-4.4-6.1c0-3.8,2.1-5.3,6.4-5.3
			c1.5,0,2.9,0.2,4.3,0.7c0.5,0.2,0.8,0.5,0.7,1.1L11,50c-0.1,0.6-0.5,0.8-1.1,0.6c-0.9-0.2-1.8-0.4-2.7-0.4c-1.1,0-1.8,0.2-1.8,1
			c0,0.8,0.9,1.5,2.3,2.1c2.7,1.5,4.6,2.5,4.6,6C12.4,63.4,9.2,64.9,5.8,64.9z"/>
	</g>
	<g>
		<path class="st0" d="M22.8,57.5h-3.1v6.2c0.1,0.4-0.2,0.8-0.6,0.9c-0.1,0-0.2,0-0.3,0h-3.5c-0.4,0.1-0.8-0.2-0.9-0.6
			c0-0.1,0-0.2,0-0.3V46.9c-0.1-0.4,0.2-0.8,0.6-0.9c0.1,0,0.2,0,0.3,0h3.5c0.4-0.1,0.8,0.2,0.9,0.6c0,0.1,0,0.2,0,0.3v5.9h3.2v-5.9
			c-0.1-0.4,0.2-0.8,0.6-0.9c0.1,0,0.2,0,0.3,0h3.4c0.4-0.1,0.8,0.2,0.9,0.6c0,0.1,0,0.2,0,0.3v16.8c0.1,0.4-0.2,0.8-0.6,0.9
			c-0.1,0-0.2,0-0.3,0h-3.4c-0.4,0.1-0.8-0.2-0.9-0.6c0-0.1,0-0.2,0-0.3L22.8,57.5L22.8,57.5z M37.5,46.1c4.9,0,7.3,1.6,7.3,6.6
			c0,2.9-1.1,4.7-3,5.6l2.7,5.2c0.3,0.6,0.2,1.1-0.5,1.1h-3.5c-0.5,0.1-1-0.2-1.2-0.7L37,59.1h-0.8v4.6c0.1,0.4-0.2,0.8-0.6,0.9
			c-0.1,0-0.2,0-0.3,0h-3.4c-0.4,0.1-0.8-0.2-0.9-0.6c0-0.1,0-0.2,0-0.3V46.9c-0.1-0.4,0.2-0.8,0.6-0.9c0.1,0,0.2,0,0.3,0L37.5,46.1
			z M37.4,54.9c1.5,0,2-0.6,2-2.1c0-1.7-0.4-2.1-2-2.1h-1.2v4.3L37.4,54.9L37.4,54.9z M52.2,57.4v2.7h5.4c0.4-0.1,0.8,0.2,0.9,0.6
			c0,0.1,0,0.2,0,0.3v2.7c0.1,0.4-0.2,0.8-0.6,0.9c-0.1,0-0.2,0-0.3,0H48c-0.4,0.1-0.8-0.2-0.9-0.6c0-0.1,0-0.2,0-0.3V47
			c-0.1-0.4,0.2-0.8,0.6-0.9c0.1,0,0.2,0,0.3,0h9.5c0.4-0.1,0.8,0.2,0.9,0.6c0,0.1,0,0.2,0,0.3v2.7c0.1,0.4-0.2,0.8-0.6,0.9
			c-0.1,0-0.2,0-0.3,0h-5.3V53h5c0.4-0.1,0.8,0.2,0.9,0.6c0,0.1,0,0.2,0,0.3v2.6c0.1,0.4-0.2,0.8-0.6,0.9c-0.1,0-0.2,0-0.3,0H52.2
			L52.2,57.4z M61.9,64.6c-0.4,0.1-0.8-0.2-0.9-0.6c0-0.1,0-0.2,0-0.3V46.9c-0.1-0.4,0.2-0.8,0.6-0.9c0.1,0,0.2,0,0.3,0h5.1
			c5.4,0,7.9,2.4,7.9,9.2s-2.5,9.3-7.9,9.3L61.9,64.6L61.9,64.6z M66.3,50.7V60h0.6c2,0,2.7-0.8,2.7-4.7s-0.8-4.7-2.7-4.7H66.3z"/>
	</g>
	<path class="st0" d="M73.1,42.2V0L56.9,9.4v32.8H73.1z M52.7,11.8L0.2,42.2h52.6L52.7,11.8z"/>
	<path class="st1" d="M20.9,24.4L0,11.4v25.2L20.9,24.4z"/>
</g>
<g id="Layer_1-2_1_">
	<g>
		<path d="M5.8,129.8c-1.7,0-3.4-0.3-5-0.9c-0.6-0.2-0.8-0.5-0.7-1.1l0.5-2.5c0.1-0.6,0.5-0.8,1.1-0.6c0.9,0.4,1.9,0.5,2.9,0.5
			c1.3,0,2.3-0.2,2.3-1.1c0-0.7-0.6-1.1-2.4-2c-2.3-1.1-4.4-2.4-4.4-6.1c0-3.8,2.1-5.3,6.4-5.3c1.5,0,2.9,0.2,4.3,0.7
			c0.5,0.2,0.8,0.5,0.7,1.1l-0.5,2.4c-0.1,0.6-0.5,0.8-1.1,0.6c-0.9-0.2-1.8-0.4-2.7-0.4c-1.1,0-1.8,0.2-1.8,1s0.9,1.5,2.3,2.1
			c2.7,1.5,4.6,2.5,4.6,6C12.4,128.3,9.2,129.8,5.8,129.8z"/>
	</g>
	<g>
		<path d="M22.8,122.4h-3.1v6.2c0.1,0.4-0.2,0.8-0.6,0.9c-0.1,0-0.2,0-0.3,0h-3.5c-0.4,0.1-0.8-0.2-0.9-0.6c0-0.1,0-0.2,0-0.3v-16.8
			c-0.1-0.4,0.2-0.8,0.6-0.9c0.1,0,0.2,0,0.3,0h3.5c0.4-0.1,0.8,0.2,0.9,0.6c0,0.1,0,0.2,0,0.3v5.9h3.2v-5.9
			c-0.1-0.4,0.2-0.8,0.6-0.9c0.1,0,0.2,0,0.3,0h3.4c0.4-0.1,0.8,0.2,0.9,0.6c0,0.1,0,0.2,0,0.3v16.8c0.1,0.4-0.2,0.8-0.6,0.9
			c-0.1,0-0.2,0-0.3,0h-3.4c-0.4,0.1-0.8-0.2-0.9-0.6c0-0.1,0-0.2,0-0.3L22.8,122.4L22.8,122.4z M37.5,111c4.9,0,7.3,1.6,7.3,6.6
			c0,2.9-1.1,4.7-3,5.6l2.7,5.2c0.3,0.6,0.2,1.1-0.5,1.1h-3.5c-0.5,0.1-1-0.2-1.2-0.7L37,124h-0.8v4.6c0.1,0.4-0.2,0.8-0.6,0.9
			c-0.1,0-0.2,0-0.3,0h-3.4c-0.4,0.1-0.8-0.2-0.9-0.6c0-0.1,0-0.2,0-0.3v-16.8c-0.1-0.4,0.2-0.8,0.6-0.9c0.1,0,0.2,0,0.3,0L37.5,111
			z M37.4,119.8c1.5,0,2-0.6,2-2.1c0-1.7-0.4-2.1-2-2.1h-1.2v4.3H37.4L37.4,119.8z M52.2,122.4v2.7h5.4c0.4-0.1,0.8,0.2,0.9,0.6
			c0,0.1,0,0.2,0,0.3v2.7c0.1,0.4-0.2,0.8-0.6,0.9c-0.1,0-0.2,0-0.3,0H48c-0.4,0.1-0.8-0.2-0.9-0.6c0-0.1,0-0.2,0-0.3v-16.8
			c-0.1-0.4,0.2-0.8,0.6-0.9c0.1,0,0.2,0,0.3,0h9.5c0.4-0.1,0.8,0.2,0.9,0.6c0,0.1,0,0.2,0,0.3v2.7c0.1,0.4-0.2,0.8-0.6,0.9
			c-0.1,0-0.2,0-0.3,0h-5.3v2.4h5c0.4-0.1,0.8,0.2,0.9,0.6c0,0.1,0,0.2,0,0.3v2.6c0.1,0.4-0.2,0.8-0.6,0.9c-0.1,0-0.2,0-0.3,0H52.2
			L52.2,122.4z M61.9,129.5c-0.4,0.1-0.8-0.2-0.9-0.6c0-0.1,0-0.2,0-0.3v-16.8c-0.1-0.4,0.2-0.8,0.6-0.9c0.1,0,0.2,0,0.3,0h5.1
			c5.4,0,7.9,2.4,7.9,9.2s-2.5,9.3-7.9,9.3L61.9,129.5L61.9,129.5z M66.3,115.6v9.3h0.6c2,0,2.7-0.8,2.7-4.7c0-3.8-0.8-4.7-2.7-4.7
			L66.3,115.6L66.3,115.6z"/>
	</g>
	<path class="st0" d="M73.1,107.1V64.9l-16.2,9.4v32.8L73.1,107.1L73.1,107.1z M52.7,76.7L0.2,107.1h52.6L52.7,76.7z"/>
	<path class="st1" d="M20.9,89.4L0,76.3v25.2L20.9,89.4z"/>
</g>
</svg>
