<?xml version="1.0" encoding="utf-8"?>
<!-- Generator: Adobe Illustrator 22.0.1, SVG Export Plug-In . SVG Version: 6.00 Build 0)  -->
<svg version="1.1" id="Layer_1" xmlns="http://www.w3.org/2000/svg" xmlns:xlink="http://www.w3.org/1999/xlink" x="0px" y="0px"
	 viewBox="0 0 98.2 85" style="enable-background:new 0 0 98.2 85;" xml:space="preserve">
<style type="text/css">
	.st0{fill:#D91F32;}
</style>
<g id="Layer_1-2">
	<g>
		<path d="M7.6,85c-2.2,0-4.5-0.4-6.6-1.2c-0.8-0.3-1.1-0.6-0.9-1.4l0.6-3.3c0.1-0.8,0.6-1.1,1.5-0.8C3.4,78.8,4.7,79,6,79
			c1.7,0,3-0.3,3-1.5c0-0.9-0.8-1.4-3.1-2.6c-3-1.4-5.8-3.2-5.8-8c0-5,2.8-7,8.4-7c1.9,0,3.8,0.3,5.6,0.9c0.7,0.3,1,0.6,0.9,1.5
			l-0.6,3.2c-0.1,0.8-0.6,1-1.5,0.8c-1.2-0.3-2.4-0.5-3.6-0.5c-1.4,0-2.3,0.2-2.3,1.3s1.2,2,3,2.8c3.5,1.9,6,3.3,6,7.8
			C16.2,83,12.1,85,7.6,85z"/>
	</g>
	<g>
		<path d="M29.9,75.3h-4.1v8.1c0.1,0.5-0.3,1.1-0.8,1.2c-0.1,0-0.3,0-0.4,0H20c-0.5,0.1-1.1-0.3-1.2-0.8c0-0.1,0-0.3,0-0.4v-22
			c-0.1-0.5,0.2-1.1,0.8-1.2c0.1,0,0.3,0,0.4,0h4.6c0.5-0.1,1.1,0.3,1.2,0.8c0,0.1,0,0.3,0,0.4v7.7h4.2v-7.7
			c-0.1-0.5,0.3-1.1,0.8-1.2c0.1,0,0.3,0,0.4,0h4.5c0.5-0.1,1.1,0.3,1.2,0.8c0,0.1,0,0.3,0,0.4v22c0.1,0.5-0.3,1.1-0.8,1.2
			c-0.1,0-0.3,0-0.4,0h-4.5c-0.5,0.1-1.1-0.3-1.2-0.8c0-0.1,0-0.3,0-0.4L29.9,75.3L29.9,75.3z M49.1,60.3c6.4,0,9.5,2.1,9.5,8.7
			c0,3.8-1.5,6.1-3.9,7.3l3.6,6.8c0.4,0.8,0.2,1.4-0.7,1.4h-4.6c-0.7,0.1-1.3-0.3-1.6-0.9l-3-6.2h-1v6c0.1,0.5-0.3,1.1-0.8,1.2
			c-0.1,0-0.3,0-0.4,0h-4.5c-0.5,0.1-1.1-0.3-1.2-0.8c0-0.1,0-0.3,0-0.4v-22c-0.1-0.5,0.3-1.1,0.8-1.2c0.1,0,0.3,0,0.4,0L49.1,60.3z
			 M49,71.9c2,0,2.6-0.8,2.6-2.8c0-2.2-0.5-2.8-2.6-2.8h-1.6v5.6L49,71.9L49,71.9z M68.4,75.2v3.5h7.1c0.5-0.1,1.1,0.3,1.2,0.8
			c0,0.1,0,0.3,0,0.4v3.6c0.1,0.5-0.3,1.1-0.8,1.2c-0.1,0-0.3,0-0.4,0H62.8c-0.5,0.1-1.1-0.3-1.2-0.8c0-0.1,0-0.3,0-0.4v-22
			c-0.1-0.5,0.3-1.1,0.8-1.2c0.1,0,0.3,0,0.4,0h12.5c0.5-0.1,1.1,0.3,1.2,0.8c0,0.1,0,0.3,0,0.4v3.6c0.1,0.5-0.3,1.1-0.8,1.2
			c-0.1,0-0.3,0-0.4,0h-7v3.1h6.5c0.5-0.1,1.1,0.3,1.2,0.8c0,0.1,0,0.3,0,0.4v3.4c0.1,0.5-0.3,1.1-0.8,1.2c-0.1,0-0.3,0-0.4,0
			L68.4,75.2L68.4,75.2z M81.1,84.6c-0.5,0.1-1.1-0.3-1.2-0.8c0-0.1,0-0.3,0-0.4v-22c-0.1-0.5,0.3-1.1,0.8-1.2c0.1,0,0.3,0,0.4,0
			h6.7c7.1,0,10.4,3.1,10.4,12.1s-3.3,12.2-10.4,12.2L81.1,84.6L81.1,84.6z M86.8,66.4v12.2h0.8c2.6,0,3.6-1.1,3.6-6.1
			s-1.1-6.1-3.6-6.1H86.8z"/>
	</g>
	<path d="M95.7,55.2V0L74.5,12.3v42.9L95.7,55.2z M69,15.4L0.2,55.2h68.9L69,15.4z"/>
	<path class="st0" d="M27.4,32L0,14.9v33L27.4,32z"/>
</g>
</svg>
