<?xml version="1.0" encoding="utf-8"?>
<!-- Generator: Adobe Illustrator 19.1.0, SVG Export Plug-In . SVG Version: 6.00 Build 0)  -->
<svg version="1.1" id="Layer_1" xmlns="http://www.w3.org/2000/svg" xmlns:xlink="http://www.w3.org/1999/xlink" x="0px" y="0px"
	 viewBox="0 0 160.1 161.8" width="160.55" height="159.604" style="enable-background:new 0 0 160.1 161.8;" xml:space="preserve">
<style type="text/css">
	.st0{opacity:0.7;}
	.st1{fill:#FFFFFF;}
	.st2{fill:#D62337;}
</style>
<g>
	<g>

			<image style="overflow:visible;opacity:0.28;" width="667" height="667" xlink:href="AEBFB1DE89518039.png"  transform="matrix(0.24 0 0 0.24 0 0)">
		</image>
		<g>
			<g class="st0">
				<circle class="st1" cx="76" cy="76" r="50"/>
			</g>
		</g>
	</g>
	<path class="st2" d="M86.5,75.2L72.7,64.4c-0.3-0.2-0.7-0.3-1.1-0.1c-0.3,0.2-0.6,0.5-0.6,0.9v21.6c0,0.4,0.2,0.7,0.6,0.9
		c0.1,0.1,0.3,0.1,0.4,0.1c0.2,0,0.4-0.1,0.6-0.2l13.8-10.8c0.2-0.2,0.4-0.5,0.4-0.8S86.8,75.4,86.5,75.2z"/>
</g>
</svg>
