<?xml version="1.0" encoding="UTF-8"?>
<svg id="Layer_7" data-name="Layer 7" xmlns="http://www.w3.org/2000/svg" viewBox="0 0 73.8 73.8">
  <defs>
    <style>
      .cls-1 {
        fill: #7c53a2;
      }

      .cls-2 {
        fill: #f37047;
      }
    </style>
  </defs>
  <g id="g1758">
    <g id="g1760">
      <g id="g1762">
        <g id="g1768">
          <g id="path1770">
            <path class="cls-2" d="M38.38,68.61H1.24c-.19,0-.34-.15-.34-.34s.15-.34.34-.34h37.14c.19,0,.34.15.34.34s-.15.34-.34.34Z"/>
          </g>
        </g>
        <g id="g1772">
          <g id="path1774">
            <path class="cls-2" d="M72.56,68.61h-19.39c-.19,0-.34-.15-.34-.34s.15-.34.34-.34h19.39c.19,0,.34.15.34.34s-.15.34-.34.34Z"/>
          </g>
        </g>
        <g id="g1776">
          <g id="path1778">
            <path class="cls-1" d="M42.82,72.71h5.92c2.45,0,4.44-1.99,4.44-4.44s-1.99-4.44-4.44-4.44h-5.92c-2.45,0-4.44,1.99-4.44,4.44s1.99,4.44,4.44,4.44Z"/>
          </g>
        </g>
        <g id="g1780">
          <g id="path1782">
            <path class="cls-2" d="M8.78,55.29H1.24c-.19,0-.34-.15-.34-.34s.15-.34.34-.34h7.55c.19,0,.34.15.34.34s-.15.34-.34.34Z"/>
          </g>
        </g>
        <g id="g1784">
          <g id="path1786">
            <path class="cls-2" d="M72.56,55.29H23.58c-.19,0-.34-.15-.34-.34s.15-.34.34-.34h48.99c.19,0,.34.15.34.34s-.15.34-.34.34Z"/>
          </g>
        </g>
        <g id="g1788">
          <g id="path1790">
            <path class="cls-1" d="M13.22,59.4h5.92c2.45,0,4.44-1.99,4.44-4.44s-1.99-4.44-4.44-4.44h-5.92c-2.45,0-4.44,1.99-4.44,4.44s1.99,4.44,4.44,4.44Z"/>
          </g>
        </g>
        <g id="path1792">
          <path class="cls-2" d="M72.42,41.68h-11.84c-.19,0-.34-.15-.34-.34v-8.88c0-.19.15-.34.34-.34h11.84c.19,0,.34.15.34.34v8.88c0,.19-.15.34-.34.34ZM60.91,41.01h11.17v-8.21h-11.17v8.21Z"/>
        </g>
        <g id="path1794">
          <path class="cls-2" d="M60.58,41.68h-11.84c-.19,0-.34-.15-.34-.34v-8.88c0-.19.15-.34.34-.34h11.84c.19,0,.34.15.34.34v8.88c0,.19-.15.34-.34.34ZM49.07,41.01h11.17v-8.21h-11.17v8.21Z"/>
        </g>
        <g id="path1796">
          <path class="cls-2" d="M48.74,41.68h-11.84c-.19,0-.34-.15-.34-.34v-8.88c0-.19.15-.34.34-.34h11.84c.19,0,.34.15.34.34v8.88c0,.19-.15.34-.34.34ZM37.23,41.01h11.17v-8.21h-11.17v8.21Z"/>
        </g>
        <g id="path1798">
          <path class="cls-2" d="M48.74,32.8h-23.68c-.19,0-.34-.15-.34-.34V10.27c0-.19.15-.34.34-.34h23.68c.19,0,.34.15.34.34v22.19c0,.19-.15.34-.34.34ZM25.39,32.13h23.01V10.61h-23.01v21.52Z"/>
        </g>
        <g id="path1800">
          <path class="cls-2" d="M72.42,32.8h-23.68c-.19,0-.34-.15-.34-.34V10.27c0-.19.15-.34.34-.34h23.68c.19,0,.34.15.34.34v22.19c0,.19-.15.34-.34.34ZM49.07,32.13h23.01V10.61h-23.01v21.52Z"/>
        </g>
        <g id="path1802">
          <path class="cls-2" d="M25.06,32.8H1.38c-.19,0-.34-.15-.34-.34V10.27c0-.19.15-.34.34-.34h23.67c.19,0,.34.15.34.34v22.19c0,.19-.15.34-.34.34ZM1.72,32.13h23V10.61H1.72v21.52Z"/>
        </g>
        <g id="path1804">
          <path class="cls-2" d="M36.9,41.68h-11.84c-.19,0-.34-.15-.34-.34v-8.88c0-.19.15-.34.34-.34h11.84c.19,0,.34.15.34.34v8.88c0,.19-.15.34-.34.34ZM25.39,41.01h11.17v-8.21h-11.17v8.21Z"/>
        </g>
        <g id="path1806">
          <path class="cls-2" d="M25.06,41.68h-11.83c-.19,0-.34-.15-.34-.34v-8.88c0-.19.15-.34.34-.34h11.83c.19,0,.34.15.34.34v8.88c0,.19-.15.34-.34.34ZM13.56,41.01h11.16v-8.21h-11.16v8.21Z"/>
        </g>
        <g id="path1808">
          <path class="cls-2" d="M13.22,41.68H1.38c-.19,0-.34-.15-.34-.34v-8.88c0-.19.15-.34.34-.34h11.84c.19,0,.34.15.34.34v8.88c0,.19-.15.34-.34.34ZM1.72,41.01h11.17v-8.21H1.72v8.21Z"/>
        </g>
        <g id="path1810">
          <path class="cls-2" d="M72.42,10.61h-11.84c-.19,0-.34-.15-.34-.34V1.39c0-.19.15-.34.34-.34h11.84c.19,0,.34.15.34.34v8.88c0,.19-.15.34-.34.34ZM60.91,9.93h11.17V1.73h-11.17v8.21Z"/>
        </g>
        <g id="path1812">
          <path class="cls-2" d="M60.58,10.61h-11.84c-.19,0-.34-.15-.34-.34V1.39c0-.19.15-.34.34-.34h11.84c.19,0,.34.15.34.34v8.88c0,.19-.15.34-.34.34ZM49.07,9.93h11.17V1.73h-11.17v8.21Z"/>
        </g>
        <g id="path1814">
          <path class="cls-2" d="M48.74,10.61h-11.84c-.19,0-.34-.15-.34-.34V1.39c0-.19.15-.34.34-.34h11.84c.19,0,.34.15.34.34v8.88c0,.19-.15.34-.34.34ZM37.23,9.93h11.17V1.73h-11.17v8.21Z"/>
        </g>
        <g id="path1816">
          <path class="cls-2" d="M36.9,10.61h-11.84c-.19,0-.34-.15-.34-.34V1.39c0-.19.15-.34.34-.34h11.84c.19,0,.34.15.34.34v8.88c0,.19-.15.34-.34.34ZM25.39,9.93h11.17V1.73h-11.17v8.21Z"/>
        </g>
        <g id="path1818">
          <path class="cls-2" d="M25.06,10.61h-11.83c-.19,0-.34-.15-.34-.34V1.39c0-.19.15-.34.34-.34h11.83c.19,0,.34.15.34.34v8.88c0,.19-.15.34-.34.34ZM13.56,9.93h11.16V1.73h-11.16v8.21Z"/>
        </g>
        <g id="path1820">
          <path class="cls-2" d="M13.22,10.61H1.38c-.19,0-.34-.15-.34-.34V1.39c0-.19.15-.34.34-.34h11.84c.19,0,.34.15.34.34v8.88c0,.19-.15.34-.34.34ZM1.72,9.93h11.17V1.73H1.72v8.21Z"/>
        </g>
      </g>
    </g>
  </g>
</svg>