<?xml version="1.0" encoding="UTF-8"?>
<svg id="Layer_9" data-name="Layer 9" xmlns="http://www.w3.org/2000/svg" viewBox="0 0 73.8 73.8">
  <defs>
    <style>
      .cls-1 {
        fill: #7c53a2;
      }

      .cls-2 {
        fill: #f37047;
      }
    </style>
  </defs>
  <g id="g2106">
    <g id="g2108">
      <g id="g2110">
        <g id="path2116">
          <path class="cls-2" d="M72.51,72.9H1.29c-.22,0-.39-.17-.39-.39V1.29c0-.22.17-.39.39-.39h71.22c.22,0,.39.17.39.39v71.22c0,.22-.17.39-.39.39ZM1.68,72.12h70.45V1.68H1.68v70.45Z"/>
        </g>
        <g id="g2118">
          <g id="path2120">
            <path class="cls-2" d="M72.51,10.54H1.29c-.22,0-.39-.17-.39-.39s.17-.39.39-.39h71.22c.22,0,.39.17.39.39s-.17.39-.39.39Z"/>
          </g>
        </g>
        <g id="g2122">
          <g id="path2124">
            <path class="cls-2" d="M72.51,64.04H1.29c-.22,0-.39-.17-.39-.39s.17-.39.39-.39h71.22c.22,0,.39.17.39.39s-.17.39-.39.39Z"/>
          </g>
        </g>
      </g>
    </g>
    <g id="g2126">
      <g id="path2128">
        <path class="cls-2" d="M39.2,41.72h-8.87c-.22,0-.39-.17-.39-.39v-2.21c0-.07.02-.15.06-.21l7.76-12.19c.12-.18.36-.23.54-.12.18.12.23.36.12.54l-7.7,12.1v1.71h8.48c.22,0,.39.17.39.39s-.17.39-.39.39Z"/>
      </g>
    </g>
    <g id="g2130">
      <g id="path2132">
        <path class="cls-2" d="M39.2,48.52c-.22,0-.39-.17-.39-.39v-13.45c0-.22.17-.39.39-.39s.39.17.39.39v13.45c0,.22-.17.39-.39.39Z"/>
      </g>
    </g>
    <g id="g2134">
      <g id="path2136">
        <path class="cls-2" d="M48.07,48.52c-.22,0-.39-.17-.39-.39v-22.32c0-.22.17-.39.39-.39s.39.17.39.39v22.32c0,.22-.17.39-.39.39Z"/>
      </g>
    </g>
    <g id="g2138">
      <g id="path2140">
        <path class="cls-2" d="M59.15,47.41c-.12,0-.23-.05-.32-.15l-7.67-10.12c-.12-.17-.1-.42.08-.55.16-.12.41-.1.55.07l7.67,10.12c.12.17.1.42-.08.55-.06.05-.15.08-.23.08Z"/>
      </g>
    </g>
    <g id="g2142">
      <g id="path2144">
        <path class="cls-2" d="M48.07,41.72c-.08,0-.17-.02-.24-.08-.17-.13-.21-.38-.07-.55l11.08-14.41c.13-.18.38-.21.56-.07.17.13.19.38.07.55l-11.09,14.41c-.08.1-.19.15-.31.15Z"/>
      </g>
    </g>
    <g id="g2146">
      <g id="g2148">
        <g id="g2154">
          <g id="path2156">
            <path class="cls-2" d="M36.9,10.54c-.22,0-.39-.17-.39-.39V1.29c0-.22.17-.39.39-.39s.39.17.39.39v8.87c0,.22-.17.39-.39.39Z"/>
          </g>
        </g>
        <g id="g2158">
          <g id="path2160">
            <path class="cls-2" d="M19.17,10.54c-.22,0-.39-.17-.39-.39V1.29c0-.22.17-.39.39-.39s.39.17.39.39v8.87c0,.22-.17.39-.39.39Z"/>
          </g>
        </g>
        <g id="g2162">
          <g id="path2164">
            <path class="cls-2" d="M54.63,10.54c-.22,0-.39-.17-.39-.39V1.29c0-.22.17-.39.39-.39s.39.17.39.39v8.87c0,.22-.17.39-.39.39Z"/>
          </g>
        </g>
        <g id="g2166">
          <g id="path2168">
            <path class="cls-2" d="M54.63,72.9c-.22,0-.39-.17-.39-.39v-8.86c0-.22.17-.39.39-.39s.39.17.39.39v8.86c0,.22-.17.39-.39.39Z"/>
          </g>
        </g>
        <g id="g2170">
          <g id="path2172">
            <path class="cls-2" d="M36.9,72.9c-.22,0-.39-.17-.39-.39v-8.86c0-.22.17-.39.39-.39s.39.17.39.39v8.86c0,.22-.17.39-.39.39Z"/>
          </g>
        </g>
        <g id="g2174">
          <g id="path2176">
            <path class="cls-2" d="M19.17,72.9c-.22,0-.39-.17-.39-.39v-8.86c0-.22.17-.39.39-.39s.39.17.39.39v8.86c0,.22-.17.39-.39.39Z"/>
          </g>
        </g>
      </g>
    </g>
    <g id="path2178">
      <path class="cls-2" d="M63.65,55.17H10.15c-.22,0-.39-.17-.39-.39V19.02c0-.22.17-.39.39-.39h53.5c.22,0,.39.17.39.39v35.76c0,.22-.17.39-.39.39ZM10.54,54.39h52.72V19.41H10.54v34.98Z"/>
    </g>
    <g id="g1408">
      <g id="path1410">
        <path class="cls-1" d="M24.69,37.56c0,3.05-2.47,5.52-5.52,5.52s-5.52-2.47-5.52-5.52,2.47-5.52,5.52-5.52,5.52,2.47,5.52,5.52"/>
      </g>
    </g>
  </g>
</svg>