<?xml version="1.0" encoding="UTF-8"?>
<svg id="Layer_1" data-name="Layer 1" xmlns="http://www.w3.org/2000/svg" viewBox="0 0 410.15 122.58">
  <defs>
    <style>
      .cls-1 {
        fill: #fff;
      }

      .cls-2 {
        fill: #f4913d;
        fill-rule: evenodd;
      }
    </style>
  </defs>
  <g>
    <polygon class="cls-2" points="218.89 45.14 218.89 73.53 234.34 73.53 234.34 85.62 269.04 59.33 234.34 33.04 234.34 45.14 218.89 45.14 218.89 45.14"/>
    <polygon class="cls-2" points="201.21 45.14 214.73 45.14 214.73 73.53 201.21 73.53 201.21 45.14 201.21 45.14"/>
    <polygon class="cls-2" points="183.52 45.14 197.04 45.14 197.04 73.53 183.52 73.53 183.52 45.14 183.52 45.14"/>
  </g>
  <g id="_6kJabY.tif" data-name="6kJabY.tif">
    <g>
      <path class="cls-1" d="M404.91,68.8v5.24c-2.82,23.74-32.32,33.45-48.26,14.91-13.43-15.63-4.48-40.42,15.58-44.27,15.49-2.97,31.33,8.2,32.68,24.12ZM379.65,51.14c-1.13-1.13-3.29-1.12-4.37.09-1.31,1.46-.61,3.88-.84,5.66-8.41,2.95-7.74,15.35,1,17.3,1.08.24,2.33.12,3.32.51,3.4,1.34,1.64,7.42-2.94,5.36-2.13-.96-2.84-3.75-5.73-2.66-1.02.38-1.79,1.53-1.84,2.61-.11,2.56,4.05,5.17,6.2,5.95,0,2.39-.49,6.52,2.96,6.63,3.58.11,3.19-4.22,3.15-6.63,8.38-2.95,7.74-15.34-1-17.3-1.45-.32-3.15.01-4.27-1.17-1.93-2.03-.32-5.35,2.51-5.14,2.09.16,3.19,2.44,5.04,2.44,2.04,0,3.21-1.81,2.91-3.73s-3.51-3.45-5.13-4.13c-.36-1.78.47-4.35-.97-5.78Z"/>
      <path class="cls-1" d="M351.11,7.75c.92.48,1.72,1.16,2.51,1.82,6.74,5.59,13.17,11.57,19.96,17.11,1.17,1.23,1.26,3.24,0,4.44-.2.18-1.23.81-1.41.81h-9.77v10.07c-9.25,4.44-16.02,13.81-17.67,23.93-2.35,14.4,4.85,28.41,17.68,35.03-.55,3.2,1.55,8.39-2.22,9.94h-21.96V31.93h-9.77c-.18,0-1.21-.62-1.41-.81-1.27-1.2-1.18-3.21,0-4.44,6.79-5.54,13.22-11.53,19.96-17.11.8-.66,1.59-1.34,2.51-1.82h1.61Z"/>
      <path class="cls-1" d="M320.08,110.91l.14-58.6c.12-.73,1.53-2.05,2.18-2.05h9.77v60.65h-12.09Z"/>
      <path class="cls-1" d="M301.75,76.66c.28-.74,1.5-2.22,2.32-2.22h9.77v36.47h-9.87c-1.11-.51-1.7-1.11-2.22-2.22v-32.04Z"/>
    </g>
  </g>
  <g>
    <g id="EYM2ED.tif">
      <path class="cls-1" d="M150.82,108.89c-.68.97-1.08,1.84-2.42,2.02l-47.76-.14c-.94-.27-1.99-2.02-1.99-2.88v-11.32h-16.91v8.31h7.02c.16,0,1.57.76,1.77.96,1.7,1.68.77,4.54-1.5,5.04l-38.85-.11c-2.95-1.1-1.79-5.89,1.02-5.89h7.02v-8.31H6.47c-.91,0-2.74-1.88-2.45-2.99V10.77c.01-1.55,1.09-3,2.72-3.01l125.17.15c.94.27,1.99,2.02,1.99,2.88v32.51h13.9c1.13,0,2.52,1.32,3.01,2.29v63.31ZM144.8,49.6h-39.85v44.71h39.85v-44.71ZM98.64,67.36v-20.77c0-1.46,1.82-3.29,3.3-3.29h25.66V13.79H10.05v76.77h88.59v-23.2ZM75.42,96.58h-11.18v8.31h11.18v-8.31ZM144.8,100.33h-39.85v4.56h39.85v-4.56Z"/>
    </g>
    <g id="IjuF7s.tif">
      <g>
        <path class="cls-1" d="M84.02,50.9v2.62l-.33,2.4c-1.49,8.03-8.1,14.45-16.15,15.77l-1.94.25c-.86-.04-1.77.05-2.62,0-17.41-1.07-24.91-23.06-11.68-34.62,12.26-10.72,31.79-2.58,32.73,13.57ZM63.18,35.81c-12.41.78-19.48,14.8-12.71,25.31,6.46,10.01,21.16,10.01,27.61,0,7.33-11.37-1.48-26.15-14.9-25.31Z"/>
        <path class="cls-1" d="M61.87,45.29c.45-.06.78.24,1.12.46,2.61,1.7,5.06,3.87,7.68,5.58.68.53.74,1.19.08,1.76-2.7,1.73-5.22,4.04-7.91,5.74-.7.44-1.33.55-1.76-.29l-.04-12.38c0-.44.41-.81.83-.87Z"/>
      </g>
    </g>
    <g id="IjuF7s.tif-2" data-name="IjuF7s.tif">
      <g>
        <path class="cls-1" d="M135.62,71.26v1.43l-.18,1.31c-.81,4.37-4.4,7.86-8.78,8.57l-1.06.14c-.47-.02-.96.03-1.43,0-9.47-.58-13.54-12.54-6.35-18.82,6.66-5.82,17.28-1.4,17.79,7.38ZM124.3,63.06c-6.75.42-10.59,8.05-6.91,13.76s11.5,5.44,15.01,0c3.98-6.18-.81-14.21-8.1-13.76Z"/>
        <path class="cls-1" d="M123.58,68.21c.24-.03.42.13.61.25,1.42.92,2.75,2.1,4.17,3.03.37.29.4.64.04.96-1.47.94-2.84,2.2-4.3,3.12-.38.24-.72.3-.96-.16l-.02-6.73c0-.24.22-.44.45-.47Z"/>
      </g>
    </g>
  </g>
</svg>