<?xml version="1.0" encoding="UTF-8"?>
<svg id="Layer_3" data-name="Layer 3" xmlns="http://www.w3.org/2000/svg" viewBox="0 0 73.8 73.8">
  <defs>
    <style>
      .cls-1 {
        fill: #7c53a2;
      }

      .cls-2 {
        fill: #f37047;
      }
    </style>
  </defs>
  <g id="g587">
    <g id="path589">
      <path class="cls-1" d="M33.26,46.64l13.79-7.99c2.04-1.18,2.04-4.14,0-5.32l-13.79-7.99c-2.04-1.18-4.6.29-4.6,2.66v15.97c0,2.36,2.55,3.84,4.6,2.66Z"/>
    </g>
  </g>
  <g id="g171">
    <g id="g173">
      <g id="g175">
        <g id="g185">
          <g id="path187">
            <path class="cls-2" d="M50.32,72.9h-26.84c-4,0-7.26-3.25-7.26-7.25v-3.19c0-.16.13-.29.29-.29h40.77c.16,0,.29.13.29.29v3.19c0,4-3.25,7.25-7.25,7.25ZM16.8,62.74v2.9c0,3.68,3,6.68,6.68,6.68h26.84c3.68,0,6.68-2.99,6.68-6.68v-2.9H16.8Z"/>
          </g>
        </g>
        <g id="g189">
          <g id="path191">
            <path class="cls-2" d="M38.63,67.83h-3.45c-.16,0-.29-.13-.29-.29s.13-.29.29-.29h3.45c.16,0,.29.13.29.29s-.13.29-.29.29Z"/>
          </g>
        </g>
        <g id="g197">
          <g id="path199">
            <path class="cls-2" d="M57.29,62.74H16.51c-.16,0-.29-.13-.29-.29V8.16c0-4,3.25-7.26,7.26-7.26h26.84c4,0,7.25,3.25,7.25,7.26v54.3c0,.16-.13.29-.29.29ZM16.8,62.17h40.2V8.16c0-3.68-2.99-6.68-6.68-6.68h-26.84c-3.68,0-6.68,3-6.68,6.68v54.01Z"/>
          </g>
        </g>
        <g id="g201">
          <g id="path203">
            <path class="cls-2" d="M38.41,6.7h-10.25c-.16,0-.29-.13-.29-.29s.13-.29.29-.29h10.25c.16,0,.29.13.29.29s-.13.29-.29.29Z"/>
          </g>
        </g>
        <g id="g205">
          <g id="path207">
            <path class="cls-2" d="M45.64,6.7h-1.11c-.16,0-.29-.13-.29-.29s.13-.29.29-.29h1.11c.16,0,.29.13.29.29s-.13.29-.29.29Z"/>
          </g>
        </g>
      </g>
    </g>
  </g>
</svg>