<?xml version="1.0" encoding="utf-8"?>
<!-- Generator: Adobe Illustrator 19.1.0, SVG Export Plug-In . SVG Version: 6.00 Build 0)  -->
<svg version="1.1" id="Layer_1" xmlns="http://www.w3.org/2000/svg" xmlns:xlink="http://www.w3.org/1999/xlink" x="0px" y="0px"
	 viewBox="0 0 200 28.4" width="200.005" height="27.74" style="enable-background:new 0 0 200 28.4;" xml:space="preserve">
<style type="text/css">
	.st0{fill:#EEA63B;}
</style>
<g>
	<path class="st0" d="M19.7,9.4l8.7,1.3c0.6,0.1,0.9,0.9,0.4,1.3l-6.3,6.1c-0.2,0.2-0.3,0.4-0.2,0.7l1.5,8.7
		c0.1,0.6-0.6,1.1-1.1,0.8l-7.8-4.1c-0.2-0.1-0.5-0.1-0.7,0l-7.8,4.1c-0.6,0.3-1.2-0.2-1.1-0.8l1.5-8.7c0-0.3,0-0.5-0.2-0.7L0.2,12
		c-0.5-0.4-0.2-1.2,0.4-1.3l8.7-1.3c0.3,0,0.5-0.2,0.6-0.4l3.9-7.9c0.3-0.6,1.1-0.6,1.4,0L19.1,9C19.2,9.2,19.4,9.4,19.7,9.4z"/>
	<path class="st0" d="M62.4,9.4l8.7,1.3c0.6,0.1,0.9,0.9,0.4,1.3l-6.3,6.1c-0.2,0.2-0.3,0.4-0.2,0.7l1.5,8.7
		c0.1,0.6-0.6,1.1-1.1,0.8l-7.8-4.1c-0.2-0.1-0.5-0.1-0.7,0l-7.8,4.1c-0.6,0.3-1.2-0.2-1.1-0.8l1.5-8.7c0-0.3,0-0.5-0.2-0.7L43,12
		c-0.5-0.4-0.2-1.2,0.4-1.3l8.7-1.3c0.3,0,0.5-0.2,0.6-0.4l3.9-7.9c0.3-0.6,1.1-0.6,1.4,0L61.8,9C62,9.2,62.2,9.4,62.4,9.4z"/>
	<path class="st0" d="M105.2,9.4l8.7,1.3c0.6,0.1,0.9,0.9,0.4,1.3l-6.3,6.1c-0.2,0.2-0.3,0.4-0.2,0.7l1.5,8.7
		c0.1,0.6-0.6,1.1-1.1,0.8l-7.8-4.1c-0.2-0.1-0.5-0.1-0.7,0l-7.8,4.1c-0.6,0.3-1.2-0.2-1.1-0.8l1.5-8.7c0-0.3,0-0.5-0.2-0.7L85.7,12
		c-0.5-0.4-0.2-1.2,0.4-1.3l8.7-1.3c0.3,0,0.5-0.2,0.6-0.4l3.9-7.9c0.3-0.6,1.1-0.6,1.4,0l3.9,7.9C104.7,9.2,104.9,9.4,105.2,9.4z"
		/>
	<path class="st0" d="M147.9,9.4l8.7,1.3c0.6,0.1,0.9,0.9,0.4,1.3l-6.3,6.1c-0.2,0.2-0.3,0.4-0.2,0.7l1.5,8.7
		c0.1,0.6-0.6,1.1-1.1,0.8l-7.8-4.1c-0.2-0.1-0.5-0.1-0.7,0l-7.8,4.1c-0.6,0.3-1.2-0.2-1.1-0.8l1.5-8.7c0-0.3,0-0.5-0.2-0.7
		l-6.3-6.1c-0.5-0.4-0.2-1.2,0.4-1.3l8.7-1.3c0.3,0,0.5-0.2,0.6-0.4l3.9-7.9c0.3-0.6,1.1-0.6,1.4,0l3.9,7.9
		C147.4,9.2,147.7,9.4,147.9,9.4z"/>
	<path class="st0" d="M190.6,9.4l8.7,1.3c0.6,0.1,0.9,0.9,0.4,1.3l-6.3,6.1c-0.2,0.2-0.3,0.4-0.2,0.7l1.5,8.7
		c0.1,0.6-0.6,1.1-1.1,0.8l-7.8-4.1c-0.2-0.1-0.5-0.1-0.7,0l-7.8,4.1c-0.6,0.3-1.2-0.2-1.1-0.8l1.5-8.7c0-0.3,0-0.5-0.2-0.7
		l-6.3-6.1c-0.5-0.4-0.2-1.2,0.4-1.3l8.7-1.3c0.3,0,0.5-0.2,0.6-0.4l3.9-7.9c0.3-0.6,1.1-0.6,1.4,0l3.9,7.9
		C190.2,9.2,190.4,9.4,190.6,9.4z"/>
</g>
</svg>
