<?xml version="1.0" encoding="UTF-8"?>
<svg id="Layer_4" data-name="Layer 4" xmlns="http://www.w3.org/2000/svg" viewBox="0 0 73.8 73.8">
  <defs>
    <style>
      .cls-1 {
        fill: #7c53a2;
      }

      .cls-2 {
        fill: #f37047;
      }
    </style>
  </defs>
  <circle class="cls-1" cx="36.9" cy="36.9" r="9.77"/>
  <path class="cls-2" d="M65.91,14.88c-3.86,0-6.99-3.13-6.99-6.99s3.13-6.99,6.99-6.99,6.99,3.13,6.99,6.99-3.13,6.99-6.99,6.99ZM65.91,1.56c-3.49,0-6.33,2.84-6.33,6.33s2.84,6.33,6.33,6.33,6.33-2.84,6.33-6.33-2.84-6.33-6.33-6.33Z"/>
  <path class="cls-2" d="M7.89,72.9c-3.86,0-6.99-3.13-6.99-6.99s3.13-6.99,6.99-6.99,6.99,3.13,6.99,6.99-3.13,6.99-6.99,6.99ZM7.89,59.59c-3.49,0-6.33,2.84-6.33,6.33s2.84,6.33,6.33,6.33,6.33-2.84,6.33-6.33-2.84-6.33-6.33-6.33Z"/>
  <path class="cls-2" d="M6.41,11.92c-3.04,0-5.51-2.47-5.51-5.51S3.37.9,6.41.9s5.51,2.47,5.51,5.51-2.47,5.51-5.51,5.51ZM6.41,1.56C3.73,1.56,1.56,3.73,1.56,6.41s2.18,4.85,4.85,4.85,4.85-2.18,4.85-4.85S9.08,1.56,6.41,1.56Z"/>
  <path class="cls-2" d="M67.4,72.9c-3.05,0-5.51-2.47-5.51-5.5s2.47-5.51,5.51-5.51,5.5,2.47,5.5,5.51-2.47,5.5-5.5,5.5ZM67.4,62.54c-2.67,0-4.86,2.18-4.86,4.86s2.18,4.85,4.86,4.85,4.85-2.17,4.85-4.85-2.17-4.86-4.85-4.86Z"/>
  <path class="cls-2" d="M63.73,64.06c-.08,0-.16-.03-.24-.09l-17.41-17.41c-.13-.13-.13-.34,0-.47.13-.12.34-.12.47,0l17.41,17.41c.12.13.12.34,0,.47-.07.06-.15.09-.24.09Z"/>
  <path class="cls-2" d="M27.48,27.81c-.08,0-.17-.03-.24-.09L9.83,10.31c-.13-.13-.13-.34,0-.47.13-.12.34-.12.47,0l17.41,17.41c.13.13.13.34,0,.47-.07.06-.15.09-.24.09Z"/>
  <path class="cls-2" d="M46.32,27.81c-.08,0-.17-.03-.24-.09-.13-.13-.13-.34,0-.47l14.88-14.88c.14-.12.33-.12.47,0,.12.13.12.34,0,.47l-14.88,14.88c-.07.06-.15.09-.24.09Z"/>
  <path class="cls-2" d="M12.6,61.53c-.08,0-.17-.03-.24-.09-.13-.13-.13-.34,0-.47l14.88-14.88c.13-.12.34-.12.47,0,.13.13.13.34,0,.47l-14.88,14.88c-.07.06-.15.09-.24.09Z"/>
  <path class="cls-2" d="M36.9,13.55c-2.63,0-4.77-2.14-4.77-4.77s2.14-4.77,4.77-4.77,4.77,2.14,4.77,4.77-2.14,4.77-4.77,4.77ZM36.9,4.67c-2.26,0-4.11,1.85-4.11,4.12s1.85,4.11,4.11,4.11,4.11-1.85,4.11-4.11-1.85-4.12-4.11-4.12Z"/>
  <path class="cls-2" d="M36.9,69.79c-2.63,0-4.77-2.14-4.77-4.76s2.14-4.77,4.77-4.77,4.77,2.14,4.77,4.77-2.14,4.76-4.77,4.76ZM36.9,60.91c-2.26,0-4.11,1.85-4.11,4.12s1.85,4.1,4.11,4.1,4.11-1.84,4.11-4.1-1.85-4.12-4.11-4.12Z"/>
  <path class="cls-2" d="M8.78,41.67c-2.63,0-4.77-2.14-4.77-4.77s2.14-4.77,4.77-4.77,4.77,2.14,4.77,4.77-2.14,4.77-4.77,4.77ZM8.78,32.79c-2.27,0-4.12,1.85-4.12,4.11s1.85,4.11,4.12,4.11,4.11-1.85,4.11-4.11-1.85-4.11-4.11-4.11Z"/>
  <path class="cls-2" d="M65.03,41.67c-2.63,0-4.77-2.14-4.77-4.77s2.14-4.77,4.77-4.77,4.76,2.14,4.76,4.77-2.14,4.77-4.76,4.77ZM65.03,32.79c-2.26,0-4.12,1.85-4.12,4.11s1.85,4.11,4.12,4.11,4.1-1.85,4.1-4.11-1.84-4.11-4.1-4.11Z"/>
  <path class="cls-2" d="M36.9,23.91c-.19,0-.33-.14-.33-.33v-10.36c0-.19.14-.33.33-.33s.33.14.33.33v10.36c0,.19-.14.33-.33.33Z"/>
  <path class="cls-2" d="M60.59,37.23h-10.36c-.19,0-.33-.14-.33-.33s.14-.33.33-.33h10.36c.19,0,.33.14.33.33s-.14.33-.33.33Z"/>
  <path class="cls-2" d="M23.58,37.23h-10.36c-.19,0-.33-.14-.33-.33s.14-.33.33-.33h10.36c.19,0,.33.14.33.33s-.14.33-.33.33Z"/>
  <path class="cls-2" d="M36.9,60.91c-.19,0-.33-.14-.33-.33v-10.36c0-.19.14-.33.33-.33s.33.14.33.33v10.36c0,.19-.14.33-.33.33Z"/>
</svg>