<?xml version="1.0" encoding="UTF-8"?>
<svg id="Layer_8" data-name="Layer 8" xmlns="http://www.w3.org/2000/svg" viewBox="0 0 73.8 73.8">
  <defs>
    <style>
      .cls-1 {
        fill: #7c53a2;
      }

      .cls-2 {
        fill: #f37047;
      }
    </style>
  </defs>
  <path class="cls-1" d="M57.28,64.51l-6.94,4.01c-1.59.92-3.58-.23-3.58-2.06v-8.02c0-1.83,1.99-2.98,3.58-2.06l6.94,4.01c1.59.92,1.59,3.21,0,4.13Z"/>
  <g>
    <path class="cls-2" d="M27.65,40.73c-7.71,0-13.99-6.27-13.99-13.98v-6.44c0-.17.14-.31.31-.31s.31.14.31.31v6.44c0,7.37,6,13.36,13.36,13.36s13.36-5.99,13.36-13.36v-6.44c0-.17.14-.31.31-.31s.31.14.31.31v6.44c0,7.71-6.27,13.98-13.98,13.98Z"/>
    <path class="cls-2" d="M39.35,72.9H1.21c-.17,0-.31-.14-.31-.31v-17.43c0-5.09,3.65-9.36,8.67-10.13l10.35-1.61v-5.09c0-.17.14-.31.31-.31s.31.14.31.31v5.36c0,.16-.11.29-.26.31l-10.61,1.65c-4.72.73-8.15,4.73-8.15,9.51v17.12h37.82c.17,0,.31.14.31.31s-.14.31-.31.31Z"/>
    <path class="cls-2" d="M53.59,52.37c-.14,0-.25-.08-.3-.21-1.13-3.46-4.07-5.95-7.66-6.51l-10.61-1.65c-.15-.02-.26-.16-.26-.31v-5.36c0-.17.14-.31.31-.31s.31.14.31.31v5.09l10.35,1.61c3.82.59,6.95,3.25,8.17,6.94.05.17-.04.34-.2.4-.03,0-.07,0-.1,0Z"/>
    <path class="cls-2" d="M65.01,72.9h-25.66c-.17,0-.31-.14-.31-.31v-20.46c0-.17.14-.31.31-.31h25.66c.17,0,.31.14.31.31v20.46c0,.17-.14.31-.31.31ZM39.66,72.28h25.04v-19.84h-25.04v19.84Z"/>
    <path class="cls-2" d="M72.59,72.9s-.09,0-.14-.03l-7.58-3.61c-.16-.08-.22-.26-.15-.42.06-.15.24-.22.42-.15l7.13,3.39v-19.54l-7.13,3.38c-.17.06-.36,0-.42-.15-.08-.16,0-.34.15-.42l7.58-3.6c.11-.05.21-.06.3.02.1.06.15.16.15.26v20.53c0,.11-.05.2-.15.26-.05.04-.11.05-.17.05Z"/>
    <path class="cls-2" d="M41.32,20.35c-.17,0-.31-.14-.31-.31,0-3.3-2.32-6.11-5.55-6.73-1.96,2.29-4.8,3.6-7.81,3.6s-5.86-1.31-7.82-3.6c-3.22.62-5.55,3.43-5.55,6.73,0,.17-.14.31-.31.31s-.31-.14-.31-.31v-5.16C13.66,7.17,19.94.9,27.65.9s13.98,6.27,13.98,13.98v5.16c0,.17-.14.31-.31.31ZM35.34,12.66h.05c2.56.43,4.63,2.12,5.61,4.37v-2.15c0-7.37-5.99-13.36-13.36-13.36s-13.36,5.99-13.36,13.36v2.15c.99-2.25,3.05-3.94,5.61-4.37.11.02.22.02.3.11,1.85,2.23,4.56,3.51,7.46,3.51s5.6-1.28,7.45-3.51c.06-.07.15-.11.24-.11Z"/>
    <path class="cls-2" d="M27.65,52.04c-4.26,0-7.72-3.46-7.72-7.72v-.63c0-.17.14-.31.31-.31s.31.14.31.31v.63c0,3.91,3.19,7.1,7.1,7.1s7.1-3.19,7.1-7.1v-.63c0-.17.14-.31.31-.31s.31.14.31.31v.63c0,4.26-3.46,7.72-7.72,7.72Z"/>
  </g>
</svg>