<?xml version="1.0" encoding="utf-8"?>
<!-- Generator: Adobe Illustrator 19.1.0, SVG Export Plug-In . SVG Version: 6.00 Build 0)  -->
<svg version="1.1" id="Layer_1" xmlns="http://www.w3.org/2000/svg" xmlns:xlink="http://www.w3.org/1999/xlink" x="0px" y="0px"
	 viewBox="0 0 71.1 61" width="70.214" height="59.8" style="enable-background:new 0 0 71.1 61;" xml:space="preserve">
<style type="text/css">
	.st0{fill:#D81F33;}
</style>
<g>
	<path class="st0" d="M68,60.4H3c-0.9,0-1.7-0.5-2.2-1.3s-0.4-1.7,0-2.5L33.4,1.8c0.5-0.8,1.3-1.2,2.2-1.2s1.7,0.5,2.2,1.2
		l32.5,54.8c0.5,0.8,0.5,1.7,0,2.5C69.7,59.9,68.9,60.4,68,60.4z M7.4,55.4h56.2L35.5,8L7.4,55.4z"/>
</g>
<g>
	<g>
		<path class="st0" d="M35.5,41.6c-1.4,0-2.5-1.1-2.5-2.5V24.8c0-1.4,1.1-2.5,2.5-2.5s2.5,1.1,2.5,2.5v14.2
			C38,40.5,36.9,41.6,35.5,41.6z"/>
	</g>
	<g>
		<path class="st0" d="M35.5,49.1c-1.4,0-2.5-1.1-2.5-2.5v-0.3c0-1.4,1.1-2.5,2.5-2.5s2.5,1.1,2.5,2.5v0.3
			C38,48,36.9,49.1,35.5,49.1z"/>
	</g>
</g>
</svg>
